<?xml version="1.0" encoding="utf-8"?>
<!-- Generator: Adobe Illustrator 27.5.0, SVG Export Plug-In . SVG Version: 6.00 Build 0)  -->
<svg version="1.1" xmlns="http://www.w3.org/2000/svg" xmlns:xlink="http://www.w3.org/1999/xlink" x="0px" y="0px"
	 viewBox="0 0 500 500" style="enable-background:new 0 0 500 500;" xml:space="preserve">
<g id="Floor">
	
		<ellipse id="Floor_00000008859699417842760380000006387414936064643712_" style="fill:#F5F5F5;" cx="250" cy="327.781" rx="244.475" ry="141.148"/>
</g>
<g id="Clouds">
	<path id="Cloud_00000134243687614486574780000017568512527963802532_" style="fill:#F5F5F5;" d="M156.244,88.754
		c-3.211-0.48-5.356-1.518-5.784-3.217c-0.431-1.71,0.963-3.892,2.664-4.557c1.701-0.665,4.036-1.183,6.923-0.845
		c-0.296-2.948,2.42-6.438,5.098-7.919c2.678-1.481,7.545-1.827,10.282,0.432c0.794-5.287,4.193-7.875,9.517-9.728
		c2.924-1.018,8.989-1.63,13.644,2.623c3.085-5.77,12.278-9.226,21.721-5.45c3.862,1.545,6.955,4.663,8.516,7.966
		c1.025,2.171,1.216,4.176,1.442,6.507c2.4-1.758,6.196-2.015,8.751-0.425c2.09,1.3,3.355,3.727,3.185,6.108
		c1.95,0.118,3.877,0.565,5.667,1.315c2.047,0.857,4.173,2.783,3.431,4.801c-0.562,1.53-2.464,2.137-4.14,2.369
		c-3.318,0.459-6.736,0.246-9.963-0.621c-5.902,4.097-14.665,3.886-20.344-0.492c0.156,0.12-3.82,2.546-4.207,2.716
		c-1.543,0.68-3.201,1.126-4.889,1.308c-2.853,0.307-6.866-0.231-9.092-2.104c-0.313-0.264-0.643-0.572-1.059-0.589
		c-0.326-0.013-0.623,0.159-0.906,0.314c-4.283,2.357-10.046,1.948-13.92-0.987c-2.489,2.257-5.952,3.498-9.377,3.359
		c-3.425-0.138-6.766-1.654-9.048-4.104C161.956,88.511,159.456,89.234,156.244,88.754z"/>
	<path id="Cloud_00000008857319111412426370000012396704371339202437_" style="fill:#F5F5F5;" d="M126.414,64.207
		c2.398-0.359,4-1.134,4.319-2.403c0.322-1.277-0.719-2.906-1.989-3.403c-1.27-0.497-3.014-0.883-5.17-0.631
		c0.221-2.201-1.807-4.808-3.807-5.914c-2-1.106-5.634-1.364-7.678,0.322c-0.593-3.948-3.131-5.881-7.106-7.264
		c-2.183-0.76-6.712-1.217-10.188,1.959c-2.304-4.308-9.169-6.89-16.22-4.069c-2.884,1.153-5.194,3.482-6.359,5.949
		c-0.766,1.621-0.908,3.118-1.077,4.859c-1.792-1.313-4.627-1.505-6.535-0.317c-1.56,0.971-2.505,2.783-2.379,4.561
		c-1.456,0.088-2.895,0.422-4.232,0.982c-1.528,0.64-3.116,2.078-2.562,3.585c0.42,1.142,1.84,1.596,3.091,1.769
		c2.478,0.343,5.03,0.184,7.44-0.464c4.407,3.06,10.951,2.901,15.191-0.367c-0.116,0.09,2.853,1.901,3.141,2.028
		c1.152,0.508,2.39,0.841,3.651,0.977c2.131,0.229,5.127-0.172,6.789-1.571c0.234-0.197,0.48-0.427,0.791-0.439
		c0.243-0.01,0.465,0.119,0.676,0.235c3.198,1.76,7.502,1.455,10.395-0.737c1.859,1.686,4.445,2.612,7.002,2.509
		c2.557-0.104,5.053-1.235,6.756-3.065C122.149,64.025,124.016,64.565,126.414,64.207z"/>
</g>
<g id="Mountain_00000161597109525693283140000003111370169162200962_">
	<g id="Mountain">
		<g id="Rock_3_">
			<polygon style="fill:#37474F;" points="201.539,260.585 294.501,317.025 338.622,328.889 397.397,307.099 449.899,307.237 
				476.132,274.271 449.899,185.481 430.993,176.521 412.781,90.825 341.794,93.309 328.616,139.76 307.469,146.11 287.081,186.439 
				239.508,198.108 			"/>
			<polygon style="fill:#455A64;" points="395.112,260.052 333.398,281.877 260.415,247.06 335.008,267.029 			"/>
			<polygon style="fill:#263238;" points="338.622,328.889 333.398,281.877 395.112,260.052 397.397,307.099 			"/>
			<polygon style="fill:#263238;" points="435.031,218.061 449.899,307.237 476.132,274.271 449.899,185.481 			"/>
			<polygon style="fill:#BA68C8;" points="341.794,93.309 403.238,111.012 412.781,90.825 			"/>
			<polygon style="opacity:0.35;fill:#FFFFFF;" points="341.794,93.309 403.238,111.012 412.781,90.825 			"/>
			<polygon style="fill:#455A64;" points="430.993,176.521 415.336,209.901 327.106,226.088 435.031,218.061 449.899,185.481 			"/>
			<polygon style="fill:#263238;" points="430.993,176.521 415.336,209.901 403.238,111.012 412.781,90.825 			"/>
			<polygon style="fill:#455A64;" points="239.508,198.108 287.081,186.439 306.978,215.355 			"/>
			<polygon style="fill:#455A64;" points="328.616,139.76 344.125,163.312 401.382,169.049 331.607,175.73 307.469,146.11 			"/>
		</g>
		<g id="Rock_4_">
			<polygon style="fill:#37474F;" points="168.107,311.255 235.283,339.078 294.501,317.025 293.388,284.6 263.345,263.382 
				237.051,254.118 210.615,245.619 186.764,251.548 			"/>
			<polygon style="fill:#455A64;" points="263.345,263.382 252.535,289.385 217.62,294.579 178.702,284.403 237.986,310.391 
				281.456,299.627 293.388,284.6 			"/>
			<polygon style="fill:#263238;" points="235.283,339.078 237.986,310.391 281.456,299.627 293.388,284.6 294.501,317.025 			"/>
			<polygon style="fill:#455A64;" points="210.615,245.619 186.764,251.548 213.332,261.336 237.051,254.118 			"/>
		</g>
		<g id="Rock">
			<g>
				<polygon style="fill:#263238;" points="395.014,345.79 418.264,356.848 418.264,338.135 402.953,329.062 				"/>
				<polygon style="fill:#37474F;" points="428.471,332.181 418.264,338.135 418.264,356.848 433.575,349.476 				"/>
				<polygon style="fill:#455A64;" points="402.953,329.062 416.846,327.644 428.471,332.181 418.264,338.135 				"/>
			</g>
			<g>
				<polygon style="fill:#455A64;" points="427.616,343.491 431.989,346.328 439.199,344.909 434.353,342.664 431.044,342.664 				
					"/>
				<polygon style="fill:#37474F;" points="430.807,355.784 431.989,346.328 439.199,344.909 441.091,349.637 				"/>
				<polygon style="fill:#263238;" points="427.616,343.491 423.952,354.129 430.807,355.784 431.989,346.328 				"/>
			</g>
		</g>
		<g id="Rock_00000016052274212287205140000014545443129886137787_">
			<g>
				<polygon style="fill:#263238;" points="395.014,345.79 418.264,356.848 418.264,338.135 402.953,329.062 				"/>
				<polygon style="fill:#37474F;" points="428.471,332.181 418.264,338.135 418.264,356.848 433.575,349.476 				"/>
				<polygon style="fill:#455A64;" points="402.953,329.062 416.846,327.644 428.471,332.181 418.264,338.135 				"/>
			</g>
			<g>
				<polygon style="fill:#455A64;" points="427.616,343.491 431.989,346.328 439.199,344.909 434.353,342.664 431.044,342.664 				
					"/>
				<polygon style="fill:#37474F;" points="430.807,355.784 431.989,346.328 439.199,344.909 441.091,349.637 				"/>
				<polygon style="fill:#263238;" points="427.616,343.491 423.952,354.129 430.807,355.784 431.989,346.328 				"/>
			</g>
		</g>
	</g>
	<g id="Road">
		<path id="Way" style="fill:#BA68C8;" d="M403.013,99.772c-25.73,9.42-30.3,17.01-32.53,63.19c-0.34,6.96-1.26,12.99-2.8,18.3
			c-4.59,15.92-14.64,25.34-30.62,34.09c-34.3,18.81-35.43,41.53-35.69,57.18c-0.58,34.71-0.4,62.79-48.9,99.65
			c-40.98,31.15-87.23,54.64-105.83,105.67c-34.38-7.87-66.59-19.84-94.4-35.9c-9.74-5.62-18.61-11.56-26.61-17.76
			c21.99-42.9,94.91-68.95,129.71-79.43c36.23-10.92,88.51-26.24,97.93-71.79c6.92-33.48,6.15-50.51,61.84-78.4
			c12.48-6.25,20.68-12.76,26.27-19.42c14.96-17.82,11.15-36.72,20.56-54.76c9.15-17.54,25.27-20.62,25.27-20.62H403.013z"/>
		<path id="Way_00000020401150987320530040000011513969911095893431_" style="opacity:0.35;fill:#FFFFFF;" d="M403.013,99.772
			c-25.73,9.42-30.3,17.01-32.53,63.19c-0.34,6.96-1.26,12.99-2.8,18.3c-4.59,15.92-14.64,25.34-30.62,34.09
			c-34.3,18.81-35.43,41.53-35.69,57.18c-0.58,34.71-0.4,62.79-48.9,99.65c-40.98,31.15-87.23,54.64-105.83,105.67
			c-34.38-7.87-66.59-19.84-94.4-35.9c-9.74-5.62-18.61-11.56-26.61-17.76c21.99-42.9,94.91-68.95,129.71-79.43
			c36.23-10.92,88.51-26.24,97.93-71.79c6.92-33.48,6.15-50.51,61.84-78.4c12.48-6.25,20.68-12.76,26.27-19.42
			c14.96-17.82,11.15-36.72,20.56-54.76c9.15-17.54,25.27-20.62,25.27-20.62H403.013z"/>
	</g>
</g>
<g id="Gears">
	<g id="Gears_2_">
		<g>
			<path style="fill:#E0E0E0;" d="M337.741,422.708c-1.867,0-3.534-1.382-3.876-3.209l-0.927-4.878
				c-2.162-0.398-4.263-0.913-6.288-1.54l-8.592,3.978c-0.578,0.271-1.255,0.413-1.957,0.413c-0.859,0-1.703-0.215-2.377-0.604
				l-8.481-4.897c-1.026-0.592-1.67-1.615-1.726-2.732c-0.055-1.118,0.486-2.199,1.447-2.89l5.194-3.735
				c-0.5-0.658-0.948-1.334-1.342-2.023l-10.843-0.686c-1.993-0.125-3.556-1.789-3.556-3.787v-6.303
				c0-1.993,1.559-3.657,3.555-3.787l10.844-0.686c0.394-0.69,0.842-1.365,1.342-2.023l-5.194-3.735
				c-0.96-0.691-1.502-1.771-1.447-2.889c0.056-1.117,0.7-2.14,1.728-2.733l8.479-4.895c0.674-0.389,1.518-0.604,2.377-0.604
				c0.702,0,1.379,0.142,1.953,0.41l8.646,3.973c1.987-0.62,4.081-1.134,6.238-1.531l0.927-4.88
				c0.349-1.828,2.016-3.207,3.876-3.207h12.468c1.862,0,3.527,1.379,3.876,3.211l0.926,4.876c2.158,0.398,4.26,0.912,6.288,1.54
				l8.597-3.984c0.578-0.267,1.252-0.408,1.95-0.408c0.858,0,1.704,0.214,2.381,0.604l8.484,4.899
				c1.023,0.594,1.665,1.613,1.721,2.73c0.056,1.116-0.483,2.195-1.445,2.889l-5.194,3.735c0.5,0.66,0.948,1.335,1.341,2.023
				l10.843,0.686c1.995,0.125,3.558,1.789,3.558,3.787v6.303c0,1.999-1.563,3.663-3.556,3.787l-10.843,0.686
				c-0.394,0.689-0.844,1.365-1.342,2.023l5.197,3.737c0.959,0.693,1.499,1.773,1.441,2.891c-0.057,1.117-0.702,2.138-1.726,2.728
				l-8.483,4.899c-0.674,0.389-1.518,0.603-2.374,0.603c-0.702,0-1.377-0.142-1.955-0.41l-8.644-3.973
				c-1.987,0.62-4.082,1.134-6.239,1.532l-0.926,4.878c-0.349,1.83-2.014,3.209-3.876,3.209H337.741z M330.982,387.005
				c-2.924,1.688-4.6,3.862-4.6,5.963c0,2.099,1.677,4.272,4.6,5.96c3.428,1.978,8.042,3.067,12.991,3.067
				c4.951,0,9.565-1.089,12.993-3.067c2.922-1.688,4.6-3.862,4.6-5.961s-1.677-4.274-4.6-5.962
				c-3.428-1.978-8.04-3.067-12.991-3.067C339.024,383.939,334.41,385.028,330.982,387.005z"/>
			<g id="XMLID_517_">
				<g>
					<path style="fill:#BA68C8;" d="M381.372,369.066l-8.48-4.896c-0.506-0.292-1.346-0.33-1.876-0.084l-8.595,3.982
						c-0.53,0.246-1.408,0.292-1.966,0.118c-2.141-0.669-4.379-1.197-6.673-1.586c-0.576-0.098-1.133-0.633-1.243-1.207
						l-1.075-5.664c-0.109-0.574-0.671-1.039-1.255-1.039h-12.468c-0.584,0-1.147,0.466-1.256,1.04l-1.076,5.664
						c-0.109,0.574-0.666,1.109-1.242,1.207c-2.293,0.389-4.531,0.917-6.672,1.586c-0.558,0.175-1.436,0.129-1.967-0.117
						l-8.596-3.982c-0.53-0.245-1.37-0.208-1.877,0.084l-8.479,4.896c-0.262,0.151-0.392,0.361-0.394,0.577l-0.003,0l-0.02,7.35
						l0.003-0.001c-0.002,0.201,0.107,0.406,0.337,0.571l3.901,2.807c-0.295,0.22-0.638,0.379-0.962,0.4l-11.299,0.715
						c-0.583,0.037-1.056,0.541-1.056,1.125l0,4.802c0,0.004-0.002,0.007-0.002,0.011l-0.018,8.841c0,0.584,0.473,1.088,1.056,1.125
						l11.3,0.715c0.332,0.021,0.682,0.188,0.981,0.415l-3.879,2.791c-0.227,0.163-0.336,0.365-0.336,0.564l-0.003,0.001l-0.02,7.358
						l0.002-0.001c0.003,0.215,0.133,0.425,0.395,0.575l8.479,4.896c0.506,0.292,1.346,0.33,1.876,0.084l8.595-3.982
						c0.53-0.246,1.408-0.292,1.966-0.118c2.141,0.669,4.38,1.197,6.674,1.587c0.576,0.098,1.134,0.633,1.243,1.207l1.075,5.664
						c0.109,0.574,0.671,1.04,1.256,1.04l12.467,0c0.585,0,1.146-0.465,1.256-1.04l1.075-5.664c0.109-0.574,0.666-1.109,1.242-1.207
						c2.294-0.39,4.532-0.917,6.673-1.586c0.558-0.174,1.437-0.129,1.967,0.117l8.596,3.982c0.53,0.246,1.37,0.208,1.876-0.084
						l8.48-4.895c0.256-0.148,0.388-0.353,0.396-0.563l0.001,0l0.021-7.372l-0.003,0c-0.001-0.198-0.11-0.4-0.336-0.563
						l-3.901-2.807c0.294-0.22,0.637-0.379,0.962-0.4l11.3-0.715c0.583-0.037,1.056-0.541,1.056-1.125l0.014-7.321
						c0-0.011,0.006-0.02,0.006-0.03l0-6.304c0-0.584-0.473-1.088-1.056-1.125l-11.3-0.715c-0.332-0.021-0.682-0.188-0.981-0.415
						l3.879-2.791c0.226-0.163,0.335-0.365,0.336-0.563l0.003,0.001l0.02-7.36l-0.003-0.001
						C381.764,369.426,381.633,369.216,381.372,369.066z M324.13,388.11c0.609-2.031,2.422-4.019,5.517-5.806
						c7.912-4.568,20.738-4.568,28.65,0c2.902,1.675,4.793,3.518,5.648,5.406c-0.674,2.315-2.552,4.535-5.646,6.322
						c-7.911,4.567-20.739,4.568-28.65,0C326.734,392.349,324.897,390.28,324.13,388.11z"/>
					<path style="opacity:0.2;fill:#FFFFFF;" d="M381.372,369.066l-8.48-4.896c-0.506-0.292-1.346-0.33-1.876-0.084l-8.595,3.982
						c-0.53,0.246-1.408,0.292-1.966,0.118c-2.141-0.669-4.379-1.197-6.673-1.586c-0.576-0.098-1.133-0.633-1.243-1.207
						l-1.075-5.664c-0.109-0.574-0.671-1.039-1.255-1.039h-12.468c-0.584,0-1.147,0.466-1.256,1.04l-1.076,5.664
						c-0.109,0.574-0.666,1.109-1.242,1.207c-2.293,0.389-4.531,0.917-6.672,1.586c-0.558,0.175-1.436,0.129-1.967-0.117
						l-8.596-3.982c-0.53-0.245-1.37-0.208-1.877,0.084l-8.479,4.896c-0.262,0.151-0.392,0.361-0.394,0.577l-0.003,0l-0.02,7.35
						l0.003-0.001c-0.002,0.201,0.107,0.406,0.337,0.571l3.901,2.807c-0.295,0.22-0.638,0.379-0.962,0.4l-11.299,0.715
						c-0.583,0.037-1.056,0.541-1.056,1.125l0,4.802c0,0.004-0.002,0.007-0.002,0.011l-0.018,8.841c0,0.584,0.473,1.088,1.056,1.125
						l11.3,0.715c0.332,0.021,0.682,0.188,0.981,0.415l-3.879,2.791c-0.227,0.163-0.336,0.365-0.336,0.564l-0.003,0.001l-0.02,7.358
						l0.002-0.001c0.003,0.215,0.133,0.425,0.395,0.575l8.479,4.896c0.506,0.292,1.346,0.33,1.876,0.084l8.595-3.982
						c0.53-0.246,1.408-0.292,1.966-0.118c2.141,0.669,4.38,1.197,6.674,1.587c0.576,0.098,1.134,0.633,1.243,1.207l1.075,5.664
						c0.109,0.574,0.671,1.04,1.256,1.04l12.467,0c0.585,0,1.146-0.465,1.256-1.04l1.075-5.664c0.109-0.574,0.666-1.109,1.242-1.207
						c2.294-0.39,4.532-0.917,6.673-1.586c0.558-0.174,1.437-0.129,1.967,0.117l8.596,3.982c0.53,0.246,1.37,0.208,1.876-0.084
						l8.48-4.895c0.256-0.148,0.388-0.353,0.396-0.563l0.001,0l0.021-7.372l-0.003,0c-0.001-0.198-0.11-0.4-0.336-0.563
						l-3.901-2.807c0.294-0.22,0.637-0.379,0.962-0.4l11.3-0.715c0.583-0.037,1.056-0.541,1.056-1.125l0.014-7.321
						c0-0.011,0.006-0.02,0.006-0.03l0-6.304c0-0.584-0.473-1.088-1.056-1.125l-11.3-0.715c-0.332-0.021-0.682-0.188-0.981-0.415
						l3.879-2.791c0.226-0.163,0.335-0.365,0.336-0.563l0.003,0.001l0.02-7.36l-0.003-0.001
						C381.764,369.426,381.633,369.216,381.372,369.066z M324.13,388.11c0.609-2.031,2.422-4.019,5.517-5.806
						c7.912-4.568,20.738-4.568,28.65,0c2.902,1.675,4.793,3.518,5.648,5.406c-0.674,2.315-2.552,4.535-5.646,6.322
						c-7.911,4.567-20.739,4.568-28.65,0C326.734,392.349,324.897,390.28,324.13,388.11z"/>
				</g>
				<path style="opacity:0.1;" d="M310.962,391.767c-0.278-0.516-0.944-0.978-1.527-1.016l-11.301-0.712
					c-0.583-0.039-1.052-0.54-1.051-1.126l-0.004-1.491l-0.02,8.838c0.006,0.589,0.475,1.091,1.058,1.129l11.301,0.712
					c0.334,0.02,0.694,0.179,0.993,0.41l2.829-2.037c0.475-0.341,0.519-0.949,0.124-1.379
					C312.382,394.019,311.584,392.904,310.962,391.767z M306.157,376.992l0.007,0.004c-0.008,0.197,0.107,0.398,0.335,0.568
					l3.902,2.81c0.234-0.172,0.437-0.391,0.559-0.619c0.62-1.141,1.425-2.252,2.403-3.33c0.395-0.435,0.349-1.038-0.126-1.379
					l-6.722-4.832c-0.193-0.149-0.305-0.32-0.339-0.494L306.157,376.992z"/>
				<path style="opacity:0.1;" d="M358.297,377.494c-7.912-4.568-20.735-4.574-28.648-0.005c-5.001,2.887-6.841,6.907-5.521,10.628
					c0.595-2.03,2.418-4.023,5.52-5.816c7.913-4.569,20.736-4.563,28.648,0.005c2.897,1.672,4.796,3.509,5.655,5.398
					C365.002,384.103,363.111,380.273,358.297,377.494z"/>
				<g>
					<path style="fill:#BA68C8;" d="M390.859,389.059c-0.076,0.514-0.515,0.942-1.047,0.981l-11.297,0.712
						c-0.187,0.008-0.384,0.066-0.569,0.152l-0.013,7.362c0.184-0.086,0.374-0.149,0.554-0.161l11.301-0.72
						c0.588-0.036,1.061-0.54,1.059-1.118L390.859,389.059z M381.77,369.639l-0.007-0.004c0.007,0.071-0.009,0.149-0.043,0.225
						c-0.016,0.077-0.069,0.152-0.136,0.219c-0.048,0.049-0.091,0.091-0.153,0.133l-6.721,4.834
						c-0.062,0.041-0.121,0.093-0.162,0.147c-0.112,0.128-0.184,0.268-0.211,0.416c-0.017,0.096-0.022,0.189-0.009,0.283
						c0.008,0.053,0.02,0.098,0.032,0.144c0.044,0.141,0.122,0.272,0.226,0.39c0.049,0.048,0.087,0.098,0.125,0.149
						c0.926,1.025,1.682,2.095,2.277,3.179c0.125,0.216,0.31,0.429,0.534,0.606l3.888-2.79c0.223-0.169,0.339-0.371,0.336-0.565
						l0.007,0.004L381.77,369.639z M381.769,401.941c-0.027,0.196-0.161,0.378-0.396,0.52l-8.484,4.892
						c-0.348,0.203-0.856,0.284-1.315,0.23l-0.012,7.343c0.459,0.054,0.963-0.02,1.311-0.223l8.477-4.897
						c0.259-0.149,0.394-0.349,0.399-0.558L381.769,401.941z M326.374,403.25c-0.315,0.03-0.614,0.097-0.847,0.202l-8.593,3.984
						c-0.215,0.106-0.487,0.161-0.766,0.163l-0.019,7.339c0.277-0.013,0.547-0.049,0.77-0.151l8.593-3.984
						c0.234-0.105,0.54-0.169,0.843-0.195L326.374,403.25z M351.256,412.273c-0.24,0.332-0.634,0.566-1.044,0.56l-12.473,0.004
						c-0.276-0.005-0.546-0.104-0.763-0.277l-0.009,7.354c0.221,0.166,0.48,0.268,0.755,0.273l12.462-0.001
						c0.444-0.003,0.862-0.261,1.093-0.628L351.256,412.273z"/>
					<path style="opacity:0.7;fill:#FFFFFF;" d="M390.859,389.059c-0.076,0.514-0.515,0.942-1.047,0.981l-11.297,0.712
						c-0.187,0.008-0.384,0.066-0.569,0.152l-0.013,7.362c0.184-0.086,0.374-0.149,0.554-0.161l11.301-0.72
						c0.588-0.036,1.061-0.54,1.059-1.118L390.859,389.059z M381.77,369.639l-0.007-0.004c0.007,0.071-0.009,0.149-0.043,0.225
						c-0.016,0.077-0.069,0.152-0.136,0.219c-0.048,0.049-0.091,0.091-0.153,0.133l-6.721,4.834
						c-0.062,0.041-0.121,0.093-0.162,0.147c-0.112,0.128-0.184,0.268-0.211,0.416c-0.017,0.096-0.022,0.189-0.009,0.283
						c0.008,0.053,0.02,0.098,0.032,0.144c0.044,0.141,0.122,0.272,0.226,0.39c0.049,0.048,0.087,0.098,0.125,0.149
						c0.926,1.025,1.682,2.095,2.277,3.179c0.125,0.216,0.31,0.429,0.534,0.606l3.888-2.79c0.223-0.169,0.339-0.371,0.336-0.565
						l0.007,0.004L381.77,369.639z M381.769,401.941c-0.027,0.196-0.161,0.378-0.396,0.52l-8.484,4.892
						c-0.348,0.203-0.856,0.284-1.315,0.23l-0.012,7.343c0.459,0.054,0.963-0.02,1.311-0.223l8.477-4.897
						c0.259-0.149,0.394-0.349,0.399-0.558L381.769,401.941z M326.374,403.25c-0.315,0.03-0.614,0.097-0.847,0.202l-8.593,3.984
						c-0.215,0.106-0.487,0.161-0.766,0.163l-0.019,7.339c0.277-0.013,0.547-0.049,0.77-0.151l8.593-3.984
						c0.234-0.105,0.54-0.169,0.843-0.195L326.374,403.25z M351.256,412.273c-0.24,0.332-0.634,0.566-1.044,0.56l-12.473,0.004
						c-0.276-0.005-0.546-0.104-0.763-0.277l-0.009,7.354c0.221,0.166,0.48,0.268,0.755,0.273l12.462-0.001
						c0.444-0.003,0.862-0.261,1.093-0.628L351.256,412.273z"/>
				</g>
				<g>
					<path id="XMLID_564_" style="fill:#BA68C8;" d="M371.016,364.085l-8.595,3.982c-0.53,0.246-1.408,0.292-1.966,0.118
						c-2.141-0.669-4.379-1.197-6.673-1.586c-0.576-0.098-1.133-0.633-1.243-1.207l-1.075-5.664
						c-0.109-0.574-0.671-1.039-1.255-1.039l-12.468,0c-0.584,0-1.147,0.466-1.256,1.04l-1.076,5.664
						c-0.109,0.574-0.666,1.109-1.242,1.207c-2.293,0.389-4.531,0.917-6.672,1.586c-0.558,0.175-1.436,0.129-1.967-0.117
						l-8.596-3.982c-0.53-0.246-1.37-0.208-1.877,0.084l-8.479,4.896c-0.506,0.292-0.532,0.806-0.057,1.147l6.72,4.836
						c0.474,0.341,0.519,0.948,0.125,1.379c-0.982,1.074-1.78,2.188-2.4,3.328c-0.279,0.513-0.944,0.977-1.527,1.014l-11.299,0.716
						c-0.583,0.037-1.056,0.541-1.056,1.125l0,6.304c0,0.584,0.473,1.088,1.056,1.125l11.299,0.715
						c0.583,0.037,1.248,0.5,1.527,1.014c0.619,1.14,1.418,2.254,2.4,3.328c0.394,0.431,0.35,1.038-0.125,1.38l-6.72,4.835
						c-0.474,0.341-0.449,0.855,0.057,1.147l8.479,4.896c0.506,0.292,1.346,0.33,1.876,0.084l8.595-3.982
						c0.53-0.246,1.408-0.292,1.966-0.117c2.141,0.669,4.379,1.197,6.673,1.587c0.576,0.098,1.133,0.633,1.242,1.207l1.075,5.664
						c0.109,0.574,0.671,1.04,1.255,1.04l12.468,0c0.585,0,1.147-0.465,1.255-1.039l1.075-5.665
						c0.109-0.574,0.666-1.109,1.242-1.207c2.294-0.389,4.532-0.917,6.673-1.586c0.558-0.174,1.437-0.129,1.967,0.117l8.596,3.982
						c0.53,0.246,1.37,0.208,1.876-0.084l8.479-4.896c0.506-0.292,0.532-0.806,0.058-1.147l-6.72-4.835
						c-0.475-0.341-0.519-0.948-0.125-1.379c0.982-1.074,1.781-2.188,2.4-3.328c0.279-0.514,0.944-0.977,1.527-1.014l11.3-0.715
						c0.583-0.037,1.056-0.541,1.056-1.125l0-6.304c0-0.585-0.473-1.088-1.056-1.125l-11.3-0.715
						c-0.583-0.037-1.248-0.5-1.526-1.014c-0.619-1.14-1.418-2.255-2.399-3.328c-0.394-0.431-0.35-1.038,0.124-1.38l6.72-4.835
						c0.474-0.341,0.449-0.855-0.058-1.147l-8.48-4.896C372.386,363.877,371.546,363.84,371.016,364.085z M358.3,377.491
						c7.911,4.568,7.911,11.973,0,16.541c-7.911,4.567-20.739,4.568-28.65,0c-7.911-4.567-7.911-11.974,0-16.542
						C337.561,372.923,350.388,372.923,358.3,377.491z"/>
					<path id="XMLID_554_" style="opacity:0.55;fill:#FFFFFF;stroke:#FFFFFF;stroke-width:0.8321;stroke-miterlimit:10;" d="
						M371.016,364.085l-8.595,3.982c-0.53,0.246-1.408,0.292-1.966,0.118c-2.141-0.669-4.379-1.197-6.673-1.586
						c-0.576-0.098-1.133-0.633-1.243-1.207l-1.075-5.664c-0.109-0.574-0.671-1.039-1.255-1.039l-12.468,0
						c-0.584,0-1.147,0.466-1.256,1.04l-1.076,5.664c-0.109,0.574-0.666,1.109-1.242,1.207c-2.293,0.389-4.531,0.917-6.672,1.586
						c-0.558,0.175-1.436,0.129-1.967-0.117l-8.596-3.982c-0.53-0.246-1.37-0.208-1.877,0.084l-8.479,4.896
						c-0.506,0.292-0.532,0.806-0.057,1.147l6.72,4.836c0.474,0.341,0.519,0.948,0.125,1.379c-0.982,1.074-1.78,2.188-2.4,3.328
						c-0.279,0.513-0.944,0.977-1.527,1.014l-11.299,0.716c-0.583,0.037-1.056,0.541-1.056,1.125l0,6.304
						c0,0.584,0.473,1.088,1.056,1.125l11.299,0.715c0.583,0.037,1.248,0.5,1.527,1.014c0.619,1.14,1.418,2.254,2.4,3.328
						c0.394,0.431,0.35,1.038-0.125,1.38l-6.72,4.835c-0.474,0.341-0.449,0.855,0.057,1.147l8.479,4.896
						c0.506,0.292,1.346,0.33,1.876,0.084l8.595-3.982c0.53-0.246,1.408-0.292,1.966-0.117c2.141,0.669,4.379,1.197,6.673,1.587
						c0.576,0.098,1.133,0.633,1.242,1.207l1.075,5.664c0.109,0.574,0.671,1.04,1.255,1.04l12.468,0
						c0.585,0,1.147-0.465,1.255-1.039l1.075-5.665c0.109-0.574,0.666-1.109,1.242-1.207c2.294-0.389,4.532-0.917,6.673-1.586
						c0.558-0.174,1.437-0.129,1.967,0.117l8.596,3.982c0.53,0.246,1.37,0.208,1.876-0.084l8.479-4.896
						c0.506-0.292,0.532-0.806,0.058-1.147l-6.72-4.835c-0.475-0.341-0.519-0.948-0.125-1.379c0.982-1.074,1.781-2.188,2.4-3.328
						c0.279-0.514,0.944-0.977,1.527-1.014l11.3-0.715c0.583-0.037,1.056-0.541,1.056-1.125l0-6.304
						c0-0.585-0.473-1.088-1.056-1.125l-11.3-0.715c-0.583-0.037-1.248-0.5-1.526-1.014c-0.619-1.14-1.418-2.255-2.399-3.328
						c-0.394-0.431-0.35-1.038,0.124-1.38l6.72-4.835c0.474-0.341,0.449-0.855-0.058-1.147l-8.48-4.896
						C372.386,363.877,371.546,363.84,371.016,364.085z M358.3,377.491c7.911,4.568,7.911,11.973,0,16.541
						c-7.911,4.567-20.739,4.568-28.65,0c-7.911-4.567-7.911-11.974,0-16.542C337.561,372.923,350.388,372.923,358.3,377.491z"/>
				</g>
			</g>
		</g>
		<g>
			<path style="fill:#E0E0E0;" d="M263.945,449.649l-7.963-0.83c-1.131-0.118-2.142-0.672-2.851-1.557
				c-0.707-0.888-1.022-1.999-0.886-3.13l0.242-1.984c-0.908-0.308-1.786-0.644-2.617-1.006c-0.057-0.02-0.262-0.066-0.622-0.068
				l-6.08,1.905c-0.472,0.149-0.982,0.225-1.513,0.225c-1.301,0-2.628-0.458-3.549-1.224l-3.99-3.322
				c-1.015-0.843-1.537-2.082-1.397-3.312c0.142-1.231,0.93-2.32,2.111-2.914l3.783-1.899c-0.018-0.053-0.035-0.107-0.053-0.162
				l-6.315-1.08c-1.168-0.199-2.183-0.882-2.788-1.871c-0.605-0.989-0.747-2.205-0.393-3.331l1.083-3.454
				c0.589-1.888,2.456-3.259,4.615-3.259c0.004,0,7.021,0.294,7.021,0.294c0.083-0.017,0.255-0.098,0.301-0.137
				c0.221-0.225,0.452-0.448,0.688-0.668l-1.676-1.784c-0.902-0.96-1.266-2.205-0.998-3.419c0.27-1.214,1.126-2.192,2.349-2.683
				l6.254-2.504c0.598-0.24,1.262-0.362,1.971-0.362c1.142,0,2.242,0.314,3.102,0.884l4.154,2.761
				c0.085,0.043,0.33,0.103,0.52,0.107c1.386-0.242,2.827-0.421,4.139-0.522l1.458-2.836c0.81-1.579,2.567-2.641,4.37-2.641
				l0.315,0.009l7.963,0.83c1.131,0.118,2.144,0.672,2.851,1.557c0.709,0.888,1.022,1.999,0.886,3.128l-0.242,1.986
				c0.908,0.308,1.786,0.646,2.617,1.006c0.057,0.02,0.262,0.066,0.622,0.068l6.081-1.904c0.472-0.15,0.982-0.225,1.513-0.225
				c1.301,0,2.626,0.458,3.547,1.221l3.992,3.323c1.015,0.843,1.535,2.082,1.395,3.311c-0.14,1.233-0.93,2.321-2.111,2.916
				l-3.783,1.899c0.018,0.053,0.037,0.107,0.053,0.16l6.317,1.081c1.164,0.199,2.181,0.88,2.785,1.868
				c0.605,0.987,0.749,2.201,0.397,3.335l-1.083,3.454c-0.589,1.888-2.458,3.259-4.617,3.259c-0.002,0-7.016-0.295-7.016-0.295
				c-0.085,0.017-0.26,0.102-0.305,0.135c-0.22,0.225-0.45,0.45-0.69,0.672l1.679,1.784c0.901,0.962,1.262,2.209,0.995,3.421
				c-0.269,1.213-1.124,2.191-2.347,2.681l-6.254,2.502c-0.598,0.242-1.26,0.364-1.971,0.364c-1.144,0-2.246-0.316-3.102-0.884
				l-4.154-2.761c-0.085-0.043-0.33-0.103-0.52-0.107c-1.386,0.242-2.827,0.421-4.141,0.522l-1.456,2.836
				c-0.81,1.58-2.567,2.641-4.372,2.641L263.945,449.649z M258.878,422.304c-2.613,1.046-4.381,2.624-4.617,4.119
				c-0.201,1.264,0.768,2.37,1.617,3.074c2.262,1.884,6.276,3.054,10.472,3.054c2.691,0,5.267-0.461,7.45-1.336
				c2.613-1.046,4.383-2.624,4.617-4.119c0.201-1.262-0.768-2.367-1.615-3.073c-2.266-1.884-6.28-3.056-10.478-3.056
				C263.633,420.968,261.059,421.432,258.878,422.304z"/>
			<g id="XMLID_418_">
				<g>
					<path style="fill:#BA68C8;" d="M278.428,408.057c-0.734-0.227-1.262-1.003-1.17-1.765l0.359-2.969
						c0.092-0.762-0.452-1.445-1.216-1.525l-7.816-0.816c-0.764-0.08-1.667,0.409-2.018,1.093l-1.557,3.033
						c-0.351,0.683-1.258,1.262-2.024,1.32c-1.362,0.103-2.716,0.269-4.049,0.502c-0.757,0.132-1.885-0.08-2.524-0.505l-4.206-2.793
						c-0.64-0.425-1.736-0.538-2.449-0.253l-6.255,2.505c-0.414,0.166-0.632,0.468-0.645,0.8l-0.005-0.004v0.073
						c0,0.003,0,0.006,0,0.009l-0.004,6.388l0.006-0.002c-0.001,0.232,0.096,0.478,0.308,0.704l0.363,0.386
						c-0.53,0.326-1.182,0.555-1.721,0.533l-7.147-0.288c-0.768-0.031-1.576,0.538-1.805,1.271l-1.083,3.456
						c-0.046,0.146-0.047,0.287-0.043,0.427l-0.019-0.003l-0.001,6.452l0.007-0.001c0.019,0.555,0.407,1.021,1.01,1.124l5.537,0.948
						l-2.157,1.083c-0.377,0.189-0.563,0.479-0.563,0.783l-0.007-0.004l-0.001,6.463l0.007-0.004
						c0.006,0.244,0.129,0.496,0.389,0.713l3.992,3.322c0.59,0.492,1.663,0.704,2.396,0.474l6.083-1.907
						c0.733-0.23,1.884-0.137,2.588,0.169c1.039,0.451,2.129,0.852,3.26,1.201c0.319,0.099,0.594,0.305,0.802,0.565l-0.001,4.358
						l0.006,0.002c0.011,0.682,0.52,1.262,1.22,1.335l7.816,0.816c0.764,0.08,1.668-0.409,2.018-1.093l1.557-3.033
						c0.351-0.683,1.258-1.262,2.024-1.32c1.362-0.103,2.716-0.27,4.049-0.502c0.757-0.132,1.884,0.081,2.524,0.506l4.206,2.793
						c0.64,0.425,1.737,0.538,2.449,0.252l6.255-2.505c0.428-0.172,0.649-0.488,0.647-0.834l0.005,0.005l0.001-6.443
						c0,0-0.004-0.002-0.004-0.002c-0.002-0.23-0.099-0.472-0.309-0.695l-0.363-0.386c0.53-0.326,1.182-0.555,1.721-0.534
						l7.146,0.289c0.767,0.031,1.576-0.538,1.805-1.271l1.083-3.456c0.042-0.134,0.055-0.264,0.055-0.393l0.007-0.001l0.001-6.423
						l-0.025,0.013c0.012-0.585-0.365-1.088-0.992-1.195l-5.538-0.948l2.157-1.083c0.382-0.192,0.568-0.487,0.563-0.796l0.008,0.005
						l0.001-6.419l-0.007,0.003c0.005-0.254-0.119-0.518-0.39-0.744l-3.992-3.323c-0.59-0.491-1.663-0.703-2.396-0.474l-6.084,1.907
						c-0.733,0.229-1.883,0.137-2.587-0.169C280.649,408.807,279.559,408.407,278.428,408.057z M252.485,424.25
						c1.051-1.51,2.847-2.867,5.337-3.865c6.779-2.715,16.087-1.743,20.79,2.172c0.67,0.557,1.188,1.12,1.591,1.682
						c-1.049,1.517-2.85,2.881-5.35,3.882c-6.779,2.716-16.087,1.743-20.79-2.171C253.412,425.409,252.895,424.837,252.485,424.25z"
						/>
					<path style="opacity:0.2;fill:#FFFFFF;" d="M278.428,408.057c-0.734-0.227-1.262-1.003-1.17-1.765l0.359-2.969
						c0.092-0.762-0.452-1.445-1.216-1.525l-7.816-0.816c-0.764-0.08-1.667,0.409-2.018,1.093l-1.557,3.033
						c-0.351,0.683-1.258,1.262-2.024,1.32c-1.362,0.103-2.716,0.269-4.049,0.502c-0.757,0.132-1.885-0.08-2.524-0.505l-4.206-2.793
						c-0.64-0.425-1.736-0.538-2.449-0.253l-6.255,2.505c-0.414,0.166-0.632,0.468-0.645,0.8l-0.005-0.004v0.073
						c0,0.003,0,0.006,0,0.009l-0.004,6.388l0.006-0.002c-0.001,0.232,0.096,0.478,0.308,0.704l0.363,0.386
						c-0.53,0.326-1.182,0.555-1.721,0.533l-7.147-0.288c-0.768-0.031-1.576,0.538-1.805,1.271l-1.083,3.456
						c-0.046,0.146-0.047,0.287-0.043,0.427l-0.019-0.003l-0.001,6.452l0.007-0.001c0.019,0.555,0.407,1.021,1.01,1.124l5.537,0.948
						l-2.157,1.083c-0.377,0.189-0.563,0.479-0.563,0.783l-0.007-0.004l-0.001,6.463l0.007-0.004
						c0.006,0.244,0.129,0.496,0.389,0.713l3.992,3.322c0.59,0.492,1.663,0.704,2.396,0.474l6.083-1.907
						c0.733-0.23,1.884-0.137,2.588,0.169c1.039,0.451,2.129,0.852,3.26,1.201c0.319,0.099,0.594,0.305,0.802,0.565l-0.001,4.358
						l0.006,0.002c0.011,0.682,0.52,1.262,1.22,1.335l7.816,0.816c0.764,0.08,1.668-0.409,2.018-1.093l1.557-3.033
						c0.351-0.683,1.258-1.262,2.024-1.32c1.362-0.103,2.716-0.27,4.049-0.502c0.757-0.132,1.884,0.081,2.524,0.506l4.206,2.793
						c0.64,0.425,1.737,0.538,2.449,0.252l6.255-2.505c0.428-0.172,0.649-0.488,0.647-0.834l0.005,0.005l0.001-6.443
						c0,0-0.004-0.002-0.004-0.002c-0.002-0.23-0.099-0.472-0.309-0.695l-0.363-0.386c0.53-0.326,1.182-0.555,1.721-0.534
						l7.146,0.289c0.767,0.031,1.576-0.538,1.805-1.271l1.083-3.456c0.042-0.134,0.055-0.264,0.055-0.393l0.007-0.001l0.001-6.423
						l-0.025,0.013c0.012-0.585-0.365-1.088-0.992-1.195l-5.538-0.948l2.157-1.083c0.382-0.192,0.568-0.487,0.563-0.796l0.008,0.005
						l0.001-6.419l-0.007,0.003c0.005-0.254-0.119-0.518-0.39-0.744l-3.992-3.323c-0.59-0.491-1.663-0.703-2.396-0.474l-6.084,1.907
						c-0.733,0.229-1.883,0.137-2.587-0.169C280.649,408.807,279.559,408.407,278.428,408.057z M252.485,424.25
						c1.051-1.51,2.847-2.867,5.337-3.865c6.779-2.715,16.087-1.743,20.79,2.172c0.67,0.557,1.188,1.12,1.591,1.682
						c-1.049,1.517-2.85,2.881-5.35,3.882c-6.779,2.716-16.087,1.743-20.79-2.171C253.412,425.409,252.895,424.837,252.485,424.25z"
						/>
				</g>
				<path style="opacity:0.1;" d="M241.185,423.524c-0.221-0.734-0.912-1.461-1.659-1.589l-6.804-1.163
					c-0.581-0.108-0.967-0.533-1.004-1.06l-0.006,6.374c0.021,0.555,0.41,1.019,1.006,1.124l5.538,0.95l2.864-1.44
					c0.692-0.346,0.902-1.147,0.571-1.842C241.483,424.428,241.314,423.977,241.185,423.524z M242.846,413.144l0.009,0.005
					c-0.004,0.225,0.094,0.471,0.301,0.704l0.368,0.39c0.229-0.133,0.434-0.293,0.591-0.455c0.507-0.528,1.081-1.042,1.713-1.524
					c0.602-0.473,0.699-1.276,0.174-1.832l-2.842-3.017c-0.212-0.223-0.31-0.469-0.306-0.694L242.846,413.144z"/>
				<path style="opacity:0.1;" d="M257.824,413.949c-5.848,2.344-7.91,6.659-5.332,10.307c1.042-1.52,2.842-2.867,5.328-3.869
					c6.782-2.714,16.087-1.749,20.795,2.169c0.662,0.559,1.187,1.115,1.579,1.682c1.811-2.591,1.392-5.649-1.575-8.12
					C273.911,412.201,264.606,411.236,257.824,413.949z"/>
				<g>
					<path style="fill:#BA68C8;" d="M268.32,436.21c-0.278,0.218-0.514,0.474-0.648,0.75l-1.564,3.037
						c-0.222,0.428-0.664,0.778-1.151,0.965l-0.004,6.438c0.496-0.181,0.929-0.537,1.151-0.965l1.564-3.037
						c0.134-0.276,0.389-0.521,0.667-0.739L268.32,436.21z M289.826,435.355c0,0,0,0-0.009-0.005
						c0.013,0.349-0.216,0.658-0.648,0.838l-6.245,2.506c-0.462,0.188-1.084,0.195-1.64,0.063l-0.005,6.438
						c0.561,0.121,1.178,0.124,1.64-0.063l6.26-2.51c0.427-0.17,0.647-0.485,0.643-0.829L289.826,435.355z M248.324,432.658
						l-6.002,1.888c-0.444,0.135-1.007,0.126-1.512-0.027l-0.008,6.422c0.511,0.143,1.067,0.187,1.516,0.042l6.012-1.883
						L248.324,432.658z M300.97,422.482c-0.007,0.122-0.029,0.248-0.067,0.378l-1.075,3.458c-0.235,0.736-1.043,1.304-1.806,1.268
						l-7.146-0.287c-0.347-0.011-0.74,0.078-1.116,0.227l-0.004,6.438c0.376-0.149,0.769-0.238,1.116-0.227l7.146,0.287
						c0.768,0.026,1.576-0.542,1.806-1.268l1.075-3.458c0.052-0.134,0.065-0.266,0.063-0.393L300.97,422.482z M297.152,412.058
						c-0.004,0.073-0.024,0.15-0.052,0.222c-0.032,0.12-0.107,0.229-0.216,0.33c-0.083,0.078-0.19,0.155-0.317,0.221l-5.017,2.521
						c-0.121,0.056-0.228,0.133-0.302,0.217c-0.161,0.147-0.274,0.322-0.34,0.523c-0.054,0.159-0.083,0.318-0.074,0.5
						c0.005,0.079,0.014,0.172,0.029,0.256c0.032,0.12,0.069,0.23,0.116,0.345c0.208,0.448,0.383,0.89,0.512,1.344
						c0.215,0.743,0.906,1.47,1.663,1.604l1.257,0.208l2.162-1.076c0.379-0.198,0.564-0.495,0.562-0.799l0.009,0.006
						L297.152,412.058z"/>
					<path style="opacity:0.7;fill:#FFFFFF;" d="M268.32,436.21c-0.278,0.218-0.514,0.474-0.648,0.75l-1.564,3.037
						c-0.222,0.428-0.664,0.778-1.151,0.965l-0.004,6.438c0.496-0.181,0.929-0.537,1.151-0.965l1.564-3.037
						c0.134-0.276,0.389-0.521,0.667-0.739L268.32,436.21z M289.826,435.355c0,0,0,0-0.009-0.005
						c0.013,0.349-0.216,0.658-0.648,0.838l-6.245,2.506c-0.462,0.188-1.084,0.195-1.64,0.063l-0.005,6.438
						c0.561,0.121,1.178,0.124,1.64-0.063l6.26-2.51c0.427-0.17,0.647-0.485,0.643-0.829L289.826,435.355z M248.324,432.658
						l-6.002,1.888c-0.444,0.135-1.007,0.126-1.512-0.027l-0.008,6.422c0.511,0.143,1.067,0.187,1.516,0.042l6.012-1.883
						L248.324,432.658z M300.97,422.482c-0.007,0.122-0.029,0.248-0.067,0.378l-1.075,3.458c-0.235,0.736-1.043,1.304-1.806,1.268
						l-7.146-0.287c-0.347-0.011-0.74,0.078-1.116,0.227l-0.004,6.438c0.376-0.149,0.769-0.238,1.116-0.227l7.146,0.287
						c0.768,0.026,1.576-0.542,1.806-1.268l1.075-3.458c0.052-0.134,0.065-0.266,0.063-0.393L300.97,422.482z M297.152,412.058
						c-0.004,0.073-0.024,0.15-0.052,0.222c-0.032,0.12-0.107,0.229-0.216,0.33c-0.083,0.078-0.19,0.155-0.317,0.221l-5.017,2.521
						c-0.121,0.056-0.228,0.133-0.302,0.217c-0.161,0.147-0.274,0.322-0.34,0.523c-0.054,0.159-0.083,0.318-0.074,0.5
						c0.005,0.079,0.014,0.172,0.029,0.256c0.032,0.12,0.069,0.23,0.116,0.345c0.208,0.448,0.383,0.89,0.512,1.344
						c0.215,0.743,0.906,1.47,1.663,1.604l1.257,0.208l2.162-1.076c0.379-0.198,0.564-0.495,0.562-0.799l0.009,0.006
						L297.152,412.058z"/>
				</g>
				<g>
					<path id="XMLID_00000059289242826732148800000017605432980472842926_" style="fill:#BA68C8;" d="M290.359,407.521l-6.084,1.907
						c-0.733,0.229-1.883,0.137-2.587-0.169c-1.039-0.451-2.129-0.852-3.26-1.201c-0.734-0.227-1.262-1.003-1.17-1.765l0.359-2.969
						c0.092-0.762-0.452-1.445-1.216-1.525l-7.816-0.816c-0.764-0.08-1.667,0.41-2.018,1.093l-1.557,3.033
						c-0.351,0.683-1.258,1.262-2.024,1.32c-1.362,0.103-2.716,0.269-4.049,0.502c-0.757,0.132-1.885-0.08-2.524-0.505l-4.206-2.793
						c-0.64-0.425-1.737-0.538-2.45-0.252l-6.255,2.505c-0.713,0.286-0.864,0.971-0.339,1.53l2.838,3.018
						c0.526,0.56,0.431,1.357-0.174,1.829c-0.629,0.49-1.199,1-1.711,1.525c-0.536,0.55-1.544,1.015-2.312,0.984l-7.147-0.288
						c-0.768-0.031-1.576,0.538-1.805,1.271l-1.083,3.456c-0.23,0.733,0.198,1.432,0.955,1.561l6.798,1.163
						c0.757,0.129,1.443,0.856,1.66,1.593c0.133,0.453,0.304,0.904,0.513,1.351c0.324,0.696,0.113,1.498-0.574,1.843l-5.017,2.519
						c-0.686,0.345-0.764,1.022-0.174,1.514l3.992,3.323c0.59,0.491,1.663,0.703,2.396,0.474l6.084-1.907
						c0.733-0.23,1.884-0.137,2.588,0.169c1.039,0.451,2.129,0.852,3.26,1.201c0.734,0.227,1.262,1.003,1.17,1.766l-0.359,2.969
						c-0.092,0.763,0.452,1.445,1.216,1.525l7.816,0.816c0.764,0.08,1.667-0.409,2.018-1.093l1.557-3.033
						c0.35-0.683,1.258-1.262,2.024-1.32c1.362-0.103,2.716-0.269,4.049-0.502c0.757-0.132,1.884,0.081,2.524,0.506l4.206,2.793
						c0.64,0.425,1.736,0.538,2.449,0.252l6.255-2.505c0.713-0.286,0.865-0.971,0.338-1.53l-2.838-3.018
						c-0.526-0.56-0.431-1.357,0.174-1.829c0.628-0.49,1.199-1,1.711-1.526c0.536-0.55,1.544-1.015,2.312-0.984l7.146,0.288
						c0.767,0.031,1.576-0.538,1.805-1.271l1.083-3.456c0.23-0.733-0.198-1.432-0.955-1.561l-6.798-1.163
						c-0.757-0.129-1.443-0.856-1.66-1.593c-0.133-0.453-0.304-0.904-0.512-1.351c-0.324-0.696-0.113-1.498,0.573-1.843l5.018-2.518
						c0.687-0.344,0.764-1.022,0.174-1.513l-3.992-3.323C292.165,407.503,291.092,407.291,290.359,407.521z M278.613,416.119
						c4.703,3.914,3.019,9.288-3.76,12.002c-6.779,2.716-16.087,1.743-20.79-2.17c-4.703-3.914-3.019-9.289,3.76-12.004
						C264.603,411.232,273.911,412.204,278.613,416.119z"/>
					<path id="XMLID_479_" style="opacity:0.55;fill:#FFFFFF;stroke:#FFFFFF;stroke-width:1.0936;stroke-miterlimit:10;" d="
						M290.359,407.521l-6.084,1.907c-0.733,0.229-1.883,0.137-2.587-0.169c-1.039-0.451-2.129-0.852-3.26-1.201
						c-0.734-0.227-1.262-1.003-1.17-1.765l0.359-2.969c0.092-0.762-0.452-1.445-1.216-1.525l-7.816-0.816
						c-0.764-0.08-1.667,0.41-2.018,1.093l-1.557,3.033c-0.351,0.683-1.258,1.262-2.024,1.32c-1.362,0.103-2.716,0.269-4.049,0.502
						c-0.757,0.132-1.885-0.08-2.524-0.505l-4.206-2.793c-0.64-0.425-1.737-0.538-2.45-0.252l-6.255,2.505
						c-0.713,0.286-0.864,0.971-0.339,1.53l2.838,3.018c0.526,0.56,0.431,1.357-0.174,1.829c-0.629,0.49-1.199,1-1.711,1.525
						c-0.536,0.55-1.544,1.015-2.312,0.984l-7.147-0.288c-0.768-0.031-1.576,0.538-1.805,1.271l-1.083,3.456
						c-0.23,0.733,0.198,1.432,0.955,1.561l6.798,1.163c0.757,0.129,1.443,0.856,1.66,1.593c0.133,0.453,0.304,0.904,0.513,1.351
						c0.324,0.696,0.113,1.498-0.574,1.843l-5.017,2.519c-0.686,0.345-0.764,1.022-0.174,1.514l3.992,3.323
						c0.59,0.491,1.663,0.703,2.396,0.474l6.084-1.907c0.733-0.23,1.884-0.137,2.588,0.169c1.039,0.451,2.129,0.852,3.26,1.201
						c0.734,0.227,1.262,1.003,1.17,1.766l-0.359,2.969c-0.092,0.763,0.452,1.445,1.216,1.525l7.816,0.816
						c0.764,0.08,1.667-0.409,2.018-1.093l1.557-3.033c0.35-0.683,1.258-1.262,2.024-1.32c1.362-0.103,2.716-0.269,4.049-0.502
						c0.757-0.132,1.884,0.081,2.524,0.506l4.206,2.793c0.64,0.425,1.736,0.538,2.449,0.252l6.255-2.505
						c0.713-0.286,0.865-0.971,0.338-1.53l-2.838-3.018c-0.526-0.56-0.431-1.357,0.174-1.829c0.628-0.49,1.199-1,1.711-1.526
						c0.536-0.55,1.544-1.015,2.312-0.984l7.146,0.288c0.767,0.031,1.576-0.538,1.805-1.271l1.083-3.456
						c0.23-0.733-0.198-1.432-0.955-1.561l-6.798-1.163c-0.757-0.129-1.443-0.856-1.66-1.593c-0.133-0.453-0.304-0.904-0.512-1.351
						c-0.324-0.696-0.113-1.498,0.573-1.843l5.018-2.518c0.687-0.344,0.764-1.022,0.174-1.513l-3.992-3.323
						C292.165,407.503,291.092,407.291,290.359,407.521z M278.613,416.119c4.703,3.914,3.019,9.288-3.76,12.002
						c-6.779,2.716-16.087,1.743-20.79-2.17c-4.703-3.914-3.019-9.289,3.76-12.004C264.603,411.232,273.911,412.204,278.613,416.119
						z"/>
				</g>
			</g>
		</g>
	</g>
</g>
<g id="Flags">
	<g id="Flag_00000078766224003986721920000001851229478599196551_">
		<g>
			<path style="fill:#455A64;" d="M353.335,48.852l-0.049,45.977c-0.01,0.48,1.236,0.504,1.254,0.009l0.049-45.856L353.335,48.852z"
				/>
			<path style="fill:#37474F;" d="M354.791,49.094c-0.098,0.456-0.546,0.746-1.002,0.648c-0.456-0.097-0.746-0.546-0.649-1.002
				c0.098-0.456,0.546-0.746,1.002-0.649C354.598,48.189,354.888,48.638,354.791,49.094z"/>
		</g>
		<g>
			<path style="fill:#BA68C8;" d="M353.328,49.453c-3.863,4.606-9.34,2.55-13.858,2.28c-4.895-0.293-7.874,1.287-9.357,3.435
				c1.413-0.376,5.379-0.019,6.629,1.017c0,0-4.988,3.26-4.994,8.601c1.451-2.263,3.976-3.967,8.862-2.963
				c4.291,0.882,9.724,2.856,12.704-0.448L353.328,49.453z"/>
			<path style="opacity:0.1;" d="M348.56,61.384c-3.944,1.196-14.693-4.046-16.812,3.402c1.451-2.263,3.976-3.967,8.862-2.963
				c4.291,0.882,9.724,2.856,12.704-0.448l0.014-11.923C353.311,54.145,352.504,60.188,348.56,61.384z"/>
			<path style="fill:#FFFFFF;" d="M345.332,53.988l0.678,2.062l2.151,0.29c0.129,0.017,0.171,0.183,0.066,0.26l-1.752,1.282
				l0.389,2.136c0.023,0.128-0.121,0.22-0.227,0.143l-1.76-1.27l-1.911,1.03c-0.115,0.062-0.247-0.048-0.207-0.172l0.664-2.067
				l-1.57-1.499c-0.094-0.09-0.031-0.249,0.099-0.25l2.171-0.007l0.941-1.956C345.12,53.853,345.291,53.864,345.332,53.988z"/>
		</g>
	</g>
	<g id="Flag_00000030474167318647504090000010943023192737580430_">
		<g>
			<path style="fill:#37474F;" d="M311.387,86.321l-0.065,60.584c-0.013,0.632,1.629,0.663,1.653,0.012l0.065-60.426L311.387,86.321
				z"/>
			<path style="fill:#37474F;" d="M313.305,86.639c-0.129,0.601-0.72,0.983-1.32,0.855c-0.601-0.129-0.983-0.72-0.855-1.32
				c0.129-0.601,0.72-0.983,1.32-0.855C313.051,85.448,313.434,86.039,313.305,86.639z"/>
		</g>
		<g>
			<path style="fill:#BA68C8;" d="M311.379,87.113c-5.09,6.07-12.308,3.36-18.261,3.004c-6.451-0.386-10.375,1.696-12.33,4.526
				c1.861-0.495,7.088-0.025,8.735,1.34c0,0-6.573,4.296-6.58,11.334c1.912-2.981,5.239-5.227,11.678-3.904
				c5.655,1.162,12.814,3.763,16.74-0.59L311.379,87.113z"/>
			<path style="opacity:0.1;" d="M305.095,102.835c-5.197,1.576-19.361-5.332-22.153,4.483c1.912-2.981,5.239-5.227,11.678-3.904
				c5.655,1.162,12.814,3.763,16.74-0.59l0.019-15.711C311.356,93.296,310.291,101.259,305.095,102.835z"/>
		</g>
	</g>
	<g id="Flag">
		<g>
			<path style="fill:#37474F;" d="M254.834,123.789l-0.08,75.192c-0.017,0.784,2.022,0.823,2.052,0.015l0.08-74.995L254.834,123.789
				z"/>
			<path style="fill:#37474F;" d="M257.215,124.185c-0.16,0.745-0.893,1.22-1.639,1.061c-0.745-0.16-1.22-0.893-1.061-1.638
				c0.16-0.745,0.893-1.22,1.639-1.061C256.9,122.706,257.375,123.439,257.215,124.185z"/>
		</g>
		<g>
			<path style="fill:#BA68C8;" d="M254.824,124.772c-6.318,7.533-15.276,4.171-22.665,3.729c-8.006-0.479-12.877,2.105-15.303,5.617
				c2.31-0.615,8.797-0.031,10.841,1.664c0,0-8.157,5.332-8.167,14.067c2.373-3.7,6.502-6.488,14.493-4.845
				c7.018,1.442,15.903,4.671,20.776-0.732L254.824,124.772z"/>
			<path style="opacity:0.1;" d="M247.025,144.285c-6.45,1.956-24.03-6.617-27.494,5.564c2.373-3.7,6.502-6.488,14.493-4.845
				c7.018,1.442,15.903,4.671,20.776-0.732l0.024-19.499C254.796,132.447,253.474,142.329,247.025,144.285z"/>
		</g>
	</g>
	<g id="Flag_00000016064507557422631760000007139118419558060686_">
		<g>
			<path style="fill:#37474F;" d="M195.738,162.207l-0.096,89.8c-0.02,0.937,2.414,0.983,2.45,0.018l0.096-89.565L195.738,162.207z"
				/>
			<path style="fill:#37474F;" d="M198.581,162.68c-0.191,0.89-1.067,1.457-1.957,1.267c-0.89-0.19-1.458-1.067-1.267-1.957
				s1.067-1.457,1.957-1.267C198.205,160.913,198.772,161.79,198.581,162.68z"/>
		</g>
		<g>
			<path style="fill:#BA68C8;" d="M195.725,163.381c-7.545,8.997-18.243,4.981-27.068,4.453c-9.561-0.572-15.378,2.514-18.277,6.709
				c2.759-0.734,10.505-0.037,12.947,1.987c0,0-9.742,6.368-9.753,16.8c2.835-4.419,7.766-7.748,17.309-5.787
				c8.382,1.723,18.993,5.578,24.813-0.874L195.725,163.381z"/>
			<path style="opacity:0.1;" d="M186.411,186.685c-7.703,2.336-28.698-7.903-32.836,6.645c2.835-4.419,7.766-7.748,17.309-5.787
				c8.382,1.723,18.993,5.578,24.813-0.874l0.028-23.287C195.692,172.547,194.114,184.349,186.411,186.685z"/>
		</g>
	</g>
</g>
<g id="Coin">
	<g id="Coin_1_">
		<g id="XMLID_00000080193752596201989450000007772334063025424536_">
			<path id="XMLID_00000138544125283220395060000004454782830426393021_" style="fill:#BA68C8;" d="M382.652,34.196l-1.013-2.113
				l4.43-2.555l0,0c0.525-0.303,1.082-0.539,1.671-0.698c0.203-0.054,0.41-0.098,0.62-0.135c0.974-0.169,2.018-0.146,3.118,0.085
				c0.369,0.077,0.745,0.177,1.124,0.303c0.381,0.123,0.769,0.271,1.162,0.446c0.49,0.215,0.988,0.469,1.492,0.764
				c0.526,0.308,1.044,0.647,1.555,1.021c0.384,0.281,0.764,0.579,1.138,0.897c5.499,4.641,9.826,12.915,10.924,20.873
				c0.076,0.543,0.135,1.082,0.178,1.619c0.065,0.769,0.097,1.533,0.094,2.287c-0.003,0.617-0.026,1.215-0.073,1.792
				c-0.04,0.5-0.097,0.983-0.169,1.45c-0.072,0.465-0.159,0.914-0.261,1.347v0.002c-0.302,1.291-0.738,2.433-1.286,3.413
				c-0.119,0.211-0.242,0.417-0.37,0.613c-0.562,0.858-1.221,1.57-1.963,2.121c-0.233,0.174-0.474,0.33-0.723,0.473l0,0
				l-4.187,2.418l-0.927-1.934c-0.246-0.055-0.494-0.118-0.745-0.194c-0.941-0.282-1.916-0.71-2.915-1.292
				c-0.58-0.339-1.151-0.718-1.712-1.137c-0.72-0.537-1.423-1.136-2.102-1.792c-4.59-4.417-8.206-11.328-9.529-18.207
				c-0.198-1.022-0.343-2.043-0.434-3.054c-0.076-0.843-0.115-1.681-0.112-2.507c0.004-1.274,0.105-2.463,0.293-3.557
				C382.101,35.948,382.344,35.031,382.652,34.196z"/>
			<g id="XMLID_00000147923028461114642240000002423010595121515945_">
				<path id="XMLID_1012_" style="opacity:0.25;fill:#FFFFFF;" d="M407.863,48.378l-8.987,5.19l-1.184-3.419l8.996-5.196
					C407.136,46.076,407.53,47.222,407.863,48.378z"/>
				<path id="XMLID_00000100361416610527797640000016624240089268018313_" style="opacity:0.25;fill:#FFFFFF;" d="M386.069,29.528
					L386.069,29.528c0.525-0.303,1.082-0.539,1.671-0.698c0.203-0.054,0.41-0.098,0.62-0.135c0.974-0.169,2.018-0.146,3.118,0.085
					c0.136,0.028,0.274,0.063,0.412,0.098l-9.247,5.34c0.003-0.008,0.005-0.016,0.008-0.023l-1.013-2.113L386.069,29.528z"/>
				<path id="XMLID_00000081610797344955818450000000467650136752365751_" style="opacity:0.25;fill:#FFFFFF;" d="M387.033,42.653
					l-1.184-1.424l13.477-7.758c0.428,0.424,0.847,0.87,1.257,1.335L387.033,42.653z"/>
				<path id="XMLID_00000027565450919751399700000000419602740233351564_" style="opacity:0.25;fill:#FFFFFF;" d="M403.444,38.62
					l-11.674,6.742l-1.286-3.361l10.871-6.278C402.091,36.63,402.789,37.6,403.444,38.62z"/>
				<path id="XMLID_00000095330866886794862110000017637164164080468911_" style="opacity:0.4;fill:#FFFFFF;" d="M386.069,29.528
					L386.069,29.528c0.525-0.303,1.082-0.539,1.671-0.698c0.203-0.054,0.41-0.098,0.62-0.135c0.974-0.169,2.018-0.146,3.118,0.085
					c0.369,0.077,0.745,0.177,1.124,0.303c0.381,0.123,0.769,0.271,1.162,0.446c0.49,0.215,0.988,0.469,1.492,0.764
					c0.526,0.308,1.044,0.647,1.555,1.021c0.384,0.281,0.764,0.579,1.138,0.897c5.122,4.323,9.226,11.798,10.652,19.232
					l-18.751,10.828c-3.692-4.357-6.528-10.293-7.666-16.21c-0.198-1.022-0.343-2.043-0.434-3.054
					c-0.076-0.843-0.115-1.681-0.112-2.507c0.004-1.274,0.105-2.463,0.293-3.557c0.169-0.995,0.412-1.912,0.72-2.748l-1.013-2.113
					L386.069,29.528z"/>
			</g>
			<path id="XMLID_00000092421631812188379240000011241312171468286134_" style="opacity:0.1;" d="M400.115,70.618l-0.927-1.934
				c-0.246-0.055-0.494-0.118-0.745-0.194c-0.941-0.282-1.916-0.71-2.915-1.292c-0.58-0.339-1.151-0.718-1.712-1.137
				c-0.72-0.537-1.423-1.136-2.102-1.792c-0.642-0.618-1.262-1.288-1.863-1.997l18.751-10.828c0.105,0.547,0.197,1.094,0.272,1.64
				c0.076,0.543,0.135,1.082,0.178,1.619c0.065,0.769,0.097,1.533,0.094,2.287c-0.003,0.617-0.026,1.215-0.073,1.792
				c-0.04,0.5-0.097,0.983-0.169,1.45c-0.072,0.465-0.159,0.914-0.261,1.347v0.002c-0.302,1.291-0.738,2.433-1.286,3.413
				c-0.119,0.211-0.242,0.417-0.37,0.613c-0.562,0.858-1.221,1.57-1.963,2.121c-0.233,0.174-0.474,0.33-0.723,0.473l0,0
				L400.115,70.618z"/>
			<path id="XMLID_00000142142585161368520810000006478856825209321352_" style="opacity:0.1;" d="M407.358,64.992
				c-0.119,0.211-0.242,0.417-0.37,0.613c-0.562,0.858-1.221,1.57-1.963,2.121c-0.233,0.174-0.474,0.33-0.723,0.473l0,0
				l-4.187,2.418l-0.927-1.934c-0.012-0.003-0.025-0.006-0.037-0.009l-0.067-0.793l9.313-5.379
				C408.12,63.421,407.772,64.253,407.358,64.992z"/>
		</g>
		<g id="XMLID_00000124147377706916022010000008748383641250627232_">
			<path id="XMLID_00000183225731520107887360000011084260957363450020_" style="fill:#BA68C8;" d="M376.902,43.234
				c-0.003,0.825,0.036,1.664,0.112,2.507c0.091,1.01,0.236,2.032,0.434,3.054c1.323,6.879,4.938,13.79,9.529,18.207
				c0.68,0.656,1.383,1.255,2.102,1.792c0.561,0.42,1.131,0.799,1.712,1.137c0.999,0.582,1.974,1.011,2.915,1.292
				c1.084,0.326,2.122,0.457,3.097,0.403c1.445-0.074,2.754-0.552,3.875-1.39c0.742-0.552,1.401-1.263,1.963-2.121
				c0.128-0.197,0.251-0.402,0.37-0.613c0.548-0.98,0.984-2.121,1.286-3.413v-0.002c0.102-0.433,0.189-0.882,0.261-1.347
				c0.072-0.467,0.129-0.95,0.169-1.45c0.047-0.577,0.07-1.175,0.073-1.792c0.003-0.754-0.029-1.518-0.094-2.287
				c-0.043-0.537-0.102-1.076-0.178-1.619c-1.098-7.957-5.425-16.231-10.924-20.873c-0.374-0.318-0.754-0.616-1.138-0.897
				c-0.511-0.374-1.029-0.714-1.555-1.022c-0.504-0.295-1.001-0.549-1.492-0.764c-0.392-0.175-0.78-0.324-1.162-0.446
				c-0.38-0.125-0.756-0.226-1.125-0.303c-1.1-0.232-2.144-0.254-3.118-0.085c-0.21,0.037-0.417,0.082-0.62,0.135
				c-0.887,0.24-1.705,0.644-2.441,1.208c-1.113,0.851-2.038,2.062-2.72,3.596c-0.461,1.036-0.814,2.216-1.037,3.532
				C377.007,40.772,376.906,41.96,376.902,43.234z"/>
			<path id="XMLID_00000059307456045023266150000002009804429109156268_" style="opacity:0.1;fill:#FFFFFF;" d="M376.902,43.234
				c-0.003,0.825,0.036,1.664,0.112,2.507c0.091,1.01,0.236,2.032,0.434,3.054c1.323,6.879,4.938,13.79,9.529,18.207
				c0.68,0.656,1.383,1.255,2.102,1.792c0.561,0.42,1.131,0.799,1.712,1.137c0.999,0.582,1.974,1.011,2.915,1.292
				c1.084,0.326,2.122,0.457,3.097,0.403c1.445-0.074,2.754-0.552,3.875-1.39c0.742-0.552,1.401-1.263,1.963-2.121
				c0.128-0.197,0.251-0.402,0.37-0.613c0.548-0.98,0.984-2.121,1.286-3.413v-0.002c0.102-0.433,0.189-0.882,0.261-1.347
				c0.072-0.467,0.129-0.95,0.169-1.45c0.047-0.577,0.07-1.175,0.073-1.792c0.003-0.754-0.029-1.518-0.094-2.287
				c-0.043-0.537-0.102-1.076-0.178-1.619c-1.098-7.957-5.425-16.231-10.924-20.873c-0.374-0.318-0.754-0.616-1.138-0.897
				c-0.511-0.374-1.029-0.714-1.555-1.022c-0.504-0.295-1.001-0.549-1.492-0.764c-0.392-0.175-0.78-0.324-1.162-0.446
				c-0.38-0.125-0.756-0.226-1.125-0.303c-1.1-0.232-2.144-0.254-3.118-0.085c-0.21,0.037-0.417,0.082-0.62,0.135
				c-0.887,0.24-1.705,0.644-2.441,1.208c-1.113,0.851-2.038,2.062-2.72,3.596c-0.461,1.036-0.814,2.216-1.037,3.532
				C377.007,40.772,376.906,41.96,376.902,43.234z"/>
			<path id="XMLID_925_" style="opacity:0.05;" d="M404.253,53.943c0.106,0.551,0.198,1.102,0.274,1.651
				c0.076,0.543,0.135,1.082,0.178,1.619c0.065,0.769,0.097,1.533,0.094,2.287c-0.003,0.617-0.026,1.215-0.073,1.792
				c-0.04,0.5-0.097,0.983-0.169,1.45c-0.072,0.465-0.159,0.914-0.261,1.347v0.002c-0.302,1.291-0.738,2.433-1.286,3.413
				c-0.119,0.211-0.242,0.417-0.37,0.613c-0.562,0.858-1.221,1.57-1.963,2.121c-1.12,0.838-2.43,1.316-3.875,1.39
				c-0.975,0.054-2.013-0.077-3.097-0.403c-0.941-0.282-1.916-0.71-2.915-1.292c-0.516-0.301-1.022-0.639-1.522-1.004
				L404.253,53.943z"/>
			<path id="XMLID_920_" style="opacity:0.05;" d="M404.037,65.052c-0.275,0.903-0.619,1.722-1.027,2.45
				c-0.119,0.211-0.242,0.417-0.37,0.613c-0.562,0.858-1.221,1.57-1.963,2.121c-0.925,0.692-1.981,1.134-3.134,1.31L404.037,65.052z
				"/>
			<g id="XMLID_00000071522629349300766840000006747796166862957713_">
				<path id="XMLID_00000080886648354915010640000004007335340703828361_" style="opacity:0.15;fill:#FFFFFF;" d="M402.346,47.469
					c0.446,1.122,0.838,2.267,1.171,3.421L387.198,67.21c-0.074-0.069-0.149-0.137-0.222-0.208c-0.691-0.665-1.357-1.393-2-2.163
					L402.346,47.469z"/>
				<path id="XMLID_00000031191286303783368960000008061155846213308331_" style="opacity:0.15;fill:#FFFFFF;" d="M397.01,38.233
					c0.735,0.908,1.433,1.879,2.088,2.898l-17.963,17.963c-0.585-1.095-1.118-2.23-1.596-3.389L397.01,38.233z"/>
				<path id="XMLID_00000078740565329082665060000014902975568272443060_" style="opacity:0.15;fill:#FFFFFF;" d="M394.972,35.978
					c0.432,0.427,0.855,0.876,1.267,1.345l-17.174,17.174c-0.24-0.643-0.466-1.29-0.669-1.944L394.972,35.978z"/>
				<path id="XMLID_00000067229091238803670070000011469360704939138705_" style="opacity:0.15;fill:#FFFFFF;" d="M376.942,41.993
					L376.942,41.993c0.018-0.332,0.045-0.657,0.076-0.976c0.011-0.106,0.021-0.213,0.033-0.318c0.012-0.109,0.026-0.216,0.04-0.323
					c0.031-0.236,0.065-0.47,0.104-0.698c0.224-1.317,0.576-2.496,1.037-3.532c0.682-1.535,1.607-2.745,2.72-3.596
					c0.736-0.564,1.554-0.969,2.441-1.208c0.203-0.054,0.41-0.098,0.62-0.135c0.974-0.169,2.018-0.146,3.118,0.085
					c0.137,0.028,0.276,0.064,0.414,0.099L376.942,41.993z"/>
			</g>
			<path id="XMLID_00000140717304286316511920000009215522127657766278_" style="fill:#BA68C8;" d="M380.457,45.368
				c0,7.342,4.281,15.819,9.697,19.424c0.23,0.153,0.464,0.299,0.698,0.434c5.741,3.314,10.393-0.203,10.393-7.857
				c0-7.654-4.652-16.546-10.393-19.86c-0.234-0.135-0.468-0.259-0.698-0.371C384.737,34.488,380.457,38.025,380.457,45.368z"/>
			<path id="XMLID_00000160184814096049760140000001363994663257724559_" style="opacity:0.4;" d="M380.457,45.368
				c0,7.342,4.281,15.819,9.697,19.424c0.23,0.153,0.464,0.299,0.698,0.434c5.741,3.314,10.393-0.203,10.393-7.857
				c0-7.654-4.652-16.546-10.393-19.86c-0.234-0.135-0.468-0.259-0.698-0.371C384.737,34.488,380.457,38.025,380.457,45.368z"/>
			<path id="XMLID_00000036948036671067631640000015035667576104188331_" style="fill:#BA68C8;" d="M380.919,45.635
				c0,0.236,0.004,0.474,0.015,0.714c0.262,6.843,4.249,14.516,9.251,17.846c0.046,0.03,0.09,0.059,0.135,0.089
				c0.175,0.114,0.352,0.224,0.53,0.327c1.09,0.629,2.14,1.002,3.121,1.135c2.33,0.318,4.278-0.703,5.487-2.794
				c0.707-1.227,1.162-2.823,1.286-4.735c0.025-0.36,0.037-0.73,0.037-1.113c0-0.352-0.01-0.704-0.03-1.06
				c-0.041-0.746-0.127-1.501-0.253-2.257c-0.876-5.287-3.698-10.68-7.284-13.918c-0.513-0.464-1.042-0.883-1.583-1.251
				c-0.257-0.176-0.518-0.34-0.781-0.491c-0.224-0.129-0.448-0.247-0.666-0.355c-0.062-0.03-0.124-0.061-0.186-0.087
				c-1.488-0.691-2.88-0.891-4.107-0.655c-2.091,0.402-3.702,2.069-4.473,4.732C381.094,42.883,380.919,44.182,380.919,45.635z"/>
			<path id="XMLID_00000080890666331419487730000002308813852201029510_" style="opacity:0.5;" d="M380.919,45.635
				c0,0.236,0.004,0.474,0.015,0.714c0.262,6.843,4.249,14.516,9.251,17.846c0.046,0.03,0.09,0.059,0.135,0.089
				c0.175,0.114,0.352,0.224,0.53,0.327c1.09,0.629,2.14,1.002,3.121,1.135c2.33,0.318,4.278-0.703,5.487-2.794
				c0.707-1.227,1.162-2.823,1.286-4.735c0.025-0.36,0.037-0.73,0.037-1.113c0-0.352-0.01-0.704-0.03-1.06
				c-0.041-0.746-0.127-1.501-0.253-2.257c-0.876-5.287-3.698-10.68-7.284-13.918c-0.513-0.464-1.042-0.883-1.583-1.251
				c-0.257-0.176-0.518-0.34-0.781-0.491c-0.224-0.129-0.448-0.247-0.666-0.355c-0.062-0.03-0.124-0.061-0.186-0.087
				c-1.488-0.691-2.88-0.891-4.107-0.655c-2.091,0.402-3.702,2.069-4.473,4.732C381.094,42.883,380.919,44.182,380.919,45.635z"/>
			<path id="XMLID_00000034070006657071445770000002164751989838813328_" style="fill:#BA68C8;" d="M382.582,45.391
				c-0.011-0.24-0.015-0.479-0.015-0.714c0-1.453,0.176-2.752,0.5-3.874c0.45-1.553,1.187-2.765,2.138-3.587
				c0.223-0.077,0.452-0.141,0.687-0.186c1.227-0.237,2.619-0.037,4.107,0.655c0.062,0.027,0.124,0.057,0.186,0.087
				c0.218,0.108,0.442,0.226,0.666,0.355c0.262,0.152,0.523,0.315,0.781,0.491c0.541,0.368,1.07,0.788,1.583,1.251
				c3.586,3.238,6.408,8.631,7.284,13.918c0.126,0.756,0.211,1.511,0.253,2.257c0.021,0.356,0.03,0.708,0.03,1.06
				c0,0.383-0.012,0.754-0.037,1.113c-0.124,1.912-0.579,3.508-1.286,4.735c-0.37,0.64-0.809,1.178-1.307,1.609
				c-0.772,0.268-1.622,0.351-2.532,0.227c-0.981-0.133-2.031-0.506-3.121-1.135c-0.178-0.103-0.355-0.212-0.53-0.327
				c-0.046-0.03-0.09-0.059-0.135-0.089C386.832,59.906,382.845,52.234,382.582,45.391z"/>
			<path id="XMLID_00000083077140599642274960000016499311454935147924_" style="opacity:0.25;" d="M382.582,45.391
				c-0.011-0.24-0.015-0.479-0.015-0.714c0-1.453,0.176-2.752,0.5-3.874c0.45-1.553,1.187-2.765,2.138-3.587
				c0.223-0.077,0.452-0.141,0.687-0.186c1.227-0.237,2.619-0.037,4.107,0.655c0.062,0.027,0.124,0.057,0.186,0.087
				c0.218,0.108,0.442,0.226,0.666,0.355c0.262,0.152,0.523,0.315,0.781,0.491c0.541,0.368,1.07,0.788,1.583,1.251
				c3.586,3.238,6.408,8.631,7.284,13.918c0.126,0.756,0.211,1.511,0.253,2.257c0.021,0.356,0.03,0.708,0.03,1.06
				c0,0.383-0.012,0.754-0.037,1.113c-0.124,1.912-0.579,3.508-1.286,4.735c-0.37,0.64-0.809,1.178-1.307,1.609
				c-0.772,0.268-1.622,0.351-2.532,0.227c-0.981-0.133-2.031-0.506-3.121-1.135c-0.178-0.103-0.355-0.212-0.53-0.327
				c-0.046-0.03-0.09-0.059-0.135-0.089C386.832,59.906,382.845,52.234,382.582,45.391z"/>
		</g>
		<g id="XMLID_00000094612384113366586530000002191456871045266587_">
			<path id="XMLID_00000160182508293642273080000001604749462274544521_" style="fill:#F5F5F5;" d="M384.013,31.205
				c6.003-0.678,10.884,4.294,14.144,8.764c4.707,6.936,7.688,15.722,6.061,24.121l0.002-0.018
				c-0.531,2.335-1.599,4.679-3.543,6.165c1.986-1.456,3.138-3.797,3.698-6.149l-0.001,0.015c1.499-6.875-0.386-14.099-3.532-20.25
				C397.473,37.766,391.761,30.377,384.013,31.205z"/>
		</g>
		<g>
			<path style="fill:#BA68C8;" d="M398.279,57.201c-0.099-2.669-1.489-4.538-3.127-6.085l0.786,0.203l2.27-1.311
				c-0.102-0.51-0.244-0.995-0.408-1.452c-0.304-0.828-0.711-1.578-1.181-2.252c-0.835-1.196-1.874-2.154-2.909-2.891l-0.086-2.353
				l-2.81-1.624l-2.27,1.311l0.018,0.598l0.005,0.129c-0.182,0.058-0.368,0.14-0.555,0.253c-0.064,0.038-0.118,0.079-0.172,0.119
				c-0.265,0.194-1.574,0.877-2.098,1.191c-0.064,0.038-0.118,0.079-0.172,0.119c-0.599,0.44-0.924,1.286-0.872,2.598
				c-0.006,0.003-0.006,0.003-0.006,0.003c0.056,1.397,0.498,2.596,1.14,3.633c0.054,0.088,0.118,0.178,0.173,0.266l0.018,0.029
				c0.064,0.09,0.128,0.181,0.191,0.271c0.057,0.079,0.113,0.157,0.176,0.232c0.028,0.032,0.049,0.067,0.073,0.093
				c0.046,0.061,0.091,0.122,0.139,0.174c0.396,0.486,0.828,0.926,1.26,1.342c0.195,0.185,0.395,0.366,0.597,0.541l-1.035-0.259
				l-2.27,1.311c0.605,2.411,2.062,4.519,4.279,6.139l0.091,2.349l2.836,1.57l2.27-1.311l-0.029-0.735
				c0.164-0.045,0.319-0.106,0.456-0.192l0.017-0.01c0.343-0.223,1.862-1.056,2.253-1.3l0.018-0.01
				C397.996,59.469,398.332,58.592,398.279,57.201z"/>
			<path style="opacity:0.15;" d="M385.846,42.977c0.579-0.34,1.744-0.952,1.991-1.132c0.06-0.04,0.113-0.08,0.173-0.12
				c0.186-0.113,0.373-0.193,0.559-0.253l0.06,1.691C388.629,43.164,387.304,42.185,385.846,42.977z"/>
			<path style="opacity:0.45;" d="M392.304,56.684c0.027,0.706-0.379,1.058-1.558,0.413c-1.252-0.699-1.984-1.737-2.197-2.856
				l-3.395-0.852l2.27-1.305l1.032,0.253c0.02,0.02,0.04,0.033,0.06,0.053c0.313,0.28,0.626,0.546,0.925,0.799
				c0.126,0.1,0.246,0.2,0.359,0.3c0.859,0.706,1.491,1.245,1.89,1.744c0.26,0.313,0.433,0.606,0.526,0.925
				C392.27,56.324,392.297,56.504,392.304,56.684z"/>
			<path style="opacity:0.2;" d="M394.6,61.41l0.027,0.732l-2.27,1.305l-0.087-2.343C393.196,61.464,393.988,61.577,394.6,61.41z"/>
			<path style="opacity:0.15;" d="M391.352,42.372l-2.809-1.624l2.27-1.311l2.816,1.624l0.08,2.35
				c1.039,0.739,2.077,1.698,2.909,2.896c0.473,0.672,0.879,1.424,1.185,2.25c0.16,0.459,0.306,0.939,0.406,1.451l-2.27,1.311
				c-0.1-0.513-0.246-0.999-0.406-1.451c-0.306-0.832-0.712-1.578-1.185-2.25c-0.832-1.198-1.871-2.157-2.909-2.896L391.352,42.372z
				"/>
			<path style="opacity:0.2;" d="M393.708,43.41c0.974,0.55,1.841,1.298,2.554,2.171c0.704,0.877,1.267,1.887,1.54,2.975
				c-0.497-1.002-1.081-1.932-1.776-2.784c-0.343-0.429-0.717-0.831-1.102-1.226C394.536,44.154,394.124,43.785,393.708,43.41z"/>
			<path style="opacity:0.35;" d="M397.343,59.893l-0.013,0.007c-0.393,0.246-1.91,1.078-2.257,1.305
				c0.652-0.426,0.992-1.298,0.939-2.689c-0.12-3.095-1.964-5.112-3.921-6.803c-1.824-1.564-3.435-2.536-3.495-4.034
				c-0.033-0.939,0.579-1.019,1.504-0.506c1.484,0.819,2.11,2.303,2.257,3.222l2.796,0.719l0.007,0.007
				c1.638,1.551,3.022,3.422,3.122,6.084C398.335,58.595,397.995,59.466,397.343,59.893z"/>
			<polygon style="fill:#BA68C8;" points="390.82,52.93 388.549,54.24 385.153,53.392 387.423,52.081 			"/>
			<polygon style="opacity:0.15;" points="390.82,52.93 388.549,54.24 385.153,53.392 387.423,52.081 			"/>
			<g>
				<polygon style="fill:#BA68C8;" points="392.36,63.451 392.268,61.101 394.602,61.404 394.63,62.14 				"/>
				<polygon style="opacity:0.45;" points="392.36,63.451 392.268,61.101 394.602,61.404 394.63,62.14 				"/>
			</g>
			<g>
				<path id="XMLID_00000034078929247653292430000014006681199579093387_" style="fill:#BA68C8;" d="M388.562,41.345l0.064,1.819
					c0,0-1.388-1.024-2.885-0.126c-0.064,0.038-0.118,0.079-0.172,0.119c-0.6,0.44-0.924,1.286-0.873,2.598
					c-0.006,0.003-0.006,0.003-0.006,0.003c0.056,1.397,0.498,2.596,1.14,3.633c0.054,0.088,0.118,0.178,0.173,0.266l0.018,0.029
					c0.064,0.09,0.128,0.181,0.191,0.271c0.057,0.079,0.113,0.157,0.176,0.232c0.028,0.032,0.049,0.067,0.073,0.093
					c0.046,0.061,0.091,0.122,0.139,0.174c0.396,0.486,0.828,0.926,1.26,1.342c0.212,0.202,0.431,0.401,0.651,0.59
					c0.315,0.278,0.632,0.546,0.932,0.8c0.126,0.101,0.243,0.2,0.359,0.299c0.858,0.707,1.486,1.247,1.889,1.744
					c0.257,0.312,0.433,0.609,0.525,0.923c0.05,0.171,0.08,0.346,0.088,0.526c0.026,0.708-0.38,1.064-1.56,0.413
					c-1.255-0.694-1.987-1.734-2.197-2.854l-3.396-0.848c0.605,2.411,2.062,4.519,4.279,6.139l0.091,2.349l2.836,1.57l-0.091-2.349
					c1.184,0.464,2.143,0.515,2.789,0.111l0.017-0.01c0.65-0.423,0.987-1.3,0.934-2.691c-0.115-3.091-1.961-5.111-3.918-6.798
					c-1.826-1.565-3.435-2.537-3.493-4.038c-0.033-0.937,0.577-1.014,1.505-0.501c1.481,0.816,2.106,2.298,2.257,3.221l3.578,0.924
					c-0.102-0.51-0.244-0.995-0.408-1.452c-0.305-0.828-0.711-1.578-1.181-2.252c-0.836-1.196-1.874-2.154-2.909-2.891l-0.085-2.353
					l-2.81-1.624L388.562,41.345z"/>
				<path id="XMLID_867_" style="opacity:0.1;fill:#FFFFFF;" d="M388.562,41.345l0.064,1.819c0,0-1.388-1.024-2.885-0.126
					c-0.064,0.038-0.118,0.079-0.172,0.119c-0.6,0.44-0.924,1.286-0.873,2.598c-0.006,0.003-0.006,0.003-0.006,0.003
					c0.056,1.397,0.498,2.596,1.14,3.633c0.054,0.088,0.118,0.178,0.173,0.266l0.018,0.029c0.064,0.09,0.128,0.181,0.191,0.271
					c0.057,0.079,0.113,0.157,0.176,0.232c0.028,0.032,0.049,0.067,0.073,0.093c0.046,0.061,0.091,0.122,0.139,0.174
					c0.396,0.486,0.828,0.926,1.26,1.342c0.212,0.202,0.431,0.401,0.651,0.59c0.315,0.278,0.632,0.546,0.932,0.8
					c0.126,0.101,0.243,0.2,0.359,0.299c0.858,0.707,1.486,1.247,1.889,1.744c0.257,0.312,0.433,0.609,0.525,0.923
					c0.05,0.171,0.08,0.346,0.088,0.526c0.026,0.708-0.38,1.064-1.56,0.413c-1.255-0.694-1.987-1.734-2.197-2.854l-3.396-0.848
					c0.605,2.411,2.062,4.519,4.279,6.139l0.091,2.349l2.836,1.57l-0.091-2.349c1.184,0.464,2.143,0.515,2.789,0.111l0.017-0.01
					c0.65-0.423,0.987-1.3,0.934-2.691c-0.115-3.091-1.961-5.111-3.918-6.798c-1.826-1.565-3.435-2.537-3.493-4.038
					c-0.033-0.937,0.577-1.014,1.505-0.501c1.481,0.816,2.106,2.298,2.257,3.221l3.578,0.924c-0.102-0.51-0.244-0.995-0.408-1.452
					c-0.305-0.828-0.711-1.578-1.181-2.252c-0.836-1.196-1.874-2.154-2.909-2.891l-0.085-2.353l-2.81-1.624L388.562,41.345z"/>
			</g>
			<path id="XMLID_325_" style="fill:#FFFFFF;" d="M396.009,58.511c-0.077-1.13-0.386-2.238-0.931-3.222
				c-0.533-0.991-1.27-1.858-2.081-2.637c-0.801-0.795-1.695-1.488-2.56-2.222c-0.429-0.371-0.854-0.754-1.215-1.197
				c-0.353-0.446-0.617-0.986-0.625-1.559c0.037,0.572,0.321,1.086,0.688,1.507c0.368,0.425,0.797,0.793,1.234,1.15
				c0.878,0.71,1.776,1.408,2.594,2.201c0.808,0.796,1.56,1.676,2.078,2.697c0.258,0.508,0.469,1.042,0.607,1.595
				C395.928,57.379,395.994,57.945,396.009,58.511z"/>
			<g>
				<polygon style="fill:#BA68C8;" points="391.355,42.371 393.625,41.06 393.711,43.412 391.44,44.723 				"/>
				<polygon style="opacity:0.35;" points="391.355,42.371 393.625,41.06 393.711,43.412 391.44,44.723 				"/>
			</g>
			<g>
				<polygon style="fill:#FAFAFA;" points="388.544,40.747 391.096,42.508 391.44,44.723 391.355,42.371 				"/>
				<polygon style="fill:#FAFAFA;" points="389.432,59.531 389.753,61.733 392.36,63.451 389.523,61.88 				"/>
			</g>
			<g>
				<path style="opacity:0.15;fill:#FFFFFF;" d="M385.153,53.392c0.109,0.434,0.255,0.854,0.418,1.266l0.93-0.93L385.153,53.392z"/>
				<path style="opacity:0.15;fill:#FFFFFF;" d="M396.001,58.407c-0.068-1.36-0.473-2.511-1.074-3.518l-5.463,5.463l0.059,1.529
					l1.934,1.07l0.85-0.85l-0.039-0.999c0.275,0.108,0.536,0.191,0.785,0.253L396.001,58.407z"/>
				<path style="opacity:0.15;fill:#FFFFFF;" d="M384.726,46.224c0.078,0.749,0.269,1.437,0.539,2.073l5.986-5.986l-1.656-0.957
					l-0.998,0.998l0.029,0.812c0,0-0.21-0.153-0.551-0.289L384.726,46.224z"/>
				<path style="opacity:0.15;fill:#FFFFFF;" d="M386.022,49.687c0.064,0.09,0.128,0.181,0.191,0.271
					c0.057,0.079,0.113,0.157,0.176,0.232c0.028,0.032,0.049,0.067,0.073,0.093c0.046,0.061,0.091,0.122,0.139,0.174
					c0.396,0.486,0.828,0.926,1.26,1.342c0.098,0.093,0.199,0.18,0.298,0.271l1.979-1.979c-0.89-0.778-1.506-1.498-1.541-2.416
					c-0.033-0.937,0.577-1.014,1.505-0.501c0.679,0.374,1.171,0.89,1.527,1.426l1.951-1.951c-0.667-0.757-1.403-1.4-2.141-1.925
					l-0.032-0.887l-5.569,5.569c0.053,0.084,0.113,0.17,0.164,0.253L386.022,49.687z"/>
			</g>
		</g>
	</g>
</g>
<g id="Shadow">
	<ellipse id="Shadow_3_" style="opacity:0.6;fill:#BA68C8;" cx="110.589" cy="418.349" rx="52.855" ry="30.516"/>
</g>
<g id="Character">
	<g id="Character_11_">
		<g id="Arm_00000157276269337586582110000003384105086359886991_">
			<path id="Arm_00000163783112332846079810000000689466613859002267_" style="fill:#C8856A;" d="M73.07,270.96
				c0-0.001,7.891-20.068,7.891-20.068l-1.22-24.686c-5.009,0.414-8.521,2.233-11.166,8.429c-2.645,6.197-7.942,26.156-8.955,30.803
				c-0.991,5.226-1.146,7.255-0.912,12.307c0.243,5.263,2.553,14.778,3.424,19.957c0.403,2.396,0.617,4.711,0.854,7.15
				c0.247,2.543,1.146,4.922,1.739,7.409c0.274,1.148,0.974,2.258,1.802,3.096c0.545,0.551,1.329,0.669,1.847,1.188
				c0.536,0.537,0.586,1.344,1.325,1.793c0.822,0.499,1.829,0.311,2.542,0.814c0.746,0.526,1.352,1.252,2.192,1.703
				c0.756,0.406,1.326,0.59,1.868,1.295c0.445,0.578,0.82,1.818,1.711,1.803c0.999-0.017,1.237-0.962,1.356-1.786
				c0.21-1.453-0.431-3.364-1.208-4.588c-0.9-1.419-1.458-3.029-2.521-4.34c-0.963-1.187-1.441-2.863-1.768-4.361
				c-0.228-1.048-0.025-2.35,1.247-1.644c1.498,0.832,3.023,2.452,4.915,2.284c1.309-0.116,1.464-1.127,0.781-2.038
				c-1.144-1.527-2.107-3.05-3.024-4.74c-0.912-1.681-1.635-3.445-2.592-5.096c-0.497-0.858-1.109-1.686-1.722-2.478
				c-1.713-2.214-1.409-5.018-1.409-7.646C72.068,283.85,72.741,275.645,73.07,270.96z"/>
			<path style="fill:#37474F;" d="M79.889,224.824c-7.285,0.633-10.908,5.262-13.378,12.564c-2.532,7.483-6.243,20.906-6.993,24.467
				c-0.749,3.561-1.738,7.729-1.531,13.135c0.201,5.254,1.873,14,1.873,14s1.908,1.15,5.97,1.088
				c5.674-0.086,6.798-1.809,6.798-1.809l0.967-17.223l7.968-19.896L79.889,224.824z"/>
		</g>
		<g id="Bottom_10_">
			<g>
				<path style="fill:#263238;" d="M74.167,413.692c0,1.288-0.239,1.787,1.34,2.95c1.579,1.164,5.003,1.699,7.605,0.998
					c2.28-0.615,3.107-1.268,4.204-2.537c1.247-1.442,1.985-3.099,2.442-3.681c0.457-0.582,2.574-1.693,4.617-2.601
					c2.15-0.956,6.273-2.859,7.749-6.35c1.477-3.491,0.458-5.988,0.458-5.988L74.167,413.692z"/>
				<path style="fill:#455A64;" d="M87.913,395.977c-4.166,2.722-7.669,9.552-13.367,7.477c-0.285,3.344-1.174,6.95-0.38,10.238
					c2.43,2.998,7.748,3.575,10.808,1.416c1.541-1.312,2.405-2.853,3.896-4.24c1.18-1.097,2.553-1.784,4.096-2.497
					c1.412-0.653,3.807-1.955,4.956-2.744C107.129,398.838,102.56,386.407,87.913,395.977z"/>
			</g>
			<g id="XMLID_1154_">
				<path style="fill:#263238;" d="M102.598,429.347c0,1.395,0.092,2.446,0.946,3.037c0.854,0.591,7.24,1.642,8.939,1.839
					c1.699,0.197,1.944-0.919,3.135-0.525c1.191,0.394,3.967,2.43,8.127,3.349c4.161,0.919,7.575,1.904,13.354,0
					c5.779-1.904,6.349-4.142,6.273-6.096C143.296,428.997,102.598,429.347,102.598,429.347z"/>
				<path id="XMLID_1155_" style="fill:#455A64;" d="M103.433,416.305c-0.931,4.003-1.92,9.996-0.835,13.043
					c1.162,1.155,5.067,1.833,8.471,2.291c3.197,0.43,6.104,1.27,9.007,2.805c6.606,2.757,18.223,3.76,22.852-2.458
					c4.621-8.302-19.429-6.261-22.379-15.867C119.475,412.621,107.801,417.249,103.433,416.305z"/>
			</g>
			<g id="XMLID_1153_">
				<path id="XMLID_4746_" style="fill:#37474F;" d="M72.322,369.084c3.215-34.134,1.556-61.408,4.623-88.888
					c0,0,47.936-1.193,49.114,15.087c0,0,0.729,58.042,0.352,65.214c-0.17,7.267-4.523,52.581-4.523,57.703
					c-11.909,5.91-19.29,1.445-19.29,1.445c0.075-6.611-5.096-32.305-2.293-48.427c0,0.001-1.904-27.367-1.904-27.367
					s-8.172,49.014-9.551,62.234c-3.518,5.213-13.496,3.997-15.16,0.849C73.691,406.934,71.194,379.132,72.322,369.084z"/>
				<path style="fill:#263238;" d="M98.402,343.851l-2.113-26.356c0,0-9.026-1.663-14.252-8.195
					c1.425,5.226,7.096,9.763,10.689,11.038l3.589,22.372l-1.488,20.683L98.402,343.851z"/>
				<path style="fill:#263238;" d="M92.028,338.68c-0.564,9.038-1.149,14.317-1.939,18.729c-1.233,6.886-4.711,43.107-5.527,51.684
					c0.273-0.086,0.541-0.182,0.803-0.29c0.874-9.187,4.272-44.494,5.483-51.257c0.798-4.456,1.384-9.758,1.95-18.817
					c0.427-6.82,0.829-13.262,1.276-16.611l-0.766-0.102C92.859,325.391,92.456,331.845,92.028,338.68z"/>
				<path style="fill:#263238;" d="M115.838,420.487c1.032-15.458,3.501-50.551,3.301-66.186
					c-0.238-18.669-0.865-47.724-2.378-59.786l-0.766,0.096c1.509,12.024,2.134,41.046,2.372,59.7
					c0.201,15.693-2.295,51.085-3.316,66.364C115.311,420.617,115.572,420.556,115.838,420.487z"/>
				<path style="fill:#263238;" d="M117.506,313.712c4.219-4.254,3.635-13.156,3.259-18.705c-0.031-0.464-0.061-0.905-0.086-1.318
					l0.77-0.047c0.025,0.411,0.055,0.85,0.086,1.313c0.399,5.917,1.048,15.556-4.03,19.833V313.712z"/>
			</g>
		</g>
		<g id="Top_00000059997737033882736000000018265246009801386388_">
			<g>
				<polygon id="XMLID_00000150798115299482915310000010204022316110481585_" style="fill:#C8856A;" points="107.737,220.1 
					105.812,231.684 88.777,231.832 91.485,219.35 				"/>
				<g id="XMLID_00000052075243818214400220000008242856586195320962_">
					<g id="XMLID_00000177455493656317596470000016114858063709690301_">
						<path id="XMLID_00000000937036789064696760000003301608498398135981_" style="fill:#AF6152;" d="M112.886,199.496
							c1.26,1.518,5.179,6.098,5.348,6.991l-3.049,1.979L112.886,199.496z"/>
					</g>
					<g id="XMLID_00000026878844273720109820000014164343141339897474_">
						<path id="XMLID_5819_" style="fill:#C8856A;" d="M103.754,187.979c4.89-0.656,8.161,2.737,9.861,13.135
							c0.066,0.407,0.689,1.033,1.188,2.583c2.141,6.647,1.209,13.053,0.121,14.779c-2.781,2.359-5.917,3.294-10.503,3.025
							c-3.496-0.205-12.416-1.031-17.051-5.62c-5.45-5.4-8.348-13.678-4.694-18.108C87.819,191.539,101.06,188.341,103.754,187.979z
							"/>
					</g>
					<path style="fill:#AF6152;" d="M114.924,218.477c-0.603,0.955-4.079,3.061-7.446,3.15l0.258-1.841
						C107.737,219.785,111.094,219.789,114.924,218.477z"/>
				</g>
				<g id="XMLID_456_">
					<g id="XMLID_816_">
						<g id="XMLID_817_">
							<path id="XMLID_00000054257232651370214080000008868685104518747071_" style="fill:#263238;" d="M105.074,206.59
								c-0.276,0.802-1.1,0.878-1.593,0.307c-0.591-0.686-1.06-1.43-1.8-1.979c-0.856-0.635-1.926-1.031-2.987-0.923
								c-4.012,0.411-2.892,5.681-0.87,7.472c3.309,2.931,4.957,0.281,4.957,0.281s2.452,5.062-0.848,8.144
								c0,0-6.04,1.733-10.659,0.431c-3.526-3.604-5.608-4.932-7.996-8.049c-5.658-7.385-6.62-16.809-3.174-19.031
								c-0.267-2.667,1.074-6.72,6.499-9.183c5.17-2.347,8.674-2.22,12.459-2.109c3.785,0.111,8.476,1.713,11.907-1.311
								c0.935,2.08,0.776,4.615-0.41,6.562c1.103-0.531,2.585-0.032,3.143,1.058c0.558,1.089,0.095,2.584-0.98,3.168
								c0.783,0.363,1.169,1.365,0.914,2.19c-0.255,0.825-1.068,1.417-1.927,1.503c-0.909,0.091-1.48,0.018-2.379-0.089
								c-1.021,3.117-4.477,4.288-6.55,4.211C105.207,202.009,105.575,205.135,105.074,206.59z"/>
						</g>
					</g>
				</g>
			</g>
			<path style="fill:#F0F0F0;" d="M110.615,232.089c-3.55-3.196-2.478-3.369-4.782-5.263c-2.866-2.356-15.407-5.287-16.414-4.265
				c-1.914,1.944-3.701,2.744-3.701,2.744s0.596,1.925,8.166,3.757C101.105,230.809,103.958,230.566,110.615,232.089z"/>
			<g>
				<path style="fill:#455A64;" d="M87.995,223.84c4.166,0.698,11.683,2.723,15.638,3.802c3.955,1.079,9.37,4.663,9.37,4.663
					s7.596,3.304,8.533,4.345c0.937,1.041,2.844,5.829,3.608,16.237s1.377,49.892,1.377,49.892s-2.915,0.87-5.025,1.226
					l-1.449-11.845l-1.602,12.421c0,0-14.292,0.971-26.262-1.527c-11.97-2.498-17.278-10.2-17.278-10.2s1.783-21.022,1.308-25.29
					c-0.475-4.267-4.222-22.274-3.806-29.352c0.416-7.078,3.112-12.738,7.482-13.386C85.211,224.035,87.995,223.84,87.995,223.84z"
					/>
				<path style="fill:#37474F;" d="M85.966,226c1.081,0.424,2.192,0.753,3.307,1.073c1.11,0.333,2.225,0.65,3.344,0.951
					c2.237,0.606,4.473,1.216,6.72,1.77c2.241,0.58,4.504,0.997,6.792,1.389l6.871,1.122c-2.323-0.111-4.637-0.335-6.946-0.621
					c-2.306-0.274-4.617-0.682-6.876-1.251c-2.256-0.574-4.496-1.202-6.706-1.926C90.271,227.772,88.041,227.066,85.966,226z"/>
				<path style="fill:#37474F;" d="M90.282,240.435c0.959,4.684,1.713,9.413,2.213,14.175c0.494,4.76,0.703,9.567,0.459,14.359
					l-0.806,14.315l-0.457,7.155l-0.526,7.151l0.204-7.168l0.273-7.164l0.655-14.323c0.297-4.755,0.08-9.525-0.304-14.279
					c-0.191-2.378-0.449-4.751-0.747-7.12C90.968,245.165,90.622,242.801,90.282,240.435z"/>
				<path style="fill:#37474F;" d="M120.613,287.912c4.111-0.658,5.501-1.973,5.501-1.973v3.042c0,0-3.034,1.587-5.501,1.698
					V287.912z"/>
			</g>
			<g id="Arm_00000142142102327143781080000005871393397933151672_">
				<g>
					<g id="Briefcase_00000067936283724146660730000009172498755035809177_">
						<g id="XMLID_00000021829563189307105120000009503011156529268116_">
							<g id="XMLID_00000009561033392484218030000000123934445891305626_">
								<path id="XMLID_00000129896397594714986190000004812064154139877301_" style="fill:#37474F;" d="M106.752,332.93
									l-0.124,36.872c-0.006,1.788,1.255,2.825,2.797,3.74l3.871,2.255c1.069,0.623,1.665,0.834,3.027,0.605
									c0.596-0.095,1.597-0.577,2.073-0.841c0.032-0.008,0.056-0.024,0.081-0.04l0.21-0.12l39.71-22.749
									c2.902-1.662,4.696-4.746,4.707-8.09l0.114-33.575c0.003-0.765-0.534-1.701-1.201-2.089l-6.605-3.838
									c-0.659-0.389-1.738-0.392-2.399-0.008l-45.046,25.806c-0.339,0.184-0.638,0.521-0.856,0.891
									C106.892,332.125,106.753,332.552,106.752,332.93z"/>
								<path id="XMLID_00000086681040575718325570000017423397496528668837_" style="fill:#263238;" d="M106.752,332.93
									l-0.124,36.872c-0.006,1.788,1.255,2.825,2.797,3.74l3.871,2.255c1.069,0.623,1.665,0.834,3.027,0.605
									c0.596-0.095,1.597-0.577,2.073-0.841v-0.016c-1.548,0.719-2.762-0.09-2.755-1.917l0.117-34.741
									c0.002-0.58,0.205-1.223,0.538-1.794l-9.185-5.345C106.892,332.125,106.753,332.552,106.752,332.93z"/>
							</g>
							<path id="XMLID_00000158008734550061546030000011783869319316753060_" style="fill:#455A64;" d="M115.756,338.886
								c0.004-1.155,0.827-2.571,1.83-3.145l42.575-24.39c1.683-0.964,3.054-0.166,3.048,1.773l-0.103,31.434
								c-0.011,3.344-1.805,6.429-4.707,8.091l-39.712,22.752c-1.683,0.964-3.054,0.166-3.048-1.773L115.756,338.886z"/>
							<g>
								<path style="fill:#BA68C8;" d="M157.553,306.303l-45.126,26.109c-1.292,0.748-2.098,2.139-2.103,3.631l-0.128,37.948
									l0.685,0.399l0.129-38.345c0.004-1.249,0.679-2.413,1.76-3.04l45.465-26.306L157.553,306.303z"/>
							</g>
						</g>
						<g id="XMLID_00000087373394633125621420000014144381561071562146_">
							<path id="XMLID_00000075850685259402182800000008172452207793826983_" style="fill:#BA68C8;" d="M141.54,310.962l-0.019,5.71
								l2.229,1.297l0.025-7.582c0.001-0.392-0.27-0.549-0.61-0.355L141.54,310.962z"/>
							<path id="XMLID_00000120552969123171139220000010396925941322317213_" style="opacity:0.3;" d="M141.54,310.962l-0.019,5.71
								l2.229,1.297l0.025-7.582c0.001-0.392-0.27-0.549-0.61-0.355L141.54,310.962z"/>
							<path id="XMLID_00000170982818466864836090000001112302597540579467_" style="fill:#BA68C8;" d="M125.828,316.551
								l-0.031,9.244l2.127,1.241l1.438-0.826l0.025-7.582c0.001-0.389,0.279-0.865,0.615-1.059l10.898-6.241l2.263-1.297
								c0.34-0.193,0.612-0.037,0.61,0.355l-0.025,7.582l1.442-0.826l0.031-9.24c0-0.039-0.003-0.081-0.01-0.121
								c-0.045-0.364-0.298-0.768-0.602-0.942l-0.907-0.53c-0.335-0.196-0.883-0.198-1.223-0.004l-16.037,9.186
								C126.103,315.689,125.829,316.162,125.828,316.551z"/>
							<path id="XMLID_00000087388173674415116070000016810469843428717701_" style="opacity:0.2;" d="M127.955,317.792
								l-0.031,9.244l1.438-0.826l0.025-7.582c0.001-0.389,0.279-0.865,0.615-1.059l10.898-6.241l2.263-1.297
								c0.34-0.193,0.612-0.037,0.61,0.355l-0.025,7.582l1.442-0.826l0.031-9.24c0-0.039-0.003-0.081-0.01-0.121
								c-0.052-0.3-0.303-0.408-0.604-0.235l-16.037,9.186C128.234,316.93,127.957,317.403,127.955,317.792z"/>
						</g>
					</g>
				</g>
				<path style="fill:#C8856A;" d="M142.416,309.021c-1.221-4.374-1.447-5.68-1.992-8.792c-0.544-3.112-0.389-6.258-0.68-12.09
					l-13.333,3.412c0,0,1.322,4.278,2.1,8.557c0.567,3.117-0.55,5.932-0.53,9.018c0.009,1.38,0.307,2.793,1.081,3.936
					c0.416,0.614,0.957,1.134,1.369,1.75c0.81,1.21,0.778,2.067-0.429,2.756c-0.759,0.433-0.616,1.442-0.616,1.442
					c0.358,0.437,0.907,0.767,1.442,0.926c0.237,0.07,0.483,0.108,0.73,0.111c0.252,0.003,0.541-0.124,0.778-0.106
					c0.248,0.019,0.484,0.196,0.761,0.213c0.28,0.018,0.564-0.033,0.837-0.086c0.52-0.101,1.071-0.224,1.448-0.596
					c0.377-0.372,0.531-0.951,0.972-1.243c0.605-0.401,1.41-0.076,2.135-0.122c0.717-0.046,1.393-0.503,1.703-1.152
					c0.161-0.337,0.242-0.738,0.535-0.97c0.302-0.24,0.731-0.22,1.088-0.363c0.423-0.17,0.725-0.564,0.887-0.99
					C143.389,312.836,142.914,310.806,142.416,309.021z"/>
				<path style="fill:#37474F;" d="M125.22,237.937c3.516,1.775,4.401,2.5,6.329,6.427c1.928,3.926,4.486,14.689,5.227,21.165
					c0.741,6.475,2.649,12.696,3.117,19.285s0.413,11.901,0.413,11.901s-1.962,1.214-6.094,1.73c-4.131,0.516-6.394,0-6.394,0
					s-4.927-18.18-6.207-23.154c-1.279-4.973-5.888-18.47-5.888-18.47c-1.549-8.779,0.595-18.661,3.006-21.851
					C118.73,234.971,121.704,236.162,125.22,237.937z"/>
			</g>
		</g>
	</g>
</g>
<g id="Speech_Bubble">
	<g id="Speech_Bubble_00000018923358084045024090000003369390092894359700_">
		<g id="Speech_Bubble_00000039813836308896942000000012126244285861752475_">
			<path style="fill:#FFFFFF;" d="M119.097,138.4c0.013,5.839-2.256,11.155-5.951,15.132l-1.831,1.746
				c-3.857,3.293-8.851,5.297-14.306,5.31c-12.208,0.026-22.162-9.88-22.188-22.088c-0.013-5.455,1.969-10.462,5.242-14.329
				l1.745-1.837c3.954-3.719,9.262-6.009,15.101-6.022C109.117,116.285,119.071,126.191,119.097,138.4z"/>
			<path style="fill:#455A64;" d="M96.904,114.435c-13.242,0.029-23.996,10.83-23.959,24.07c0.026,11.881,8.723,21.746,20.07,23.627
				l2.711,6.951c0.463,1.187,2.144,1.183,2.602-0.006l2.681-6.964c11.34-1.935,19.991-11.839,19.963-23.714
				C120.942,125.157,110.146,114.406,96.904,114.435z M119.097,138.4c0.013,5.839-2.256,11.155-5.951,15.132l-1.831,1.746
				c-3.856,3.293-8.851,5.297-14.306,5.31c-12.208,0.026-22.162-9.88-22.188-22.088c-0.013-5.455,1.969-10.463,5.242-14.329
				l1.745-1.837c3.954-3.719,9.262-6.009,15.101-6.022C109.117,116.285,119.071,126.191,119.097,138.4z"/>
			<path style="opacity:0.7;fill:#FFFFFF;" d="M119.097,138.4c0.013,5.839-2.256,11.155-5.951,15.132l-1.831,1.746
				c-3.856,3.293-8.851,5.297-14.306,5.31c-12.208,0.026-22.162-9.88-22.188-22.088c-0.013-5.455,1.969-10.463,5.242-14.329
				l1.745-1.837c3.954-3.719,9.262-6.009,15.101-6.022C109.117,116.285,119.071,126.191,119.097,138.4z"/>
		</g>
		<path id="Star" style="fill:#BA68C8;" d="M97.463,126.415l3.045,7.562l8.133,0.56c0.489,0.034,0.687,0.645,0.312,0.96
			l-6.251,5.233l1.981,7.908c0.119,0.475-0.401,0.853-0.816,0.593l-6.908-4.328l-6.908,4.328c-0.415,0.26-0.935-0.118-0.816-0.593
			l1.981-7.908l-6.251-5.233c-0.376-0.314-0.177-0.926,0.312-0.96l8.133-0.559l3.045-7.562
			C96.637,125.961,97.28,125.961,97.463,126.415z"/>
	</g>
</g>
</svg>
