<?xml version="1.0" encoding="utf-8"?>
<!-- Generator: Adobe Illustrator 27.8.0, SVG Export Plug-In . SVG Version: 6.00 Build 0)  -->
<svg version="1.1" id="Layer_1" xmlns="http://www.w3.org/2000/svg" xmlns:xlink="http://www.w3.org/1999/xlink" x="0px" y="0px"
	 viewBox="0 0 2381.6 491.3" style="enable-background:new 0 0 2381.6 491.3;" xml:space="preserve">
<style type="text/css">
	.st0{fill:url(#SVGID_1_);}
	.st1{fill:url(#SVGID_00000061448210667412907510000016040298585639514243_);}
	.st2{fill:url(#SVGID_00000018941518988983360620000007674862127464872116_);}
	.st3{fill:url(#SVGID_00000037688757596241597070000012281041885367691662_);}
	.st4{fill:url(#SVGID_00000167374235887794268630000017789376526332822421_);}
	.st5{fill:#244199;}
	.st6{fill:#FFFFFF;}
	.st7{fill:#672BB2;}
	.st8{font-family:'Kanit-Regular';}
	.st9{font-size:45.734px;}
	.st10{fill:#F56C73;}
	.st11{clip-path:url(#SVGID_00000070833179495158485150000011880963451691369103_);}
	
		.st12{clip-path:url(#SVGID_00000049224029012085861260000015138750317334803593_);fill:url(#SVGID_00000044172313674629720490000014684989407579626370_);}
	
		.st13{clip-path:url(#SVGID_00000013150838337597794000000007722387265832427176_);fill:url(#SVGID_00000124860117275051362410000006022282813146394542_);}
	.st14{fill:url(#SVGID_00000081615894219208573880000011169865971178428584_);}
	.st15{fill:url(#SVGID_00000160187611302951717220000011910363730549722790_);}
	.st16{fill:url(#SVGID_00000152968871859684926610000009582310015199277199_);}
</style>
<g>
	<g>
		<g>
			<path class="st7" d="M491.6,59.4V30.7h12.2c3.1,0,5.3,0.3,6.7,0.8c1.4,0.5,2.5,1.4,3.3,2.7c0.8,1.3,1.3,2.8,1.3,4.5
				c0,2.2-0.6,3.9-1.9,5.3c-1.3,1.4-3.2,2.3-5.7,2.7c1.3,0.7,2.3,1.5,3.1,2.4s1.9,2.4,3.3,4.7l3.5,5.6h-6.9l-4.2-6.2
				c-1.5-2.2-2.5-3.6-3.1-4.2c-0.5-0.6-1.1-1-1.7-1.2c-0.6-0.2-1.6-0.3-2.9-0.3h-1.2v12H491.6z M497.4,42.8h4.3
				c2.8,0,4.5-0.1,5.2-0.4c0.7-0.2,1.2-0.6,1.6-1.2c0.4-0.6,0.6-1.3,0.6-2.2c0-1-0.3-1.7-0.8-2.3s-1.2-1-2.2-1.1
				c-0.5-0.1-1.9-0.1-4.2-0.1h-4.5V42.8z"/>
		</g>
		<g>
			<path class="st7" d="M503.5,72.2c-14.6,0-26.6-11.9-26.6-26.6c0-14.6,11.9-26.6,26.6-26.6S530,31,530,45.6
				C530,60.3,518.1,72.2,503.5,72.2z M503.5,22.4c-12.8,0-23.2,10.4-23.2,23.2s10.4,23.2,23.2,23.2c12.8,0,23.2-10.4,23.2-23.2
				S516.3,22.4,503.5,22.4z"/>
		</g>
	</g>
	<g id="XMLID_00000000911538790846710400000002283568805062945209_">
		<g id="XMLID_00000052079305869608413390000006562930779470614435_">
			<path class="st7" d="M504.9,231.9c0-35.5-12.7-66.1-38.1-91.3c-10.3-10.3-21.4-18.3-33.4-24.5V57.4h-82.1v47.4
				c-13.7,2.6-27.8,7.8-40.8,15.3c-18.8,11-33.8,25.3-45,43.4c-11.2-18.2-26.1-32.6-44.8-43.4c-15.1-8.8-30.9-14.2-47.4-16.4V57.4
				H91.2v62.3c-9.4,5.6-18.5,12.6-26.8,20.9c-25.2,25.2-38.1,56-38.1,91.3c0,35.5,12.7,66.1,38.1,91.3c8.4,8.4,17.2,15.3,26.8,20.8
				v61.1h82.1v-43.8H250V228.5h-78v54.8h-7.8h-8.4c-14.2,0-26.3-4.8-36.5-15.1C109,257.9,104,246,104,231.8
				c0-14.2,5.1-26.6,15.3-36.4c10.3-9.9,22.3-14.9,36.5-14.9c19,0,35.9,9.9,44.9,26l64.9-37.4l64.9,37.4c9.2-16,26-26,44.9-26
				c14.2,0,26.3,5.1,36.5,14.9c10.3,9.9,15.3,22.3,15.3,36.5c0,14.2-5.1,26-15.3,36.3s-22.3,15.1-36.5,15.1h-8.4h-8.8v-54.8h-76.7
				v132.8h69.8v45.2h82.1v-58.7c12-6.2,23.1-14.2,33.4-24.5C492.2,298,504.9,267.4,504.9,231.9z"/>
		</g>
	</g>
</g>
<text transform="matrix(1 0 0 1 84.3674 458.815)" class="st7 st8 st9">GLOBAL GARNER</text>
<g>
	<g>
		<g>
			<path class="st10" d="M1118.3,403.8c-7.5,5.5-18.6,8.3-33.2,8.3c-14.4,0-26-1.8-34.9-5.4v-13.1c10.6,4,21.8,5.9,33.7,5.9
				c10.7,0,18.5-1.4,23.5-4.3c5-2.9,7.5-7.9,7.5-15.1c0-4.4-1.1-8-3.2-10.7c-2.1-2.7-5.4-5-9.9-6.8c-4.5-1.9-11.1-3.8-19.7-5.8
				c-12.7-3.1-21.7-7.1-26.8-12.1c-5.2-4.9-7.7-11.6-7.7-20.2c0-10.1,3.6-17.9,10.9-23.5c7.3-5.6,18-8.4,32.1-8.4
				c6.2,0,12.3,0.4,18.1,1.3c5.8,0.9,10.5,2,13.9,3.1v13c-9.1-3.2-19-4.9-29.7-4.9c-10.2,0-17.8,1.5-22.9,4.5
				c-5.1,3-7.6,7.9-7.6,14.8c0,4,0.9,7.1,2.7,9.5c1.8,2.4,4.8,4.5,9.1,6.2c4.3,1.7,10.6,3.6,19,5.7c13.6,3.2,23,7.6,28.4,13
				c5.4,5.5,8.1,12.5,8.1,21.1C1129.6,390.4,1125.8,398.3,1118.3,403.8z"/>
			<path class="st10" d="M1169.2,294.4h78.3v11.7h-63.5v40.5h57.1v11.5h-57.1v40.7h63.5v11.5h-78.3V294.4z"/>
			<path class="st10" d="M1367.5,351.7c-4.2,5.6-10.3,9.3-18.4,11.2c2.3,1.3,4,2.9,5.2,4.6c1.2,1.7,2.6,4.4,4.1,7.8l15.1,34.9h-15.1
				l-14.8-33.7c-1.7-3.8-3.7-6.5-6-7.9s-6.2-2.2-11.4-2.2h-24.5v43.7H1287V294.4h50.9c12.1,0,21.1,3.1,27,9.4
				c5.9,6.3,8.8,15.1,8.8,26.5C1373.8,339.1,1371.7,346.2,1367.5,351.7z M1359,330.4c0-16.2-7.7-24.3-23.2-24.3h-34v49h32
				C1350.6,355.1,1359,346.9,1359,330.4z"/>
			<path class="st10" d="M1503.4,294.4l-43.9,115.9h-17.3l-44.1-115.9h15.3l37.3,101l37.4-101H1503.4z"/>
			<path class="st10" d="M1543,294.4h14.8v115.9H1543V294.4z"/>
			<path class="st10" d="M1686.4,394.3v13.1c-10.1,3.1-21.2,4.7-33.5,4.7c-18.2,0-32.1-5.1-41.5-15.3c-9.4-10.2-14.1-24.2-14.1-41.9
				c0-19.7,4.5-35,13.6-45.9c9.1-10.9,23-16.4,41.8-16.4c12.4,0,23.6,1.8,33.7,5.4v13c-10.2-3.8-21-5.8-32.4-5.8
				c-15,0-25.7,4.2-32.2,12.6c-6.5,8.4-9.7,20.8-9.7,37.1c0,29.8,14.1,44.6,42.3,44.6C1666.5,399.5,1677.2,397.8,1686.4,394.3z"/>
			<path class="st10" d="M1726,294.4h78.3v11.7h-63.5v40.5h57.1v11.5h-57.1v40.7h63.5v11.5H1726V294.4z"/>
			<path class="st10" d="M1911.1,403.8c-7.5,5.5-18.6,8.3-33.2,8.3c-14.4,0-26-1.8-34.9-5.4v-13.1c10.6,4,21.8,5.9,33.7,5.9
				c10.7,0,18.5-1.4,23.5-4.3c5-2.9,7.5-7.9,7.5-15.1c0-4.4-1.1-8-3.2-10.7c-2.1-2.7-5.4-5-9.9-6.8c-4.5-1.9-11.1-3.8-19.7-5.8
				c-12.7-3.1-21.7-7.1-26.8-12.1c-5.2-4.9-7.7-11.6-7.7-20.2c0-10.1,3.6-17.9,10.9-23.5c7.3-5.6,18-8.4,32.1-8.4
				c6.2,0,12.3,0.4,18.1,1.3c5.8,0.9,10.5,2,13.9,3.1v13c-9.1-3.2-19-4.9-29.7-4.9c-10.2,0-17.8,1.5-22.9,4.5
				c-5.1,3-7.6,7.9-7.6,14.8c0,4,0.9,7.1,2.7,9.5c1.8,2.4,4.8,4.5,9.1,6.2c4.3,1.7,10.6,3.6,19,5.7c13.6,3.2,23,7.6,28.4,13
				c5.4,5.5,8.1,12.5,8.1,21.1C1922.3,390.4,1918.6,398.3,1911.1,403.8z"/>
		</g>
	</g>
	<g>
		<defs>
			<path id="SVGID_00000010285944346265356610000001039195826016510612_" d="M664.6,218.7c-14.1-14.5-21.1-34.5-21.1-60.2
				c0-27.6,6.8-49,20.3-64.2c13.6-15.2,34-22.8,61.3-22.8c17.1,0,33.1,2.6,48.1,7.9v24.2c-14.4-5.6-29.8-8.4-46-8.4
				c-19.8,0-34.1,5.3-42.7,15.8c-8.6,10.5-13,26.4-13,47.6c0,19.3,4.6,33.9,13.9,43.7c9.2,9.8,23.4,14.8,42.3,14.8
				c16.8,0,32-2.6,45.8-7.9v24.4c-14.6,4.6-30.6,6.9-48.1,6.9C698.9,240.5,678.7,233.2,664.6,218.7z M808.2,220
				c-12.8-13.6-19.2-34.8-19.2-63.5c0-29.5,6.4-51,19.1-64.6c12.7-13.6,32.2-20.3,58.5-20.3c26.3,0,45.8,6.8,58.5,20.3
				c12.7,13.6,19.1,35.1,19.1,64.6c0,28.7-6.4,49.8-19.2,63.5c-12.8,13.7-32.3,20.5-58.4,20.5C840.4,240.5,821,233.7,808.2,220z
				 M904.5,202.8c8-9.5,12-24.9,12-46.3c0-22.2-3.9-38-11.8-47.3c-7.9-9.3-20.6-14-38-14c-17.3,0-29.9,4.7-37.8,14
				c-7.9,9.3-11.8,25.1-11.8,47.3c0,21.2,4,36.6,12,46.2c8,9.6,20.5,14.4,37.6,14.4C883.9,217.1,896.5,212.3,904.5,202.8z
				 M976.4,74.1h24.4l85.5,120.6V74.1h27.5v163.8h-24.4l-85.2-120.3v120.3h-27.7V74.1z M1149.6,232.3v-24.4
				c15.8,6.1,32,9.2,48.6,9.2c13.7,0,23.7-1.6,29.9-4.8c6.2-3.2,9.3-9.2,9.3-18.1c0-5.6-1.3-10-3.9-13.4c-2.6-3.3-6.9-6.1-12.8-8.5
				c-5.9-2.4-14.8-5.1-26.7-8.1c-17.6-4.6-30-10.4-37.1-17.4c-7.1-7-10.7-16.7-10.7-29.1c0-14.6,5.3-25.9,16-34
				c10.7-8.1,26.3-12.1,46.8-12.1c9,0,17.7,0.6,26.1,1.9c8.4,1.3,15.2,2.8,20.5,4.7v24.4c-12.9-4.9-27.1-7.4-42.7-7.4
				c-12.9,0-22.6,1.7-29,5.1c-6.4,3.4-9.7,9.2-9.7,17.3c0,4.9,1.2,8.9,3.6,11.8c2.4,3,6.3,5.6,11.8,7.9c5.5,2.3,13.8,4.8,24.8,7.5
				c19.2,4.9,32.5,11.3,39.9,19.1c7.5,7.8,11.2,17.9,11.2,30.3c0,14.6-5.5,25.9-16.4,34.1c-10.9,8.1-27,12.2-48.2,12.2
				C1179.6,240.5,1162.5,237.8,1149.6,232.3z M1314.7,224.2c-12.4-10.8-18.6-26.5-18.6-47.1v-103h27.7v102
				c0,13.6,3.7,23.8,11.2,30.6c7.5,6.9,18.2,10.3,32.3,10.3c13.9,0,24.6-3.4,32-10.3c7.5-6.9,11.2-17.1,11.2-30.6v-102h27.5v103
				c0,20.5-6.1,36.2-18.4,47.1c-12.3,10.9-29.7,16.3-52.3,16.3C1344.7,240.5,1327.1,235.1,1314.7,224.2z M1474,74.1h27.7v142.4h83.9
				v21.4H1474V74.1z M1620.7,95.8h-52.4V74.1h132.3v21.6h-52.1v142.2h-27.7V95.8z M1753.7,74.1h31l62.1,163.8h-28.5l-16.3-42.2
				h-65.9l-16.3,42.2h-28.7L1753.7,74.1z M1797.5,174.3l-28.5-75l-28.5,75H1797.5z M1879.1,74.1h24.4l85.5,120.6V74.1h27.5v163.8
				h-24.4l-85.2-120.3v120.3h-27.7V74.1z M2069.9,218.7c-14.1-14.5-21.1-34.5-21.1-60.2c0-27.6,6.8-49,20.3-64.2
				c13.6-15.2,34-22.8,61.3-22.8c17.1,0,33.2,2.6,48.1,7.9v24.2c-14.4-5.6-29.8-8.4-46-8.4c-19.8,0-34.1,5.3-42.7,15.8
				c-8.6,10.5-13,26.4-13,47.6c0,19.3,4.6,33.9,13.9,43.7c9.2,9.8,23.4,14.8,42.3,14.8c16.8,0,32-2.6,45.8-7.9v24.4
				c-14.6,4.6-30.6,6.9-48.1,6.9C2104.2,240.5,2084,233.2,2069.9,218.7z M2253,177.1l-58.8-103h28.7l43.7,79.6l43.7-79.6h28.7
				l-58.8,103v60.8H2253V177.1z"/>
		</defs>
		<clipPath id="SVGID_00000129901824893357160210000015463367692536903077_">
			<use xlink:href="#SVGID_00000010285944346265356610000001039195826016510612_"  style="overflow:visible;"/>
		</clipPath>
		
			<rect x="628.8" y="23.6" style="clip-path:url(#SVGID_00000129901824893357160210000015463367692536903077_);" width="1744.9" height="232.9"/>
	</g>
</g>
</svg>
