<?xml version="1.0" encoding="UTF-8"?>
<!DOCTYPE svg PUBLIC "-//W3C//DTD SVG 1.1//EN" "http://www.w3.org/Graphics/SVG/1.1/DTD/svg11.dtd">
<svg xmlns="http://www.w3.org/2000/svg" version="1.1" width="1280px" height="635px" style="shape-rendering:geometricPrecision; text-rendering:geometricPrecision; image-rendering:optimizeQuality; fill-rule:evenodd; clip-rule:evenodd" xmlns:xlink="http://www.w3.org/1999/xlink">
<g><path style="opacity:0.986" fill="none" d="M 1073.5,218.5 C 1053.99,210.824 1033.99,209.657 1013.5,215C 995.918,222.417 991.418,234.584 1000,251.5C 1010.26,260.378 1022.09,266.211 1035.5,269C 1057.92,273.017 1079.92,278.684 1101.5,286C 1149.77,307.036 1164.6,342.202 1146,391.5C 1130.03,416.103 1107.53,431.269 1078.5,437C 1061.28,439.722 1043.94,440.889 1026.5,440.5C 1025.17,440.5 1023.83,440.5 1022.5,440.5C 987.16,436.886 954.66,425.219 925,405.5C 923,402.167 923,398.833 925,395.5C 933.584,382 941.918,368.333 950,354.5C 971.617,366.393 994.117,376.226 1017.5,384C 1034.3,387.645 1050.96,387.311 1067.5,383C 1075.92,379.714 1082.42,374.214 1087,366.5C 1089.42,360.465 1088.76,354.798 1085,349.5C 1077.41,340.784 1067.91,335.284 1056.5,333C 1037.3,329.487 1018.3,325.153 999.5,320C 977.41,313.711 958.577,302.211 943,285.5C 920.115,247.474 924.949,213.308 957.5,183C 971.625,171.773 987.625,164.606 1005.5,161.5C 1054.84,152.698 1100.5,161.698 1142.5,188.5C 1143.61,189.723 1143.78,191.056 1143,192.5C 1141.7,195.147 1140.37,197.814 1139,200.5C 1131.5,210.824 1124.5,221.491 1118,232.5C 1115.35,235.194 1112.18,236.027 1108.5,235C 1101.68,232.091 1095.34,228.424 1089.5,224C 1084.39,221.464 1079.06,219.631 1073.5,218.5 Z"/></g>
<g><path style="opacity:0.193" fill="#f1f2f2" d="M 286.5,165.5 C 230.357,155.27 182.857,170.937 144,212.5C 124.862,236.118 114.028,263.118 111.5,293.5C 110.444,298.136 109.777,302.969 109.5,308C 109.547,310.295 110.213,312.129 111.5,313.5C 112.101,319.842 112.768,326.176 113.5,332.5C 113.338,334.527 113.505,336.527 114,338.5C 114.383,339.056 114.883,339.389 115.5,339.5C 128.775,387.278 158.442,420.444 204.5,439C 214.318,441.456 223.985,443.956 233.5,446.5C 232.5,446.5 231.5,446.5 230.5,446.5C 202.176,442.505 177.176,431.172 155.5,412.5C 148.268,405.027 141.268,397.36 134.5,389.5C 128.464,380.479 122.964,371.146 118,361.5C 116.299,355.15 114.633,348.817 113,342.5C 112,340.833 111,339.167 110,337.5C 106.309,310.887 107.643,284.554 114,258.5C 117.195,251.247 120.195,243.914 123,236.5C 125.64,231.866 128.973,227.866 133,224.5C 133.667,222.5 134.333,220.5 135,218.5C 145.326,204.092 158.159,192.258 173.5,183C 204.618,164.309 238.284,157.309 274.5,162C 278.833,162.488 282.833,163.655 286.5,165.5 Z"/></g>
<g><path style="opacity:0.24" fill="#f6f7f7" d="M 582.5,175.5 C 527.018,152.727 475.352,159.227 427.5,195C 401.77,217.626 385.77,245.792 379.5,279.5C 378.081,282.596 377.081,285.929 376.5,289.5C 376.624,290.107 376.957,290.44 377.5,290.5C 377.5,292.167 377.5,293.833 377.5,295.5C 375.011,302.811 375.011,310.145 377.5,317.5C 377.5,318.167 377.5,318.833 377.5,319.5C 376.535,323.671 377.202,327.671 379.5,331.5C 390.597,382.599 420.264,418.265 468.5,438.5C 454.6,434.383 441.933,427.883 430.5,419C 422.719,412.37 414.886,405.87 407,399.5C 400.77,392.054 394.77,384.387 389,376.5C 386.584,372.542 384.917,368.209 384,363.5C 382.667,362.833 381.667,361.833 381,360.5C 378.596,352.429 376.929,344.096 376,335.5C 374.488,334.743 373.154,333.743 372,332.5C 371.248,323.132 371.415,313.799 372.5,304.5C 371.5,304.5 370.5,304.5 369.5,304.5C 369.812,301.112 368.479,298.612 365.5,297C 365.434,291.702 365.6,286.202 366,280.5C 369.639,273.17 373.306,265.837 377,258.5C 377.333,255.167 377.667,251.833 378,248.5C 380.584,246.424 382.251,243.757 383,240.5C 384.512,239.743 385.846,238.743 387,237.5C 391.681,227.462 398.014,218.462 406,210.5C 407.24,207.588 408.906,204.921 411,202.5C 435.646,180.433 464.479,166.933 497.5,162C 525.909,158.349 553.409,161.849 580,172.5C 581.31,173.13 582.144,174.13 582.5,175.5 Z"/></g>
<g><path style="opacity:0.923" fill="#fdfdfd" d="M 1005.5,160.5 C 1005.5,160.833 1005.5,161.167 1005.5,161.5C 987.625,164.606 971.625,171.773 957.5,183C 924.949,213.308 920.115,247.474 943,285.5C 958.577,302.211 977.41,313.711 999.5,320C 1018.3,325.153 1037.3,329.487 1056.5,333C 1067.91,335.284 1077.41,340.784 1085,349.5C 1088.76,354.798 1089.42,360.465 1087,366.5C 1082.42,374.214 1075.92,379.714 1067.5,383C 1050.96,387.311 1034.3,387.645 1017.5,384C 994.117,376.226 971.617,366.393 950,354.5C 941.918,368.333 933.584,382 925,395.5C 923,398.833 923,402.167 925,405.5C 954.66,425.219 987.16,436.886 1022.5,440.5C 1006.36,440.317 990.694,437.484 975.5,432C 956.288,425.892 938.288,417.392 921.5,406.5C 917.196,405.897 913.03,404.897 909,403.5C 906.455,404.522 903.955,405.688 901.5,407C 896.736,412.439 891.402,417.105 885.5,421C 836.677,450.806 785.343,456.139 731.5,437C 720.516,431.843 709.85,426.176 699.5,420C 691.967,411.471 683.467,403.971 674,397.5C 670.384,391.552 666.384,385.886 662,380.5C 661.727,378.899 661.227,377.399 660.5,376C 657.443,375.744 654.443,375.244 651.5,374.5C 645.473,377.681 639.14,380.014 632.5,381.5C 629.472,381.153 626.806,379.986 624.5,378C 619.209,377.121 615.875,379.288 614.5,384.5C 614.437,386.481 615.104,388.148 616.5,389.5C 615.833,390.5 615.167,391.5 614.5,392.5C 615.937,394.021 616.604,395.855 616.5,398C 614.752,403.638 613.586,409.471 613,415.5C 608.653,422.498 602.487,427.331 594.5,430C 579.18,437.494 563.18,442.994 546.5,446.5C 527.476,449.261 508.476,449.094 489.5,446C 483.882,444.629 478.548,442.795 473.5,440.5C 519.53,453.552 562.864,447.385 603.5,422C 605.706,419.963 607.706,417.797 609.5,415.5C 610.117,415.611 610.617,415.944 611,416.5C 611.471,377.493 611.804,338.493 612,299.5C 611.768,298.263 611.268,297.263 610.5,296.5C 575.833,295.167 541.167,295.167 506.5,296.5C 505.167,309.167 505.167,321.833 506.5,334.5C 506.5,337.167 506.5,339.833 506.5,342.5C 508.833,342.5 511.167,342.5 513.5,342.5C 528.069,343.182 542.735,343.849 557.5,344.5C 557.806,358.937 557.14,373.27 555.5,387.5C 549.618,390.797 543.285,393.13 536.5,394.5C 502.746,398.914 473.912,388.58 450,363.5C 426.81,332.4 423.144,299.067 439,263.5C 461.566,225.066 495.066,209.232 539.5,216C 546.37,217.769 553.036,220.102 559.5,223C 566.719,228.103 574.052,232.936 581.5,237.5C 582.072,238.973 582.905,240.307 584,241.5C 585.044,239.285 585.71,236.952 586,234.5C 586.601,215.317 586.101,196.317 584.5,177.5C 584.5,176.833 584.5,176.167 584.5,175.5C 587.74,177.113 589.24,179.78 589,183.5C 589.07,192.587 589.904,201.587 591.5,210.5C 591.167,212.5 590.833,214.5 590.5,216.5C 591.905,219.493 592.905,222.659 593.5,226C 593.441,227.436 593.108,228.769 592.5,230C 594.972,231.798 596.639,234.132 597.5,237C 602.003,240.257 607.003,241.757 612.5,241.5C 612.33,242.822 612.663,243.989 613.5,245C 615.765,246.118 618.099,246.951 620.5,247.5C 620.167,250.5 621.5,251.833 624.5,251.5C 624.5,252.5 624.5,253.5 624.5,254.5C 627.767,254.424 629.101,255.757 628.5,258.5C 629.23,261.109 629.73,263.776 630,266.5C 631.085,267.293 632.252,267.96 633.5,268.5C 634.711,267.726 634.711,266.893 633.5,266C 635.457,264.009 637.457,262.009 639.5,260C 639.043,259.586 638.709,259.086 638.5,258.5C 648.355,242.878 658.855,227.544 670,212.5C 679.467,201.831 690.3,192.664 702.5,185C 720.249,175.733 738.915,169.233 758.5,165.5C 758.5,166.167 758.5,166.833 758.5,167.5C 693.165,182.503 655.498,223.169 645.5,289.5C 645.556,291.64 646.223,293.306 647.5,294.5C 652.833,294.5 658.167,294.5 663.5,294.5C 667.343,297.503 671.343,300.336 675.5,303C 687.151,305.607 698.818,308.107 710.5,310.5C 712.283,305.001 712.95,299.334 712.5,293.5C 714.082,290.124 714.749,286.458 714.5,282.5C 723.171,250.995 743.171,230.495 774.5,221C 799.674,214.974 823.007,218.974 844.5,233C 850,237.167 854.833,242 859,247.5C 871.773,240.403 883.106,231.403 893,220.5C 895.847,216.989 898.68,213.489 901.5,210C 898.179,205.346 894.179,201.346 889.5,198C 869.437,182.97 847.103,172.804 822.5,167.5C 822.833,166.833 823.167,166.167 823.5,165.5C 852.555,171.862 878.555,184.362 901.5,203C 903.032,205.034 904.365,207.201 905.5,209.5C 910.408,211.111 915.075,213.111 919.5,215.5C 921.299,215.423 922.966,214.923 924.5,214C 934.398,200.765 945.731,188.765 958.5,178C 967.198,173.651 975.864,169.318 984.5,165C 991.265,162.414 998.265,160.914 1005.5,160.5 Z"/></g>
<g><path style="opacity:0.984" fill="#020f1d" d="M 286.5,165.5 C 296.497,169.609 306.83,172.943 317.5,175.5C 317.833,175.5 318.167,175.5 318.5,175.5C 318.667,196.836 318.5,218.169 318,239.5C 306.659,230.41 294.159,223.243 280.5,218C 241.603,208.633 208.769,218.799 182,248.5C 161.544,277.462 157.877,308.462 171,341.5C 185.392,371.796 209.225,389.629 242.5,395C 256.429,396.353 270.095,395.019 283.5,391C 285.86,389.82 288.193,388.653 290.5,387.5C 291.793,386.158 292.626,384.491 293,382.5C 295.163,369.784 294.996,357.117 292.5,344.5C 292.5,344.167 292.5,343.833 292.5,343.5C 275.341,342.503 258.008,342.17 240.5,342.5C 241.613,327.144 241.613,311.811 240.5,296.5C 240.5,296.167 240.5,295.833 240.5,295.5C 275.167,295.5 309.833,295.5 344.5,295.5C 344.827,335.572 344.494,375.572 343.5,415.5C 341.283,419.787 337.949,422.954 333.5,425C 302.395,442.455 269.061,449.621 233.5,446.5C 223.985,443.956 214.318,441.456 204.5,439C 158.442,420.444 128.775,387.278 115.5,339.5C 115.073,336.99 114.407,334.657 113.5,332.5C 112.768,326.176 112.101,319.842 111.5,313.5C 111.5,306.833 111.5,300.167 111.5,293.5C 114.028,263.118 124.862,236.118 144,212.5C 182.857,170.937 230.357,155.27 286.5,165.5 Z"/></g>
<g><path style="opacity:0.989" fill="#030f1d" d="M 582.5,175.5 C 583.167,175.5 583.833,175.5 584.5,175.5C 584.5,176.167 584.5,176.833 584.5,177.5C 584.667,194.837 584.5,212.17 584,229.5C 583.454,232.379 582.621,235.046 581.5,237.5C 574.052,232.936 566.719,228.103 559.5,223C 553.036,220.102 546.37,217.769 539.5,216C 495.066,209.232 461.566,225.066 439,263.5C 423.144,299.067 426.81,332.4 450,363.5C 473.912,388.58 502.746,398.914 536.5,394.5C 543.285,393.13 549.618,390.797 555.5,387.5C 556.497,387.53 557.164,387.03 557.5,386C 561.388,372.006 561.388,358.173 557.5,344.5C 555.417,342.518 552.751,341.518 549.5,341.5C 537.524,342.439 525.524,342.772 513.5,342.5C 511.167,342.5 508.833,342.5 506.5,342.5C 506.5,339.833 506.5,337.167 506.5,334.5C 507.79,321.822 507.79,309.156 506.5,296.5C 541.167,295.167 575.833,295.167 610.5,296.5C 610.822,336.209 610.488,375.876 609.5,415.5C 607.706,417.797 605.706,419.963 603.5,422C 562.864,447.385 519.53,453.552 473.5,440.5C 472.22,439.069 470.553,438.402 468.5,438.5C 420.264,418.265 390.597,382.599 379.5,331.5C 379.149,327.316 378.482,323.316 377.5,319.5C 377.5,318.833 377.5,318.167 377.5,317.5C 377.5,310.167 377.5,302.833 377.5,295.5C 377.5,293.833 377.5,292.167 377.5,290.5C 378.485,286.924 379.152,283.258 379.5,279.5C 385.77,245.792 401.77,217.626 427.5,195C 475.352,159.227 527.018,152.727 582.5,175.5 Z"/></g>
<g><path style="opacity:0.135" fill="#dbdddf" d="M 823.5,165.5 C 823.167,166.167 822.833,166.833 822.5,167.5C 801.123,163.519 779.79,163.519 758.5,167.5C 758.5,166.833 758.5,166.167 758.5,165.5C 780.176,161.601 801.842,161.601 823.5,165.5 Z"/></g>
<g><path style="opacity:0.992" fill="#03101d" d="M 822.5,167.5 C 847.103,172.804 869.437,182.97 889.5,198C 894.179,201.346 898.179,205.346 901.5,210C 898.68,213.489 895.847,216.989 893,220.5C 883.106,231.403 871.773,240.403 859,247.5C 854.833,242 850,237.167 844.5,233C 823.007,218.974 799.674,214.974 774.5,221C 743.171,230.495 723.171,250.995 714.5,282.5C 713.097,285.909 712.43,289.575 712.5,293.5C 712.95,299.334 712.283,305.001 710.5,310.5C 698.818,308.107 687.151,305.607 675.5,303C 671.343,300.336 667.343,297.503 663.5,294.5C 661.362,293.596 659.029,292.929 656.5,292.5C 654.777,293.552 653.11,293.552 651.5,292.5C 649.974,292.994 648.641,293.661 647.5,294.5C 646.223,293.306 645.556,291.64 645.5,289.5C 655.498,223.169 693.165,182.503 758.5,167.5C 779.79,163.519 801.123,163.519 822.5,167.5 Z"/></g>
<g><path style="opacity:0.117" fill="#e8eaeb" d="M 286.5,165.5 C 295.737,166.582 304.737,168.748 313.5,172C 315.324,172.66 316.657,173.827 317.5,175.5C 306.83,172.943 296.497,169.609 286.5,165.5 Z"/></g>
<g><path style="opacity:0.855" fill="#fdfdfd" d="M 318.5,175.5 C 319.15,175.804 319.817,176.137 320.5,176.5C 321.197,188.473 322.197,200.307 323.5,212C 323.427,216.692 323.093,221.358 322.5,226C 324.006,230.488 325.006,235.155 325.5,240C 325.905,240.945 326.572,241.612 327.5,242C 330.167,242.333 332.833,242.667 335.5,243C 338.245,245.035 341.245,246.701 344.5,248C 345.711,249.113 345.711,250.28 344.5,251.5C 345.991,252.244 347.491,252.91 349,253.5C 349.495,256.531 349.329,259.531 348.5,262.5C 351.625,263.103 354.459,264.437 357,266.5C 357.815,274.746 357.648,282.912 356.5,291C 362.987,292.465 363.154,294.299 357,296.5C 356.316,297.784 356.483,298.951 357.5,300C 356,300.833 354.833,302 354,303.5C 353.884,306.932 352.717,309.932 350.5,312.5C 350.833,313.167 351.167,313.833 351.5,314.5C 350.448,322.453 349.615,330.453 349,338.5C 348.667,363.5 348.333,388.5 348,413.5C 346.883,414.949 346.216,416.616 346,418.5C 340.732,423.216 334.899,427.049 328.5,430C 310.689,438.623 292.022,444.789 272.5,448.5C 260.616,448.597 248.616,448.431 236.5,448C 234.292,447.809 232.292,447.309 230.5,446.5C 231.5,446.5 232.5,446.5 233.5,446.5C 269.061,449.621 302.395,442.455 333.5,425C 337.949,422.954 341.283,419.787 343.5,415.5C 344.117,415.611 344.617,415.944 345,416.5C 345.5,375.835 345.667,335.168 345.5,294.5C 309.76,294.167 274.76,294.501 240.5,295.5C 240.5,295.833 240.5,296.167 240.5,296.5C 239.504,311.991 239.17,327.658 239.5,343.5C 257.167,343.5 274.833,343.5 292.5,343.5C 292.5,343.833 292.5,344.167 292.5,344.5C 290.827,358.631 290.16,372.964 290.5,387.5C 288.193,388.653 285.86,389.82 283.5,391C 270.095,395.019 256.429,396.353 242.5,395C 209.225,389.629 185.392,371.796 171,341.5C 157.877,308.462 161.544,277.462 182,248.5C 208.769,218.799 241.603,208.633 280.5,218C 294.159,223.243 306.659,230.41 318,239.5C 318.5,218.169 318.667,196.836 318.5,175.5 Z"/></g>
<g><path style="opacity:0.523" fill="#9ba1a6" d="M 584.5,177.5 C 586.101,196.317 586.601,215.317 586,234.5C 585.71,236.952 585.044,239.285 584,241.5C 582.905,240.307 582.072,238.973 581.5,237.5C 582.621,235.046 583.454,232.379 584,229.5C 584.5,212.17 584.667,194.837 584.5,177.5 Z"/></g>
<g><path style="opacity:0.167" fill="#eeeff0" d="M 1073.5,218.5 C 1079.06,219.631 1084.39,221.464 1089.5,224C 1095.34,228.424 1101.68,232.091 1108.5,235C 1112.18,236.027 1115.35,235.194 1118,232.5C 1124.5,221.491 1131.5,210.824 1139,200.5C 1140.37,197.814 1141.7,195.147 1143,192.5C 1143.78,191.056 1143.61,189.723 1142.5,188.5C 1100.5,161.698 1054.84,152.698 1005.5,161.5C 1005.5,161.167 1005.5,160.833 1005.5,160.5C 1053.71,150.476 1098.71,158.476 1140.5,184.5C 1141.53,186.361 1143.03,187.695 1145,188.5C 1147,191.5 1147,194.5 1145,197.5C 1142.46,199.962 1140.96,202.962 1140.5,206.5C 1138.56,208.986 1136.39,211.319 1134,213.5C 1131.14,218.563 1128.14,223.563 1125,228.5C 1119.67,236.462 1112.5,238.628 1103.5,235C 1093.69,229.021 1083.69,223.521 1073.5,218.5 Z"/></g>
<g><path style="opacity:0.208" fill="#eaebec" d="M 1073.5,218.5 C 1067.74,217.862 1062.08,216.695 1056.5,215C 1043.06,213.923 1029.73,214.589 1016.5,217C 1010.36,219.303 1005.53,223.136 1002,228.5C 997.159,241.312 1000.66,251.145 1012.5,258C 1017.39,259.443 1022.06,261.443 1026.5,264C 1054.1,269.186 1081.1,276.519 1107.5,286C 1115.98,291.075 1124.31,296.408 1132.5,302C 1140.53,309.36 1147.03,317.86 1152,327.5C 1160.82,353.851 1157.82,378.518 1143,401.5C 1130.23,416.568 1114.4,427.402 1095.5,434C 1072.85,441.168 1049.85,443.335 1026.5,440.5C 1043.94,440.889 1061.28,439.722 1078.5,437C 1107.53,431.269 1130.03,416.103 1146,391.5C 1164.6,342.202 1149.77,307.036 1101.5,286C 1079.92,278.684 1057.92,273.017 1035.5,269C 1022.09,266.211 1010.26,260.378 1000,251.5C 991.418,234.584 995.918,222.417 1013.5,215C 1033.99,209.657 1053.99,210.824 1073.5,218.5 Z"/></g>
<g><path style="opacity:0.966" fill="#f27277" d="M 816.5,243.5 C 827.882,242.704 832.049,247.704 829,258.5C 825.784,261.551 821.951,263.384 817.5,264C 815.04,265.458 812.873,267.291 811,269.5C 798.333,286.167 785.667,302.833 773,319.5C 770.989,323.567 769.989,327.9 770,332.5C 768.024,338.709 763.858,341.209 757.5,340C 750.895,335.864 743.895,332.531 736.5,330C 719.411,326.748 702.411,323.081 685.5,319C 666.354,313.366 653.52,319.866 647,338.5C 642.193,348.182 641.36,358.182 644.5,368.5C 642.675,377.077 637.675,379.91 629.5,377C 624.647,373.042 623.48,368.208 626,362.5C 629.026,359.974 632.193,357.64 635.5,355.5C 645.5,340.508 649.333,324.174 647,306.5C 649.785,302.359 653.618,300.859 658.5,302C 662.783,304.615 666.783,307.615 670.5,311C 696.678,317.303 723.012,322.303 749.5,326C 754.395,322.014 760.061,319.681 766.5,319C 779.667,301.833 792.833,284.667 806,267.5C 808.46,261.33 810.46,254.997 812,248.5C 813.059,246.341 814.559,244.674 816.5,243.5 Z"/></g>
<g><path style="opacity:0.008" fill="#fefffe" d="M 359.5,279.5 C 359.897,278.475 360.563,278.308 361.5,279C 360.906,279.464 360.239,279.631 359.5,279.5 Z"/></g>
<g><path style="opacity:0.627" fill="#858b91" d="M 379.5,279.5 C 379.152,283.258 378.485,286.924 377.5,290.5C 376.957,290.44 376.624,290.107 376.5,289.5C 377.081,285.929 378.081,282.596 379.5,279.5 Z"/></g>
<g><path style="opacity:1" fill="#848a90" d="M 714.5,282.5 C 714.749,286.458 714.082,290.124 712.5,293.5C 712.43,289.575 713.097,285.909 714.5,282.5 Z"/></g>
<g><path style="opacity:1" fill="#5b636c" d="M 663.5,294.5 C 658.167,294.5 652.833,294.5 647.5,294.5C 648.641,293.661 649.974,292.994 651.5,292.5C 653.11,293.552 654.777,293.552 656.5,292.5C 659.029,292.929 661.362,293.596 663.5,294.5 Z"/></g>
<g><path style="opacity:0.632" fill="#999fa4" d="M 343.5,415.5 C 344.494,375.572 344.827,335.572 344.5,295.5C 309.833,295.5 275.167,295.5 240.5,295.5C 274.76,294.501 309.76,294.167 345.5,294.5C 345.667,335.168 345.5,375.835 345,416.5C 344.617,415.944 344.117,415.611 343.5,415.5 Z"/></g>
<g><path style="opacity:0.686" fill="#9aa1a6" d="M 610.5,296.5 C 611.268,297.263 611.768,298.263 612,299.5C 611.804,338.493 611.471,377.493 611,416.5C 610.617,415.944 610.117,415.611 609.5,415.5C 610.488,375.876 610.822,336.209 610.5,296.5 Z"/></g>
<g><path style="opacity:1" fill="#565c63" d="M 240.5,296.5 C 241.613,311.811 241.613,327.144 240.5,342.5C 258.008,342.17 275.341,342.503 292.5,343.5C 274.833,343.5 257.167,343.5 239.5,343.5C 239.17,327.658 239.504,311.991 240.5,296.5 Z"/></g>
<g><path style="opacity:1" fill="#585e65" d="M 506.5,296.5 C 507.79,309.156 507.79,321.822 506.5,334.5C 505.167,321.833 505.167,309.167 506.5,296.5 Z"/></g>
<g><path style="opacity:0.604" fill="#8d9399" d="M 377.5,295.5 C 377.5,302.833 377.5,310.167 377.5,317.5C 375.011,310.145 375.011,302.811 377.5,295.5 Z"/></g>
<g><path style="opacity:0.408" fill="#8e949a" d="M 111.5,293.5 C 111.5,300.167 111.5,306.833 111.5,313.5C 110.213,312.129 109.547,310.295 109.5,308C 109.777,302.969 110.444,298.136 111.5,293.5 Z"/></g>
<g><path style="opacity:0.475" fill="#8c9298" d="M 377.5,319.5 C 378.482,323.316 379.149,327.316 379.5,331.5C 377.202,327.671 376.535,323.671 377.5,319.5 Z"/></g>
<g><path style="opacity:0.995" fill="#03101e" d="M 752.5,381.5 C 744.058,384.552 736.391,388.885 729.5,394.5C 727.883,395.038 726.216,395.371 724.5,395.5C 723.738,393.738 722.404,392.738 720.5,392.5C 717.66,391.083 714.993,391.416 712.5,393.5C 705.268,396.735 698.268,400.401 691.5,404.5C 689.801,404.66 688.134,404.494 686.5,404C 671.349,390.482 660.516,373.982 654,354.5C 653.429,343.144 657.596,333.977 666.5,327C 671.796,325.275 677.129,325.275 682.5,327C 693.931,329.691 705.265,332.691 716.5,336C 720.86,343.883 725.36,351.716 730,359.5C 736.287,367.118 743.787,373.285 752.5,378C 753.684,379.145 753.684,380.312 752.5,381.5 Z"/></g>
<g><path style="opacity:0.6" fill="#91959b" d="M 113.5,332.5 C 114.407,334.657 115.073,336.99 115.5,339.5C 114.883,339.389 114.383,339.056 114,338.5C 113.505,336.527 113.338,334.527 113.5,332.5 Z"/></g>
<g><path style="opacity:1" fill="#585f66" d="M 557.5,344.5 C 542.735,343.849 528.069,343.182 513.5,342.5C 525.524,342.772 537.524,342.439 549.5,341.5C 552.751,341.518 555.417,342.518 557.5,344.5 Z"/></g>
<g><path style="opacity:1" fill="#90979d" d="M 292.5,344.5 C 294.996,357.117 295.163,369.784 293,382.5C 292.626,384.491 291.793,386.158 290.5,387.5C 290.16,372.964 290.827,358.631 292.5,344.5 Z"/></g>
<g><path style="opacity:1" fill="#8d949a" d="M 557.5,344.5 C 561.388,358.173 561.388,372.006 557.5,386C 557.164,387.03 556.497,387.53 555.5,387.5C 557.14,373.27 557.806,358.937 557.5,344.5 Z"/></g>
<g><path style="opacity:0.987" fill="#f16e74" d="M 691.5,404.5 C 698.268,400.401 705.268,396.735 712.5,393.5C 715.167,393.167 717.833,392.833 720.5,392.5C 722.404,392.738 723.738,393.738 724.5,395.5C 724.369,396.376 724.702,397.043 725.5,397.5C 727.261,396.965 728.594,395.965 729.5,394.5C 736.391,388.885 744.058,384.552 752.5,381.5C 755.187,381.336 757.854,381.503 760.5,382C 795.435,396.106 826.435,390.106 853.5,364C 855.5,363 857.5,362 859.5,361C 861.289,360.48 862.956,360.813 864.5,362C 875.649,372.812 887.149,383.312 899,393.5C 900.422,396.03 900.755,398.697 900,401.5C 890.895,412.938 879.729,421.771 866.5,428C 805.777,457.415 748.444,452.082 694.5,412C 693.167,410 691.833,408 690.5,406C 691.056,405.617 691.389,405.117 691.5,404.5 Z"/></g>
<g><path style="opacity:1" fill="#e8b8ba" d="M 720.5,392.5 C 717.833,392.833 715.167,393.167 712.5,393.5C 714.993,391.416 717.66,391.083 720.5,392.5 Z"/></g>
<g><path style="opacity:1" fill="#cca0a4" d="M 729.5,394.5 C 728.594,395.965 727.261,396.965 725.5,397.5C 724.702,397.043 724.369,396.376 724.5,395.5C 726.216,395.371 727.883,395.038 729.5,394.5 Z"/></g>
<g><path style="opacity:0.131" fill="#f1f2f3" d="M 468.5,438.5 C 470.553,438.402 472.22,439.069 473.5,440.5C 471.447,440.598 469.78,439.931 468.5,438.5 Z"/></g>
</svg>
