<?xml version="1.0" encoding="utf-8"?>
<!-- Generator: Adobe Illustrator 27.5.0, SVG Export Plug-In . SVG Version: 6.00 Build 0)  -->
<svg version="1.1" xmlns="http://www.w3.org/2000/svg" xmlns:xlink="http://www.w3.org/1999/xlink" x="0px" y="0px"
	 viewBox="0 0 750 500" style="enable-background:new 0 0 750 500;" xml:space="preserve">
<g id="Background_Simple">
	<g>
		<path style="fill:#92E3A9;" d="M640.165,128.557c0,0-102.786-105.269-236.354-113.391
			C270.244,7.043,192.349,93.319,155.439,144.781C118.53,196.243,26.477,281.979,37.307,360.495
			c10.83,78.516,117.323,138.08,269.842,111.908c152.519-26.172,196.741-36.099,266.232-16.245
			c69.491,19.855,159.739-9.927,161.544-122.738C736.73,220.61,640.165,128.557,640.165,128.557z"/>
		<path style="opacity:0.7;fill:#FFFFFF;" d="M640.165,128.557c0,0-102.786-105.269-236.354-113.391
			C270.244,7.043,192.349,93.319,155.439,144.781C118.53,196.243,26.477,281.979,37.307,360.495
			c10.83,78.516,117.323,138.08,269.842,111.908c152.519-26.172,196.741-36.099,266.232-16.245
			c69.491,19.855,159.739-9.927,161.544-122.738C736.73,220.61,640.165,128.557,640.165,128.557z"/>
	</g>
</g>
<g id="Floor">
	
		<line style="fill:none;stroke:#263238;stroke-linecap:round;stroke-linejoin:round;stroke-miterlimit:10;" x1="68.831" y1="355.233" x2="694.781" y2="355.233"/>
</g>
<g id="Money">
	<g>
		<g>
			
				<circle style="fill:#FFFFFF;stroke:#263238;stroke-linecap:round;stroke-linejoin:round;stroke-miterlimit:10;" cx="70.038" cy="125.973" r="33.432"/>
			
				<ellipse transform="matrix(0.9871 -0.1602 0.1602 0.9871 -19.2742 12.8455)" style="fill:#FFFFFF;stroke:#263238;stroke-linecap:round;stroke-linejoin:round;stroke-miterlimit:10;" cx="70.038" cy="125.973" rx="27.588" ry="27.588"/>
			<g>
				<path style="fill:#FFFFFF;stroke:#263238;stroke-linecap:round;stroke-linejoin:round;stroke-miterlimit:10;" d="
					M69.831,149.073v-3.867c-3.161-0.123-5.517-1.151-7.067-3.085c-1.55-1.933-2.402-4.68-2.555-8.24l5.892-1.151
					c0.061,1.443,0.23,2.716,0.507,3.821c0.276,1.105,0.713,1.957,1.312,2.555c0.599,0.599,1.389,0.898,2.371,0.898
					c1.105,0,1.895-0.329,2.371-0.99c0.476-0.659,0.714-1.496,0.714-2.509c0-1.627-0.376-2.962-1.128-4.005
					c-0.752-1.043-1.726-2.087-2.923-3.131l-4.742-4.143c-0.86-0.767-1.611-1.573-2.256-2.417c-0.645-0.843-1.151-1.795-1.519-2.854
					c-0.368-1.059-0.552-2.294-0.552-3.706c0-2.793,0.798-4.979,2.394-6.56c1.596-1.58,3.744-2.447,6.445-2.601v-3.729h1.98v3.683
					c1.565,0.092,2.854,0.437,3.867,1.036c1.013,0.599,1.818,1.366,2.417,2.302c0.598,0.937,1.043,1.988,1.335,3.154
					c0.292,1.167,0.467,2.379,0.53,3.637l-5.801,1.013c-0.062-1.166-0.184-2.217-0.368-3.153c-0.184-0.936-0.53-1.672-1.036-2.21
					c-0.506-0.537-1.251-0.775-2.233-0.714c-1.044,0.031-1.834,0.368-2.371,1.013c-0.537,0.645-0.805,1.458-0.805,2.44
					c0,1.32,0.291,2.387,0.874,3.2c0.583,0.813,1.304,1.619,2.164,2.417l4.696,4.097c0.982,0.891,1.895,1.857,2.739,2.901
					c0.844,1.044,1.519,2.209,2.025,3.498c0.507,1.289,0.76,2.762,0.76,4.42c0,1.657-0.33,3.138-0.99,4.442
					c-0.66,1.305-1.589,2.356-2.785,3.153c-1.197,0.799-2.624,1.289-4.281,1.473v3.913H69.831z"/>
			</g>
		</g>
		<g>
			
				<ellipse transform="matrix(0.9806 -0.1961 0.1961 0.9806 -45.7541 20.845)" style="fill:#FFFFFF;stroke:#263238;stroke-linecap:round;stroke-linejoin:round;stroke-miterlimit:10;" cx="82.38" cy="241.458" rx="37.799" ry="37.799"/>
			
				<ellipse transform="matrix(0.9732 -0.2298 0.2298 0.9732 -53.2721 25.3863)" style="fill:#FFFFFF;stroke:#263238;stroke-linecap:round;stroke-linejoin:round;stroke-miterlimit:10;" cx="82.38" cy="241.458" rx="31.192" ry="31.192"/>
			<g>
				<path style="fill:#FFFFFF;stroke:#263238;stroke-linecap:round;stroke-linejoin:round;stroke-miterlimit:10;" d="
					M82.146,267.576v-4.372c-3.574-0.139-6.238-1.301-7.99-3.488c-1.752-2.186-2.716-5.291-2.889-9.317l6.662-1.301
					c0.069,1.631,0.26,3.071,0.573,4.32c0.312,1.249,0.807,2.212,1.483,2.889c0.677,0.677,1.57,1.015,2.681,1.015
					c1.249,0,2.142-0.372,2.681-1.119c0.538-0.745,0.807-1.691,0.807-2.836c0-1.839-0.425-3.348-1.275-4.528
					c-0.851-1.179-1.952-2.359-3.305-3.539l-5.361-4.684c-0.972-0.867-1.822-1.778-2.55-2.733c-0.729-0.954-1.301-2.03-1.718-3.227
					c-0.416-1.197-0.625-2.594-0.625-4.19c0-3.157,0.902-5.63,2.707-7.417c1.804-1.787,4.233-2.767,7.287-2.941v-4.216h2.238v4.164
					c1.77,0.104,3.227,0.494,4.372,1.171c1.145,0.677,2.056,1.544,2.732,2.602c0.676,1.059,1.179,2.247,1.509,3.566
					c0.33,1.319,0.529,2.689,0.599,4.112l-6.558,1.145c-0.07-1.318-0.208-2.506-0.416-3.565c-0.208-1.058-0.599-1.891-1.171-2.498
					c-0.572-0.607-1.414-0.876-2.524-0.807c-1.18,0.035-2.074,0.417-2.681,1.145c-0.608,0.729-0.911,1.648-0.911,2.758
					c0,1.493,0.329,2.699,0.989,3.617c0.659,0.92,1.475,1.831,2.446,2.733l5.309,4.632c1.11,1.007,2.142,2.1,3.097,3.279
					c0.954,1.18,1.717,2.498,2.29,3.956c0.573,1.458,0.859,3.123,0.859,4.997s-0.374,3.548-1.119,5.023
					c-0.747,1.475-1.796,2.664-3.149,3.565c-1.354,0.903-2.967,1.457-4.841,1.666v4.424H82.146z"/>
			</g>
		</g>
		<g>
			
				<ellipse transform="matrix(0.9327 -0.3606 0.3606 0.9327 -56.7516 65.1415)" style="fill:#FFFFFF;stroke:#263238;stroke-linecap:round;stroke-linejoin:round;stroke-miterlimit:10;" cx="146.196" cy="184.659" rx="29.478" ry="29.478"/>
			
				<circle style="fill:#FFFFFF;stroke:#263238;stroke-linecap:round;stroke-linejoin:round;stroke-miterlimit:10;" cx="146.196" cy="184.659" r="24.325"/>
			<g>
				<path style="fill:#FFFFFF;stroke:#263238;stroke-linecap:round;stroke-linejoin:round;stroke-miterlimit:10;" d="
					M146.014,205.027v-3.41c-2.788-0.108-4.865-1.015-6.231-2.72c-1.367-1.705-2.118-4.126-2.253-7.266l5.195-1.015
					c0.054,1.272,0.203,2.395,0.447,3.369c0.243,0.974,0.629,1.725,1.157,2.253c0.528,0.528,1.224,0.792,2.09,0.792
					c0.974,0,1.671-0.29,2.09-0.873c0.419-0.581,0.629-1.319,0.629-2.212c0-1.434-0.332-2.611-0.995-3.531
					c-0.663-0.92-1.522-1.84-2.577-2.76l-4.181-3.653c-0.758-0.676-1.421-1.387-1.989-2.131c-0.568-0.744-1.015-1.583-1.34-2.516
					c-0.325-0.934-0.487-2.023-0.487-3.268c0-2.462,0.704-4.39,2.111-5.784c1.407-1.393,3.301-2.158,5.683-2.294v-3.288h1.745v3.247
					c1.38,0.081,2.516,0.385,3.41,0.913c0.893,0.528,1.603,1.204,2.131,2.029c0.528,0.826,0.92,1.753,1.177,2.781
					c0.257,1.029,0.412,2.097,0.467,3.207l-5.115,0.893c-0.054-1.028-0.162-1.955-0.324-2.78c-0.162-0.825-0.467-1.475-0.913-1.948
					c-0.446-0.473-1.103-0.683-1.969-0.629c-0.92,0.027-1.617,0.325-2.09,0.893c-0.474,0.568-0.71,1.286-0.71,2.151
					c0,1.164,0.257,2.105,0.771,2.821c0.514,0.717,1.15,1.428,1.908,2.131l4.141,3.612c0.866,0.785,1.671,1.638,2.415,2.558
					c0.744,0.92,1.339,1.948,1.786,3.085c0.447,1.137,0.67,2.436,0.67,3.897c0,1.461-0.291,2.767-0.873,3.917
					c-0.582,1.15-1.401,2.077-2.456,2.78c-1.055,0.704-2.314,1.137-3.775,1.299v3.45H146.014z"/>
			</g>
		</g>
		<g>
			
				<ellipse transform="matrix(0.9871 -0.1602 0.1602 0.9871 -17.7237 28.6387)" style="fill:#FFFFFF;stroke:#263238;stroke-linecap:round;stroke-linejoin:round;stroke-miterlimit:10;" cx="168.772" cy="124.252" rx="23.907" ry="23.907"/>
			
				<circle style="fill:#FFFFFF;stroke:#263238;stroke-linecap:round;stroke-linejoin:round;stroke-miterlimit:10;" cx="168.772" cy="124.252" r="19.729"/>
			<g>
				<path style="fill:#FFFFFF;stroke:#263238;stroke-linecap:round;stroke-linejoin:round;stroke-miterlimit:10;" d="
					M168.624,140.771v-2.765c-2.261-0.088-3.945-0.823-5.053-2.206c-1.108-1.383-1.718-3.347-1.827-5.893l4.214-0.823
					c0.044,1.032,0.165,1.942,0.362,2.732c0.197,0.79,0.51,1.399,0.938,1.827c0.428,0.428,0.993,0.642,1.695,0.642
					c0.79,0,1.355-0.236,1.695-0.708c0.34-0.472,0.51-1.07,0.51-1.794c0-1.163-0.269-2.118-0.807-2.864
					c-0.538-0.746-1.235-1.492-2.09-2.239l-3.391-2.963c-0.615-0.549-1.152-1.125-1.613-1.729c-0.461-0.603-0.823-1.284-1.087-2.041
					c-0.263-0.757-0.395-1.641-0.395-2.65c0-1.997,0.571-3.561,1.712-4.691c1.141-1.13,2.678-1.75,4.609-1.86v-2.666h1.416v2.634
					c1.119,0.066,2.041,0.313,2.765,0.741c0.724,0.428,1.3,0.977,1.728,1.646c0.428,0.67,0.746,1.421,0.955,2.255
					c0.208,0.834,0.334,1.701,0.379,2.601l-4.148,0.724c-0.044-0.834-0.132-1.585-0.263-2.255c-0.132-0.669-0.379-1.196-0.741-1.58
					c-0.362-0.384-0.894-0.554-1.597-0.51c-0.746,0.022-1.312,0.263-1.695,0.724c-0.384,0.461-0.576,1.043-0.576,1.745
					c0,0.944,0.208,1.707,0.625,2.288c0.417,0.582,0.933,1.158,1.547,1.729l3.358,2.93c0.702,0.637,1.355,1.328,1.959,2.074
					c0.603,0.746,1.086,1.58,1.448,2.502c0.362,0.922,0.543,1.975,0.543,3.161c0,1.185-0.236,2.244-0.708,3.177
					c-0.472,0.933-1.136,1.685-1.992,2.255c-0.856,0.571-1.877,0.922-3.062,1.053v2.798H168.624z"/>
			</g>
		</g>
		<g>
			
				<circle style="fill:#FFFFFF;stroke:#263238;stroke-linecap:round;stroke-linejoin:round;stroke-miterlimit:10;" cx="213.242" cy="161.55" r="20.348"/>
			
				<circle style="fill:#FFFFFF;stroke:#263238;stroke-linecap:round;stroke-linejoin:round;stroke-miterlimit:10;" cx="213.242" cy="161.55" r="16.791"/>
			<g>
				<path style="fill:#FFFFFF;stroke:#263238;stroke-linecap:round;stroke-linejoin:round;stroke-miterlimit:10;" d="
					M213.116,175.609v-2.354c-1.924-0.075-3.358-0.7-4.301-1.877c-0.943-1.177-1.462-2.848-1.555-5.015l3.586-0.701
					c0.037,0.878,0.14,1.653,0.308,2.326c0.168,0.673,0.434,1.191,0.798,1.555c0.364,0.364,0.845,0.546,1.443,0.546
					c0.673,0,1.153-0.201,1.443-0.602c0.289-0.401,0.434-0.911,0.434-1.527c0-0.99-0.229-1.802-0.686-2.438
					c-0.458-0.635-1.051-1.27-1.779-1.905l-2.886-2.522c-0.523-0.467-0.981-0.957-1.373-1.471c-0.392-0.513-0.701-1.092-0.925-1.737
					c-0.224-0.644-0.336-1.396-0.336-2.256c0-1.7,0.486-3.03,1.457-3.993c0.971-0.962,2.279-1.489,3.923-1.583v-2.27h1.205v2.242
					c0.953,0.056,1.737,0.266,2.354,0.63c0.616,0.364,1.107,0.831,1.471,1.401c0.364,0.57,0.635,1.21,0.813,1.919
					c0.178,0.71,0.285,1.448,0.322,2.214l-3.53,0.616c-0.038-0.71-0.112-1.349-0.224-1.919c-0.112-0.57-0.322-1.018-0.63-1.345
					c-0.308-0.327-0.761-0.471-1.359-0.434c-0.635,0.019-1.116,0.224-1.443,0.617c-0.327,0.392-0.49,0.887-0.49,1.485
					c0,0.803,0.177,1.453,0.532,1.947c0.355,0.495,0.794,0.986,1.317,1.471l2.858,2.493c0.598,0.542,1.153,1.131,1.667,1.765
					c0.514,0.635,0.924,1.345,1.233,2.129c0.308,0.785,0.462,1.681,0.462,2.69s-0.201,1.91-0.602,2.704
					c-0.402,0.794-0.967,1.434-1.695,1.919c-0.729,0.486-1.597,0.785-2.606,0.897v2.382H213.116z"/>
			</g>
		</g>
	</g>
	<g>
		<g>
			
				<circle style="fill:#FFFFFF;stroke:#263238;stroke-linecap:round;stroke-linejoin:round;stroke-miterlimit:10;" cx="682.135" cy="125.973" r="33.432"/>
			
				<ellipse transform="matrix(0.7071 -0.7071 0.7071 0.7071 110.7165 519.2385)" style="fill:#FFFFFF;stroke:#263238;stroke-linecap:round;stroke-linejoin:round;stroke-miterlimit:10;" cx="682.135" cy="125.973" rx="27.588" ry="27.588"/>
			<g>
				<path style="fill:#FFFFFF;stroke:#263238;stroke-linecap:round;stroke-linejoin:round;stroke-miterlimit:10;" d="
					M681.927,149.073v-3.867c-3.161-0.123-5.517-1.151-7.067-3.085c-1.55-1.933-2.402-4.68-2.555-8.24l5.892-1.151
					c0.061,1.443,0.23,2.716,0.507,3.821c0.276,1.105,0.713,1.957,1.312,2.555c0.599,0.599,1.389,0.898,2.371,0.898
					c1.105,0,1.895-0.329,2.371-0.99c0.476-0.659,0.714-1.496,0.714-2.509c0-1.627-0.376-2.962-1.128-4.005
					c-0.752-1.043-1.726-2.087-2.923-3.131l-4.742-4.143c-0.86-0.767-1.611-1.573-2.256-2.417c-0.645-0.843-1.151-1.795-1.519-2.854
					c-0.368-1.059-0.552-2.294-0.552-3.706c0-2.793,0.798-4.979,2.394-6.56c1.596-1.58,3.744-2.447,6.445-2.601v-3.729h1.98v3.683
					c1.565,0.092,2.854,0.437,3.867,1.036c1.013,0.599,1.818,1.366,2.417,2.302c0.598,0.937,1.043,1.988,1.335,3.154
					c0.292,1.167,0.468,2.379,0.53,3.637l-5.801,1.013c-0.062-1.166-0.184-2.217-0.368-3.153c-0.184-0.936-0.53-1.672-1.036-2.21
					c-0.506-0.537-1.251-0.775-2.233-0.714c-1.044,0.031-1.834,0.368-2.371,1.013c-0.537,0.645-0.805,1.458-0.805,2.44
					c0,1.32,0.291,2.387,0.874,3.2c0.583,0.813,1.304,1.619,2.164,2.417l4.696,4.097c0.982,0.891,1.894,1.857,2.739,2.901
					c0.844,1.044,1.519,2.209,2.025,3.498c0.507,1.289,0.76,2.762,0.76,4.42c0,1.657-0.33,3.138-0.99,4.442
					c-0.66,1.305-1.588,2.356-2.785,3.153c-1.197,0.799-2.624,1.289-4.281,1.473v3.913H681.927z"/>
			</g>
		</g>
		<g>
			
				<ellipse transform="matrix(0.9724 -0.2335 0.2335 0.9724 -37.8674 163.0905)" style="fill:#FFFFFF;stroke:#263238;stroke-linecap:round;stroke-linejoin:round;stroke-miterlimit:10;" cx="669.793" cy="241.458" rx="37.799" ry="37.799"/>
			
				<ellipse transform="matrix(0.9725 -0.2329 0.2329 0.9725 -37.8134 162.6046)" style="fill:#FFFFFF;stroke:#263238;stroke-linecap:round;stroke-linejoin:round;stroke-miterlimit:10;" cx="669.793" cy="241.458" rx="31.192" ry="31.192"/>
			<g>
				<path style="fill:#FFFFFF;stroke:#263238;stroke-linecap:round;stroke-linejoin:round;stroke-miterlimit:10;" d="
					M669.558,267.576v-4.372c-3.574-0.139-6.238-1.301-7.99-3.488c-1.753-2.186-2.716-5.291-2.889-9.317l6.662-1.301
					c0.069,1.631,0.26,3.071,0.573,4.32c0.312,1.249,0.806,2.212,1.483,2.889c0.677,0.677,1.57,1.015,2.681,1.015
					c1.249,0,2.142-0.372,2.681-1.119c0.538-0.745,0.807-1.691,0.807-2.836c0-1.839-0.425-3.348-1.275-4.528
					c-0.851-1.179-1.952-2.359-3.305-3.539l-5.361-4.684c-0.972-0.867-1.822-1.778-2.55-2.733c-0.729-0.954-1.301-2.03-1.718-3.227
					c-0.416-1.197-0.625-2.594-0.625-4.19c0-3.157,0.902-5.63,2.706-7.417c1.804-1.787,4.233-2.767,7.287-2.941v-4.216h2.238v4.164
					c1.77,0.104,3.227,0.494,4.372,1.171c1.145,0.677,2.056,1.544,2.732,2.602c0.677,1.059,1.179,2.247,1.509,3.566
					c0.33,1.319,0.529,2.689,0.599,4.112l-6.558,1.145c-0.07-1.318-0.208-2.506-0.416-3.565c-0.208-1.058-0.599-1.891-1.171-2.498
					c-0.573-0.607-1.414-0.876-2.524-0.807c-1.18,0.035-2.074,0.417-2.681,1.145c-0.607,0.729-0.91,1.648-0.91,2.758
					c0,1.493,0.329,2.699,0.989,3.617c0.659,0.92,1.475,1.831,2.446,2.733l5.309,4.632c1.11,1.007,2.142,2.1,3.097,3.279
					c0.954,1.18,1.717,2.498,2.29,3.956c0.573,1.458,0.859,3.123,0.859,4.997s-0.374,3.548-1.119,5.023
					c-0.747,1.475-1.796,2.664-3.149,3.565c-1.354,0.903-2.967,1.457-4.841,1.666v4.424H669.558z"/>
			</g>
		</g>
		<g>
			
				<ellipse transform="matrix(0.7071 -0.7071 0.7071 0.7071 46.9126 482.5752)" style="fill:#FFFFFF;stroke:#263238;stroke-linecap:round;stroke-linejoin:round;stroke-miterlimit:10;" cx="605.976" cy="184.659" rx="29.478" ry="29.478"/>
			
				<circle style="fill:#FFFFFF;stroke:#263238;stroke-linecap:round;stroke-linejoin:round;stroke-miterlimit:10;" cx="605.976" cy="184.659" r="24.325"/>
			<g>
				<path style="fill:#FFFFFF;stroke:#263238;stroke-linecap:round;stroke-linejoin:round;stroke-miterlimit:10;" d="
					M605.794,205.027v-3.41c-2.788-0.108-4.865-1.015-6.231-2.72c-1.367-1.705-2.118-4.126-2.253-7.266l5.195-1.015
					c0.054,1.272,0.203,2.395,0.447,3.369c0.243,0.974,0.629,1.725,1.156,2.253c0.528,0.528,1.224,0.792,2.09,0.792
					c0.974,0,1.671-0.29,2.091-0.873c0.419-0.581,0.629-1.319,0.629-2.212c0-1.434-0.332-2.611-0.995-3.531
					c-0.664-0.92-1.522-1.84-2.577-2.76l-4.181-3.653c-0.758-0.676-1.421-1.387-1.989-2.131c-0.568-0.744-1.015-1.583-1.34-2.516
					c-0.324-0.934-0.487-2.023-0.487-3.268c0-2.462,0.703-4.39,2.111-5.784c1.407-1.393,3.301-2.158,5.683-2.294v-3.288h1.745v3.247
					c1.38,0.081,2.516,0.385,3.41,0.913c0.893,0.528,1.603,1.204,2.131,2.029c0.528,0.826,0.92,1.753,1.177,2.781
					c0.257,1.029,0.412,2.097,0.467,3.207l-5.115,0.893c-0.054-1.028-0.162-1.955-0.325-2.78c-0.162-0.825-0.467-1.475-0.913-1.948
					c-0.446-0.473-1.103-0.683-1.969-0.629c-0.92,0.027-1.617,0.325-2.091,0.893c-0.474,0.568-0.71,1.286-0.71,2.151
					c0,1.164,0.257,2.105,0.771,2.821c0.514,0.717,1.15,1.428,1.908,2.131l4.141,3.612c0.866,0.785,1.67,1.638,2.415,2.558
					c0.744,0.92,1.339,1.948,1.786,3.085c0.447,1.137,0.67,2.436,0.67,3.897c0,1.461-0.291,2.767-0.873,3.917
					c-0.582,1.15-1.401,2.077-2.456,2.78c-1.055,0.704-2.314,1.137-3.775,1.299v3.45H605.794z"/>
			</g>
		</g>
		<g>
			
				<ellipse transform="matrix(0.7407 -0.6719 0.6719 0.7407 67.8068 424.1816)" style="fill:#FFFFFF;stroke:#263238;stroke-linecap:round;stroke-linejoin:round;stroke-miterlimit:10;" cx="583.401" cy="124.252" rx="23.907" ry="23.907"/>
			
				<circle style="fill:#FFFFFF;stroke:#263238;stroke-linecap:round;stroke-linejoin:round;stroke-miterlimit:10;" cx="583.401" cy="124.252" r="19.728"/>
			<g>
				<path style="fill:#FFFFFF;stroke:#263238;stroke-linecap:round;stroke-linejoin:round;stroke-miterlimit:10;" d="
					M583.253,140.771v-2.765c-2.261-0.088-3.945-0.823-5.053-2.206c-1.109-1.383-1.718-3.347-1.827-5.893l4.214-0.823
					c0.044,1.032,0.165,1.942,0.362,2.732c0.197,0.79,0.51,1.399,0.938,1.827c0.428,0.428,0.993,0.642,1.695,0.642
					c0.79,0,1.355-0.236,1.695-0.708c0.34-0.472,0.51-1.07,0.51-1.794c0-1.163-0.269-2.118-0.807-2.864
					c-0.538-0.746-1.234-1.492-2.09-2.239l-3.391-2.963c-0.615-0.549-1.152-1.125-1.613-1.729c-0.461-0.603-0.823-1.284-1.086-2.041
					c-0.263-0.757-0.395-1.641-0.395-2.65c0-1.997,0.571-3.561,1.712-4.691c1.141-1.13,2.678-1.75,4.609-1.86v-2.666h1.416v2.634
					c1.119,0.066,2.041,0.313,2.765,0.741c0.724,0.428,1.3,0.977,1.728,1.646c0.428,0.67,0.746,1.421,0.955,2.255
					c0.208,0.834,0.334,1.701,0.379,2.601l-4.148,0.724c-0.044-0.834-0.132-1.585-0.263-2.255c-0.132-0.669-0.379-1.196-0.741-1.58
					c-0.362-0.384-0.894-0.554-1.597-0.51c-0.746,0.022-1.312,0.263-1.695,0.724c-0.384,0.461-0.576,1.043-0.576,1.745
					c0,0.944,0.208,1.707,0.625,2.288c0.417,0.582,0.933,1.158,1.547,1.729l3.358,2.93c0.702,0.637,1.355,1.328,1.959,2.074
					c0.603,0.746,1.086,1.58,1.448,2.502c0.362,0.922,0.543,1.975,0.543,3.161c0,1.185-0.236,2.244-0.708,3.177
					c-0.472,0.933-1.136,1.685-1.992,2.255c-0.856,0.571-1.876,0.922-3.062,1.053v2.798H583.253z"/>
			</g>
		</g>
		<g>
			
				<circle style="fill:#FFFFFF;stroke:#263238;stroke-linecap:round;stroke-linejoin:round;stroke-miterlimit:10;" cx="538.931" cy="161.55" r="20.348"/>
			
				<circle style="fill:#FFFFFF;stroke:#263238;stroke-linecap:round;stroke-linejoin:round;stroke-miterlimit:10;" cx="538.931" cy="161.55" r="16.791"/>
			<g>
				<path style="fill:#FFFFFF;stroke:#263238;stroke-linecap:round;stroke-linejoin:round;stroke-miterlimit:10;" d="
					M538.805,175.609v-2.354c-1.924-0.075-3.358-0.7-4.301-1.877c-0.943-1.177-1.462-2.848-1.555-5.015l3.586-0.701
					c0.037,0.878,0.14,1.653,0.308,2.326c0.168,0.673,0.434,1.191,0.798,1.555c0.364,0.364,0.845,0.546,1.443,0.546
					c0.672,0,1.153-0.201,1.443-0.602c0.289-0.401,0.434-0.911,0.434-1.527c0-0.99-0.229-1.802-0.686-2.438
					c-0.458-0.635-1.051-1.27-1.779-1.905l-2.886-2.522c-0.523-0.467-0.981-0.957-1.373-1.471c-0.392-0.513-0.7-1.092-0.925-1.737
					c-0.224-0.644-0.336-1.396-0.336-2.256c0-1.7,0.486-3.03,1.457-3.993c0.971-0.962,2.279-1.489,3.923-1.583v-2.27h1.205v2.242
					c0.953,0.056,1.737,0.266,2.354,0.63c0.616,0.364,1.107,0.831,1.471,1.401c0.364,0.57,0.635,1.21,0.813,1.919
					c0.177,0.71,0.285,1.448,0.322,2.214l-3.531,0.616c-0.037-0.71-0.112-1.349-0.224-1.919c-0.112-0.57-0.322-1.018-0.63-1.345
					c-0.308-0.327-0.761-0.471-1.359-0.434c-0.635,0.019-1.116,0.224-1.443,0.617c-0.327,0.392-0.49,0.887-0.49,1.485
					c0,0.803,0.177,1.453,0.532,1.947c0.355,0.495,0.794,0.986,1.317,1.471l2.858,2.493c0.597,0.542,1.153,1.131,1.667,1.765
					c0.514,0.635,0.925,1.345,1.233,2.129c0.308,0.785,0.463,1.681,0.463,2.69s-0.201,1.91-0.602,2.704
					c-0.402,0.794-0.967,1.434-1.695,1.919c-0.729,0.486-1.597,0.785-2.606,0.897v2.382H538.805z"/>
			</g>
		</g>
	</g>
</g>
<g id="Device">
	<g>
		<g>
			<path style="fill:#FFFFFF;stroke:#263238;stroke-linecap:round;stroke-linejoin:round;stroke-miterlimit:10;" d="M415.524,344.41
				l-2.714-29.178h-56.123l-2.714,29.178c-0.653,7.018-4.76,13.249-10.951,16.617l-18.883,10.27h121.22l-18.883-10.27
				C420.283,357.659,416.177,351.428,415.524,344.41z"/>
			<polygon style="fill:#263238;stroke:#263238;stroke-linecap:round;stroke-linejoin:round;stroke-miterlimit:10;" points="
				414.407,332.405 412.81,315.232 356.687,315.232 355.089,332.405 			"/>
			
				<rect x="324.138" y="371.296" style="fill:#263238;stroke:#263238;stroke-linecap:round;stroke-linejoin:round;stroke-miterlimit:10;" width="121.155" height="5.466"/>
		</g>
		<g>
			<path style="fill:#263238;stroke:#263238;stroke-linecap:round;stroke-linejoin:round;stroke-miterlimit:10;" d="M548.15,318.129
				H221.346c-6.438,0-11.658-5.219-11.658-11.658v-229.5c0-4.27,3.462-7.732,7.732-7.732h334.655c4.27,0,7.732,3.462,7.732,7.732
				v229.5C559.808,312.909,554.589,318.129,548.15,318.129z"/>
			
				<rect x="219.78" y="80.05" style="fill:#FFFFFF;stroke:#263238;stroke-linecap:round;stroke-linejoin:round;stroke-miterlimit:10;" width="330.34" height="199.39"/>
			<g>
				<polyline style="fill:#FFFFFF;stroke:#263238;stroke-linecap:round;stroke-linejoin:round;stroke-miterlimit:10;" points="
					291.731,114.101 329.035,114.101 329.035,164.655 236.99,164.655 236.99,114.101 284.846,114.101 				"/>
				<polyline style="fill:#FFFFFF;stroke:#263238;stroke-linecap:round;stroke-linejoin:round;stroke-miterlimit:10;" points="
					365.746,164.655 336.751,164.655 336.751,114.101 428.796,114.101 428.796,164.655 370.48,164.655 				"/>
				<polyline style="fill:#FFFFFF;stroke:#263238;stroke-linecap:round;stroke-linejoin:round;stroke-miterlimit:10;" points="
					528.558,131.097 528.558,164.655 436.513,164.655 436.513,114.101 528.558,114.101 528.558,123.781 				"/>
				
					<line style="fill:none;stroke:#263238;stroke-linecap:round;stroke-linejoin:round;stroke-miterlimit:10;" x1="238.165" y1="186.993" x2="325.753" y2="186.993"/>
				
					<line style="fill:none;stroke:#263238;stroke-linecap:round;stroke-linejoin:round;stroke-miterlimit:10;" x1="238.165" y1="199.338" x2="325.753" y2="199.338"/>
				
					<line style="fill:none;stroke:#263238;stroke-linecap:round;stroke-linejoin:round;stroke-miterlimit:10;" x1="238.165" y1="211.682" x2="325.753" y2="211.682"/>
				
					<line style="fill:none;stroke:#263238;stroke-linecap:round;stroke-linejoin:round;stroke-miterlimit:10;" x1="238.165" y1="224.027" x2="325.753" y2="224.027"/>
				
					<line style="fill:none;stroke:#263238;stroke-linecap:round;stroke-linejoin:round;stroke-miterlimit:10;" x1="238.165" y1="236.372" x2="325.753" y2="236.372"/>
				
					<line style="fill:none;stroke:#263238;stroke-linecap:round;stroke-linejoin:round;stroke-miterlimit:10;" x1="238.165" y1="248.716" x2="325.753" y2="248.716"/>
				
					<line style="fill:none;stroke:#263238;stroke-linecap:round;stroke-linejoin:round;stroke-miterlimit:10;" x1="238.165" y1="261.061" x2="325.753" y2="261.061"/>
				<g>
					<polyline style="fill:none;stroke:#263238;stroke-linecap:round;stroke-linejoin:round;stroke-miterlimit:10;" points="
						401.032,186.99 428.04,186.99 428.04,262.24 335.16,262.24 335.16,186.99 394.578,186.99 					"/>
					<polygon style="fill:#FFFFFF;stroke:#263238;stroke-linecap:round;stroke-linejoin:round;stroke-miterlimit:10;" points="
						428.04,227.77 428.04,262.24 335.16,262.24 359.85,232.84 381.01,239.31 402.76,211.68 					"/>
					
						<ellipse transform="matrix(0.7664 -0.6424 0.6424 0.7664 -50.6096 277.1506)" style="fill:#FFFFFF;stroke:#263238;stroke-linecap:round;stroke-linejoin:round;stroke-miterlimit:10;" cx="355.733" cy="208.155" rx="9.993" ry="9.993"/>
				</g>
				<g>
					<path style="fill:#FFFFFF;stroke:#263238;stroke-linecap:round;stroke-linejoin:round;stroke-miterlimit:10;" d="
						M466.943,263.118h-24.906c-4.648,0-8.415-3.768-8.415-8.415v-4.919c0-4.648,3.768-8.416,8.415-8.416h24.906
						c4.648,0,8.416,3.768,8.416,8.416v4.919C475.359,259.351,471.591,263.118,466.943,263.118z"/>
					
						<line style="fill:none;stroke:#263238;stroke-linecap:round;stroke-linejoin:round;stroke-miterlimit:10;" x1="441.558" y1="252.243" x2="466.247" y2="252.243"/>
				</g>
				
					<rect x="438.031" y="187.581" style="fill:#FFFFFF;stroke:#263238;stroke-linecap:round;stroke-linejoin:round;stroke-miterlimit:10;" width="89.939" height="11.757"/>
				
					<rect x="438.031" y="208.156" style="fill:#FFFFFF;stroke:#263238;stroke-linecap:round;stroke-linejoin:round;stroke-miterlimit:10;" width="89.939" height="11.757"/>
			</g>
			
				<rect x="543.254" y="80.047" style="fill:#D1D1D1;stroke:#263238;stroke-linecap:round;stroke-linejoin:round;stroke-miterlimit:10;" width="6.866" height="199.392"/>
			
				<rect x="219.776" y="80.047" style="fill:#92E3A9;stroke:#263238;stroke-linecap:round;stroke-linejoin:round;stroke-miterlimit:10;" width="330.344" height="19.358"/>
			
				<rect x="237.577" y="86.473" style="fill:#FFFFFF;stroke:#263238;stroke-linecap:round;stroke-linejoin:round;stroke-miterlimit:10;" width="221.028" height="7.054"/>
			<path style="fill:#FFFFFF;stroke:#263238;stroke-linecap:round;stroke-linejoin:round;stroke-miterlimit:10;" d="M209.688,289
				v17.471c0,6.439,5.219,11.658,11.658,11.658H548.15c6.438,0,11.658-5.219,11.658-11.658V289H209.688z"/>
		</g>
	</g>
</g>
<g id="Cart">
	<g>
		<path style="fill:#FFFFFF;stroke:#263238;stroke-linecap:round;stroke-linejoin:round;stroke-miterlimit:10;" d="M653.765,76.064
			h-55.961c-2.441,0-4.421-1.979-4.421-4.42V43.207c0-2.441,1.979-4.421,4.421-4.421h55.961c2.441,0,4.421,1.979,4.421,4.421v28.436
			C658.186,74.085,656.206,76.064,653.765,76.064z"/>
		<g>
			<g>
				<polyline style="fill:none;stroke:#263238;stroke-linecap:round;stroke-linejoin:round;stroke-miterlimit:10;" points="
					607.143,43.272 613.354,43.272 619.217,61.295 636.924,57.929 637.077,48.328 615.284,48.024 				"/>
				<path style="fill:none;stroke:#263238;stroke-linecap:round;stroke-linejoin:round;stroke-miterlimit:10;" d="M619.217,61.295
					c0,0-1.494,0.14-1.646,1.511c-0.152,1.372,1.372,2.286,1.981,2.286c0.61,0,2.438-0.152,2.438-0.152l14.935-2.591"/>
				
					<circle style="fill:#263238;stroke:#263238;stroke-linecap:round;stroke-linejoin:round;stroke-miterlimit:10;" cx="634.639" cy="67.378" r="2.133"/>
				<path style="fill:#263238;stroke:#263238;stroke-linecap:round;stroke-linejoin:round;stroke-miterlimit:10;" d="
					M622.752,67.378c0-1.178-0.955-2.133-2.133-2.133s-2.134,0.955-2.134,2.133s0.955,2.133,2.134,2.133
					S622.752,68.556,622.752,67.378z"/>
			</g>
		</g>
	</g>
</g>
<g id="Chat">
	<g>
		<path style="fill:#263238;stroke:#263238;stroke-linecap:round;stroke-linejoin:round;stroke-miterlimit:10;" d="M395.147,81.041
			h-35.873c-3.326,0-6.022,2.696-6.022,6.022v17.156c0,3.326,2.696,6.022,6.022,6.022h33.292l8.604,10.834v-16.856V87.063
			C401.169,83.738,398.473,81.041,395.147,81.041z"/>
		<path style="fill:#FFFFFF;stroke:#263238;stroke-linecap:round;stroke-linejoin:round;stroke-miterlimit:10;" d="M397.404,78.107
			h-35.873c-3.326,0-6.022,2.696-6.022,6.022v17.156c0,3.326,2.696,6.022,6.022,6.022h33.292l8.604,10.834v-16.856V84.129
			C403.426,80.803,400.73,78.107,397.404,78.107z"/>
		<path style="fill:#263238;stroke:#263238;stroke-linecap:round;stroke-linejoin:round;stroke-miterlimit:10;" d="M348.109,101.36
			h23.742c2.201,0,3.986,1.784,3.986,3.985v11.354c0,2.201-1.784,3.985-3.986,3.985h-22.033l-5.694,7.17v-11.156v-11.354
			C344.123,103.144,345.908,101.36,348.109,101.36z"/>
		<path style="fill:#FFFFFF;stroke:#263238;stroke-linecap:round;stroke-linejoin:round;stroke-miterlimit:10;" d="M349.963,99.167
			h23.742c2.201,0,3.986,1.784,3.986,3.986v11.354c0,2.201-1.784,3.986-3.986,3.986h-22.033l-5.694,7.17v-11.156v-11.354
			C345.977,100.952,347.762,99.167,349.963,99.167z"/>
		
			<line style="fill:none;stroke:#263238;stroke-linecap:round;stroke-linejoin:round;stroke-miterlimit:10;" x1="364.055" y1="86.363" x2="394.517" y2="86.363"/>
		
			<line style="fill:none;stroke:#263238;stroke-linecap:round;stroke-linejoin:round;stroke-miterlimit:10;" x1="364.055" y1="92.756" x2="394.517" y2="92.756"/>
		
			<line style="fill:none;stroke:#263238;stroke-linecap:round;stroke-linejoin:round;stroke-miterlimit:10;" x1="364.055" y1="99.149" x2="394.517" y2="99.149"/>
		
			<line style="fill:none;stroke:#263238;stroke-linecap:round;stroke-linejoin:round;stroke-miterlimit:10;" x1="350.892" y1="106.671" x2="373.739" y2="106.671"/>
		
			<line style="fill:none;stroke:#263238;stroke-linecap:round;stroke-linejoin:round;stroke-miterlimit:10;" x1="350.892" y1="111.936" x2="373.739" y2="111.936"/>
	</g>
</g>
<g id="Clicks">
	<g>
		<g>
			<path style="fill:#263238;stroke:#263238;stroke-linecap:round;stroke-linejoin:round;stroke-miterlimit:10;" d="
				M480.779,160.866l-6.382-3.368c-1.417-0.748-3.171-0.194-3.902,1.231l0,0c-0.662,1.292-0.259,2.874,0.942,3.691l13.075,8.895
				c0,0,6.966,2.861,13.932-0.497c0.174-0.084,0.343-0.17,0.507-0.257c4.193-2.234,5.97-7.324,4.289-11.768l-3.369-8.904
				c-0.898-2.372-3.494-3.651-5.908-2.871c-0.04,0.013-0.081,0.026-0.122,0.04c0,0-2.861-1.866-5.847-0.373
				c0,0-2.985-1.617-5.598,0.498l-4.411-10.741c-0.717-1.745-2.736-2.551-4.457-1.778h0c-1.644,0.738-2.406,2.647-1.722,4.314
				L480.779,160.866z"/>
			<path style="fill:#FFFFFF;stroke:#263238;stroke-linecap:round;stroke-linejoin:round;stroke-miterlimit:10;" d="
				M481.554,158.023l-6.382-3.368c-1.417-0.748-3.171-0.194-3.902,1.231l0,0c-0.662,1.292-0.259,2.874,0.941,3.691l13.075,8.895
				c0,0,6.966,2.861,13.932-0.498c0.174-0.084,0.343-0.17,0.507-0.257c4.193-2.234,5.97-7.324,4.289-11.768l-3.369-8.904
				c-0.898-2.372-3.494-3.651-5.908-2.871c-0.04,0.013-0.081,0.026-0.122,0.04c0,0-2.861-1.866-5.846-0.373
				c0,0-2.985-1.617-5.598,0.497l-4.411-10.741c-0.717-1.745-2.736-2.551-4.458-1.778l0,0c-1.644,0.738-2.406,2.647-1.722,4.314
				L481.554,158.023z"/>
			
				<line style="fill:none;stroke:#263238;stroke-linecap:round;stroke-linejoin:round;stroke-miterlimit:10;" x1="494.615" y1="144.215" x2="497.041" y2="149.546"/>
			
				<line style="fill:none;stroke:#263238;stroke-linecap:round;stroke-linejoin:round;stroke-miterlimit:10;" x1="488.674" y1="144.215" x2="491.609" y2="150.904"/>
			
				<line style="fill:none;stroke:#263238;stroke-linecap:round;stroke-linejoin:round;stroke-miterlimit:10;" x1="483.243" y1="144.554" x2="486.856" y2="152.601"/>
		</g>
		
			<line style="fill:none;stroke:#263238;stroke-linecap:round;stroke-linejoin:round;stroke-miterlimit:10;" x1="460.373" y1="129.552" x2="468.484" y2="132.593"/>
		
			<line style="fill:none;stroke:#263238;stroke-linecap:round;stroke-linejoin:round;stroke-miterlimit:10;" x1="470.512" y1="121.103" x2="473.215" y2="127.186"/>
		
			<line style="fill:none;stroke:#263238;stroke-linecap:round;stroke-linejoin:round;stroke-miterlimit:10;" x1="478.622" y1="127.862" x2="482.339" y2="121.779"/>
		
			<line style="fill:none;stroke:#263238;stroke-linecap:round;stroke-linejoin:round;stroke-miterlimit:10;" x1="463.753" y1="140.366" x2="469.16" y2="137.662"/>
		
			<line style="fill:none;stroke:#263238;stroke-linecap:round;stroke-linejoin:round;stroke-miterlimit:10;" x1="482.677" y1="132.255" x2="488.084" y2="129.552"/>
	</g>
	<g>
		<g>
			<path style="fill:#263238;stroke:#263238;stroke-linecap:round;stroke-linejoin:round;stroke-miterlimit:10;" d="M372.98,278.087
				l6.382-3.368c1.417-0.748,3.171-0.194,3.902,1.231l0,0c0.662,1.292,0.259,2.874-0.942,3.691l-13.075,8.895
				c0,0-6.966,2.861-13.932-0.498c-0.174-0.084-0.343-0.17-0.507-0.257c-4.193-2.234-5.97-7.324-4.289-11.768l3.369-8.904
				c0.898-2.372,3.494-3.651,5.908-2.871c0.04,0.013,0.081,0.026,0.122,0.04c0,0,2.861-1.866,5.846-0.373
				c0,0,2.986-1.617,5.598,0.498l4.411-10.741c0.717-1.745,2.736-2.551,4.458-1.778l0,0c1.644,0.738,2.406,2.647,1.722,4.314
				L372.98,278.087z"/>
			<path style="fill:#FFFFFF;stroke:#263238;stroke-linecap:round;stroke-linejoin:round;stroke-miterlimit:10;" d="
				M372.205,275.244l6.382-3.368c1.417-0.748,3.171-0.194,3.902,1.231v0c0.662,1.292,0.259,2.874-0.942,3.691l-13.075,8.895
				c0,0-6.966,2.861-13.932-0.498c-0.174-0.084-0.343-0.17-0.507-0.257c-4.193-2.234-5.971-7.324-4.289-11.767l3.369-8.904
				c0.897-2.372,3.494-3.651,5.908-2.871c0.04,0.013,0.081,0.026,0.122,0.04c0,0,2.861-1.866,5.846-0.373
				c0,0,2.985-1.617,5.598,0.498l4.411-10.741c0.717-1.745,2.736-2.551,4.457-1.778l0,0c1.644,0.738,2.406,2.647,1.722,4.314
				L372.205,275.244z"/>
			
				<line style="fill:none;stroke:#263238;stroke-linecap:round;stroke-linejoin:round;stroke-miterlimit:10;" x1="359.144" y1="261.436" x2="356.718" y2="266.767"/>
			
				<line style="fill:none;stroke:#263238;stroke-linecap:round;stroke-linejoin:round;stroke-miterlimit:10;" x1="365.085" y1="261.436" x2="362.15" y2="268.125"/>
			
				<line style="fill:none;stroke:#263238;stroke-linecap:round;stroke-linejoin:round;stroke-miterlimit:10;" x1="370.516" y1="261.776" x2="366.902" y2="269.822"/>
		</g>
		
			<line style="fill:none;stroke:#263238;stroke-linecap:round;stroke-linejoin:round;stroke-miterlimit:10;" x1="393.385" y1="246.773" x2="385.275" y2="249.814"/>
		
			<line style="fill:none;stroke:#263238;stroke-linecap:round;stroke-linejoin:round;stroke-miterlimit:10;" x1="383.247" y1="238.325" x2="380.544" y2="244.408"/>
		
			<line style="fill:none;stroke:#263238;stroke-linecap:round;stroke-linejoin:round;stroke-miterlimit:10;" x1="375.137" y1="245.083" x2="371.42" y2="239.001"/>
		
			<line style="fill:none;stroke:#263238;stroke-linecap:round;stroke-linejoin:round;stroke-miterlimit:10;" x1="390.006" y1="257.587" x2="384.599" y2="254.883"/>
		
			<line style="fill:none;stroke:#263238;stroke-linecap:round;stroke-linejoin:round;stroke-miterlimit:10;" x1="371.082" y1="249.477" x2="365.675" y2="246.773"/>
	</g>
	<g>
		<g>
			<path style="fill:#263238;stroke:#263238;stroke-linecap:round;stroke-linejoin:round;stroke-miterlimit:10;" d="
				M252.968,140.538l6.382-3.368c1.417-0.748,3.171-0.194,3.902,1.231l0,0c0.662,1.292,0.259,2.874-0.942,3.691l-13.075,8.895
				c0,0-6.966,2.861-13.932-0.498c-0.174-0.084-0.343-0.17-0.507-0.257c-4.193-2.234-5.971-7.324-4.289-11.768l3.369-8.904
				c0.898-2.372,3.494-3.651,5.908-2.871c0.04,0.013,0.081,0.027,0.122,0.04c0,0,2.861-1.866,5.846-0.373
				c0,0,2.986-1.617,5.598,0.498l4.411-10.741c0.717-1.745,2.736-2.551,4.458-1.778l0,0c1.644,0.738,2.406,2.647,1.722,4.314
				L252.968,140.538z"/>
			<path style="fill:#FFFFFF;stroke:#263238;stroke-linecap:round;stroke-linejoin:round;stroke-miterlimit:10;" d="
				M252.193,137.695l6.382-3.368c1.417-0.748,3.171-0.194,3.902,1.231l0,0c0.662,1.292,0.259,2.874-0.942,3.691l-13.075,8.895
				c0,0-6.966,2.861-13.932-0.498c-0.174-0.084-0.343-0.17-0.507-0.257c-4.193-2.234-5.971-7.324-4.289-11.768l3.369-8.904
				c0.897-2.372,3.494-3.651,5.908-2.871c0.04,0.013,0.081,0.026,0.122,0.04c0,0,2.861-1.866,5.846-0.373
				c0,0,2.985-1.617,5.598,0.498l4.411-10.741c0.717-1.745,2.736-2.551,4.457-1.778l0,0c1.644,0.738,2.406,2.647,1.722,4.314
				L252.193,137.695z"/>
			
				<line style="fill:none;stroke:#263238;stroke-linecap:round;stroke-linejoin:round;stroke-miterlimit:10;" x1="239.131" y1="123.887" x2="236.706" y2="129.218"/>
			
				<line style="fill:none;stroke:#263238;stroke-linecap:round;stroke-linejoin:round;stroke-miterlimit:10;" x1="245.072" y1="123.887" x2="242.138" y2="130.576"/>
			
				<line style="fill:none;stroke:#263238;stroke-linecap:round;stroke-linejoin:round;stroke-miterlimit:10;" x1="250.504" y1="124.227" x2="246.89" y2="132.273"/>
		</g>
		
			<line style="fill:none;stroke:#263238;stroke-linecap:round;stroke-linejoin:round;stroke-miterlimit:10;" x1="273.373" y1="109.224" x2="265.263" y2="112.266"/>
		
			<line style="fill:none;stroke:#263238;stroke-linecap:round;stroke-linejoin:round;stroke-miterlimit:10;" x1="263.235" y1="100.776" x2="260.532" y2="106.859"/>
		
			<line style="fill:none;stroke:#263238;stroke-linecap:round;stroke-linejoin:round;stroke-miterlimit:10;" x1="255.125" y1="107.535" x2="251.408" y2="101.452"/>
		
			<line style="fill:none;stroke:#263238;stroke-linecap:round;stroke-linejoin:round;stroke-miterlimit:10;" x1="269.994" y1="120.038" x2="264.587" y2="117.335"/>
		
			<line style="fill:none;stroke:#263238;stroke-linecap:round;stroke-linejoin:round;stroke-miterlimit:10;" x1="251.07" y1="111.928" x2="245.663" y2="109.224"/>
	</g>
</g>
<g id="Clocks">
	<g>
		<g>
			<g>
				<path style="fill:none;stroke:#263238;stroke-linecap:round;stroke-linejoin:round;" d="M124.947,89.103
					c0.656,0.091,1.32,0.157,1.99,0.197"/>
				<path style="fill:none;stroke:#263238;stroke-linecap:round;stroke-linejoin:round;stroke-dasharray:4.0136,4.0136;" d="
					M130.949,89.233c13.071-1.229,23.3-12.233,23.3-25.626c0-5.668-1.832-10.908-4.936-15.161"/>
				<path style="fill:none;stroke:#263238;stroke-linecap:round;stroke-linejoin:round;" d="M148.068,46.873
					c-0.434-0.506-0.887-0.996-1.358-1.467"/>
			</g>
		</g>
		<g>
			<g>
				<path style="fill:none;stroke:#263238;stroke-width:2;stroke-linecap:round;stroke-linejoin:round;" d="M142.347,41.899
					c-3.996-2.553-8.744-4.032-13.838-4.032c-14.216,0-25.74,11.524-25.74,25.74c0,13.007,9.648,23.761,22.179,25.496"/>
				<g>
					<polygon style="fill:#263238;" points="143.746,38.215 146.71,45.406 139,44.379 					"/>
				</g>
			</g>
		</g>
		<polyline style="fill:none;stroke:#263238;stroke-linecap:round;stroke-linejoin:round;stroke-miterlimit:10;" points="
			128.509,47.203 128.509,63.607 143.637,63.607 		"/>
	</g>
	<g>
		<g>
			<g>
				<path style="fill:none;stroke:#263238;stroke-linecap:round;stroke-linejoin:round;" d="M664.223,337.931
					c0.656,0.091,1.32,0.152,1.993,0.184"/>
				<path style="fill:none;stroke:#263238;stroke-linecap:round;stroke-linejoin:round;stroke-dasharray:3.9077,3.9077;" d="
					M670.119,337.956c10.785-1.4,19.114-10.62,19.114-21.787c0-4.647-1.443-8.957-3.904-12.506"/>
				<path style="fill:none;stroke:#263238;stroke-linecap:round;stroke-linejoin:round;" d="M684.146,302.109
					c-0.427-0.512-0.877-1.005-1.348-1.476"/>
			</g>
		</g>
		<g>
			<g>
				<path style="fill:none;stroke:#263238;stroke-width:2;stroke-linecap:round;stroke-linejoin:round;" d="M678.37,297.209
					c-3.259-1.913-7.055-3.01-11.107-3.01c-12.134,0-21.971,9.837-21.971,21.97c0,11.103,8.235,20.282,18.93,21.762"/>
				<g>
					<polygon style="fill:#263238;" points="679.705,293.498 682.798,300.634 675.071,299.746 					"/>
				</g>
			</g>
		</g>
		<polyline style="fill:none;stroke:#263238;stroke-linecap:round;stroke-linejoin:round;stroke-miterlimit:10;" points="
			667.263,302.167 667.263,316.169 680.175,316.169 		"/>
	</g>
</g>
<g id="Traffic_Light">
	<g>
		
			<rect x="72.256" y="292.057" style="fill:#FFFFFF;stroke:#263238;stroke-linecap:round;stroke-linejoin:round;stroke-miterlimit:10;" width="22.898" height="52.342"/>
		
			<circle style="fill:#FFFFFF;stroke:#263238;stroke-linecap:round;stroke-linejoin:round;stroke-miterlimit:10;" cx="83.86" cy="300.644" r="6.938"/>
		
			<circle style="fill:#FFFFFF;stroke:#263238;stroke-linecap:round;stroke-linejoin:round;stroke-miterlimit:10;" cx="83.86" cy="316.631" r="6.938"/>
		
			<circle style="fill:#92E3A9;stroke:#263238;stroke-linecap:round;stroke-linejoin:round;stroke-miterlimit:10;" cx="83.86" cy="332.619" r="6.938"/>
	</g>
</g>
<g id="Characters_4">
	<g>
		<g>
			<path style="fill:#92E3A9;stroke:#263238;stroke-linecap:round;stroke-linejoin:round;stroke-miterlimit:10;" d="
				M576.114,282.439l-10.408,4.789c0,0,3.247,19.332,4.506,24.039c1.259,4.707,1.022,9.226,1.022,9.226l-5.585,23.912
				c0,0,9.712,3.47,23.893,2.341c14.181-1.13,19.948-3.389,19.948-3.389s-2.865-11.943-4.531-16.086
				c-1.666-4.142-3.559-7.471-3.609-10.168c-0.145-7.873,12.332-21.785,8.557-28.696c-1.161-2.125-9.158-5.404-9.158-5.404
				S593.664,278.108,576.114,282.439z"/>
			<path style="fill:#263238;stroke:#263238;stroke-linecap:round;stroke-linejoin:round;stroke-miterlimit:10;" d="
				M565.775,343.034c-0.803,4.2-1.08,8.484-0.821,12.752c0.295,4.869,0.734,11.85,1.22,18.711
				c0.878,12.407,3.855,30.932,5.287,39.26c1.432,8.328,5.652,33.311,5.652,33.311s-3.494,2.21-4.514,3.399
				c-1.02,1.19-5.608,4.249-5.608,4.759c0,0.51,0.68,0.34,1.36,0.68c0.68,0.34,10.877,1.19,12.747,1.19
				c1.87,0,3.909-0.17,4.759-1.36c0.85-1.19-0.17-8.158-0.17-8.158s-0.261-18.355,0.079-24.474s1.017-19.545,1.071-20.565
				c0.054-1.02,1.216-40.11,1.216-40.11l3.757-0.34c0,0,1.539,39.43,2.112,41.469c0.573,2.04,2.983,44.868,2.983,44.868
				s0.34,6.628,0.85,7.138c0.51,0.51,3.909,0.85,5.609,0.34c1.7-0.51,2.379-0.68,2.379-2.379c0-1.7-0.68-4.759-0.68-4.759
				s0-2.549,0-4.079c0-1.53,3.886-36.711,4.636-41.299c0.751-4.589,0.252-13.087,0.333-14.616c0.08-1.53,1.538-25.569,1.743-32.707
				c0.205-7.138-1.697-15.182-3.397-18.411c-1.7-3.229-24.983-4.211-41.264-1.684C567.111,335.972,566.699,338.204,565.775,343.034z
				"/>
		</g>
		<path style="fill:#FFFFFF;stroke:#263238;stroke-linecap:round;stroke-linejoin:round;stroke-miterlimit:10;" d="M632.85,320.8
			c0,0.462-4.793,3.928-9.988,7.552c-6.128,4.292-12.826,8.799-12.826,8.799c-1.365,0.982-4.085-0.982-5.293-2.396
			c-1.218-1.414-4.252-5.863-4.252-5.863s0,0-1.414,0c-1.414,0-2.229,0-3.035-1.218c-0.805-1.208,0.206-1.414,2.828-1.414
			c2.632,0,2.838-1.011,4.252-0.206c1.414,0.815,5.254,4.449,5.254,4.449s0.079,0.157,0.197,0.383l7.424-7.533l3.909-3.968
			l-14.8-13.72c1.895-4.842,4.321-11.402,4.802-17.255C609.909,288.412,632.85,319.799,632.85,320.8z"/>
		<path style="fill:#FFFFFF;stroke:#263238;stroke-linecap:round;stroke-linejoin:round;stroke-miterlimit:10;" d="M595.882,267.019
			c0,0,1.158-7.72-5.234-11.485c-6.392-3.766-10.227-2.448-13.497,2.448c0,0-1.446,2.448-2.249,3.389
			c-0.802,0.941-3.022,0.188-2.923,1.883c0.099,1.695,1.903,3.201,1.903,3.201s-0.306,9.414,1.736,9.979
			c2.042,0.565,6.025,0,6.025,0l-0.258,4.924c-1.255,0.206-2.57,0.457-3.962,0.774l0.251,0.063c0,0,6.883,2.024,11.741,1.619
			c2.867-0.239,5.092-1.533,6.441-2.556c-0.968-0.2-2.093-0.37-3.374-0.478l0.233-0.016c0,0-0.585-3.201,0.108-5.649
			C593.514,272.668,595.882,267.019,595.882,267.019z"/>
		<path style="fill:#263238;stroke:#263238;stroke-linecap:round;stroke-linejoin:round;stroke-miterlimit:10;" d="M585.038,247.626
			c0,0-4.411-5.649-9.138-5.272c-4.727,0.377-8.442,10.167-5.944,12.803c2.498,2.636,7.195,2.824,7.195,2.824
			s2.915,9.038,5.234,11.485c2.319,2.448,4.163,6.778,8.375,5.46c4.211-1.318,10.652-9.226,10.7-17.322
			C601.508,249.509,599.248,242.354,585.038,247.626z"/>
		<path style="fill:#263238;stroke:#263238;stroke-linecap:round;stroke-linejoin:round;stroke-miterlimit:10;" d="M600.716,253.839
			c0,0,6.212-10.732,14.021-8.849c7.809,1.883,9.307,9.226,7.266,12.239c-2.041,3.013-5.331,4.707-5.331,4.707
			s5.838,7.155,2.786,11.486c-3.052,4.33-7.937,4.142-7.937,4.142l3.875,1.506c0,0-1.526,3.954-7.016,0.941
			c-5.491-3.013-7.097-8.285-5.809-14.875C603.858,258.546,600.716,253.839,600.716,253.839z"/>
		<path style="fill:#92E3A9;stroke:#263238;stroke-linecap:round;stroke-linejoin:round;stroke-miterlimit:10;" d="M567.35,286.509
			l-1.644,0.719c0,0-2.04,7.784-2.04,11.542c0,3.758-2.505,27.557-2.255,29.561c0.228,1.82,2.314,25.537,2.696,29.879
			c-0.285,1.795-1.069,6.887-0.946,7.747c0.15,1.047,3.013,8.542,3.013,8.542s2.972,0.584,3.57,0.435
			c0.598-0.15,1.795-0.299,1.496-1.347c-0.299-1.047-0.598-1.496-0.898-2.095c-0.299-0.598,0.598-3.74,0.449-6.134
			s-1.197-7.032-1.197-7.032l-0.15-4.638l-0.228,0.169l2.967-26.278c0,0,2.505-18.037,2.756-21.294
			c0.183-2.376-0.034-5.418-0.165-6.89"/>
		<path style="fill:#FFFFFF;stroke:#263238;stroke-linecap:round;stroke-linejoin:round;stroke-miterlimit:10;" d="M569.738,329.323
			c-3.814,0.191-6.589-0.752-8.342-1.659c-0.006,0.306-0.002,0.535,0.015,0.666c0.228,1.82,2.314,25.537,2.696,29.879
			c-0.285,1.795-1.069,6.887-0.946,7.747c0.15,1.047,3.013,8.542,3.013,8.542s2.972,0.584,3.57,0.435
			c0.598-0.15,1.795-0.299,1.496-1.347c-0.299-1.047-0.598-1.496-0.898-2.095c-0.299-0.598,0.598-3.74,0.449-6.134
			s-1.197-7.032-1.197-7.032l-0.15-4.638l-0.228,0.169l2.787-24.68C571.296,329.232,570.546,329.282,569.738,329.323z"/>
		<path style="fill:#92E3A9;stroke:#263238;stroke-linecap:round;stroke-linejoin:round;stroke-miterlimit:10;" d="M632.85,320.8
			c0,0.462-4.793,3.928-9.988,7.552c-4.331-1.395-6.138-3.378-6.865-4.999l3.909-3.968l-14.8-13.72
			c1.895-4.842,4.321-11.402,4.802-17.255C609.909,288.412,632.85,319.799,632.85,320.8z"/>
	</g>
</g>
<g id="Characters_3">
	<g>
		<g>
			<path style="fill:#FFFFFF;stroke:#263238;stroke-linecap:round;stroke-linejoin:round;stroke-miterlimit:10;" d="
				M493.855,248.803c0,0-0.748,1.589-1.877,2.914c-1.129,1.324-2.587,1.456-2.103,2.251c0.483,0.795,2.637,2.385,2.637,2.385
				s-0.933,7.286,0.093,7.816c1.025,0.53,5.934,2.387,5.934,2.387l-0.046,5.564l13.928-1.452l0.757-6.491
				c0,0,3.467-4.476,3.845-7.007c0.378-2.53,3.039-5.311-0.916-10.082C512.151,242.318,500.13,237.942,493.855,248.803z"/>
			<path style="fill:#263238;stroke:#263238;stroke-linecap:round;stroke-linejoin:round;stroke-miterlimit:10;" d="
				M499.663,255.826c0,0-1.313,4.636,0.51,7.419c1.823,2.783,4.885,4.638,7.684,4.11c2.799-0.529,6.236-3.045,7.783-7.151
				c1.547-4.106,1.812-6.491,1.812-6.491S509.45,257.684,499.663,255.826z"/>
			<path style="fill:#FFFFFF;stroke:#263238;stroke-linecap:round;stroke-linejoin:round;stroke-miterlimit:10;" d="
				M496.067,251.718c0,0-6.973-5.037-8.724-6.759c-1.75-1.723,1.05-8.163,9.709-6.281c3.103,0.674,4.315,3.107,4.315,3.107
				L496.067,251.718z"/>
			<path style="fill:#FFFFFF;stroke:#263238;stroke-linecap:round;stroke-linejoin:round;stroke-miterlimit:10;" d="
				M500.859,238.678c0,0-4.616,4.62-5.303,8.268c-0.687,3.648,2.525,11.19,8.686,13.625c6.16,2.435,11.435-0.969,12.781-3.401
				c1.346-2.432,4.656-5.35,3.986-10.701C520.337,241.117,509.43,232.6,500.859,238.678z"/>
		</g>
		<g>
			<polygon style="fill:#263238;stroke:#263238;stroke-linecap:round;stroke-linejoin:round;stroke-miterlimit:10;" points="
				455.921,296.767 462.91,313.989 471.673,310.548 464.354,293.639 			"/>
			<path style="fill:#FFFFFF;stroke:#263238;stroke-linecap:round;stroke-linejoin:round;stroke-miterlimit:10;" d="
				M471.597,314.635c0,0-1.647-3.931-1.621-4.4c0.026-0.47-0.57-3.757-0.691-4.384s-3.073-0.784-4.112-1.724
				c-1.039-0.94-2.026-0.001-2.104,1.408c-0.078,1.409,2.06,2.192,2.83,2.349c0.771,0.157-0.078,1.409-0.078,1.409l-3.489,1.095
				c0,0-2.016-2.975-2.284-3.758c-0.268-0.783-0.459-0.157-0.996,1.095c-0.537,1.252-2.027,2.817-1.447,3.6
				c0.58,0.783,1.445,2.036,1.445,2.036s0.12,3.444,1.003,4.384c0.883,0.94,4.112,1.724,4.882,1.88
				c0.77,0.157,3.298,0.97,3.298,0.97L471.597,314.635z"/>
		</g>
		<g>
			<g>
				<path style="fill:#FFFFFF;stroke:#263238;stroke-linecap:round;stroke-linejoin:round;stroke-miterlimit:10;" d="
					M484.747,441.579l-3.335,3.912c0,0-3.993,4.538-5.724,4.851c-1.732,0.313-2.996,0.625-3.368,1.721
					c-0.373,1.096-0.59,2.191,0.164,2.661c0.753,0.47,6.519,0.472,9.765,0.943c3.246,0.471,13.509,0.469,15.111-0.313
					c1.602-0.782,0.286-10.326,0.286-10.326L484.747,441.579z"/>
				<path style="fill:#FFFFFF;stroke:#263238;stroke-linecap:round;stroke-linejoin:round;stroke-miterlimit:10;" d="
					M472.483,454.724c0.753,0.47,6.519,0.472,9.765,0.943c3.246,0.471,13.509,0.469,15.111-0.313
					c0.382-0.187,0.653-0.938,0.845-1.969c-1.746,0.237-12.646,0.337-17.02-0.238c-8.354-1.099-8.865-1.084-8.865-1.084
					C471.947,453.159,471.73,454.254,472.483,454.724z"/>
			</g>
			<g>
				<path style="fill:#FFFFFF;stroke:#263238;stroke-linecap:round;stroke-linejoin:round;stroke-miterlimit:10;" d="
					M517.654,443.924c0,0-0.289,10.801-0.004,11.271c0.286,0.47,5.003,2.507,8.008,1.725c3.004-0.782,8.834-0.908,9.189-1.69
					c0.355-0.783,1.196-4.696-0.595-6.105c-1.792-1.41-4.166-4.57-4.166-4.57L517.654,443.924z"/>
				<path style="fill:#FFFFFF;stroke:#263238;stroke-linecap:round;stroke-linejoin:round;stroke-miterlimit:10;" d="
					M534.847,455.23c0.142-0.313,0.36-1.13,0.458-2.084c-2.846,1.761-6.185,1.646-9.699,1.896c-3.783,0.269-6.466-0.551-8.067-1.295
					c0.018,0.802,0.052,1.351,0.111,1.449c0.286,0.47,5.003,2.507,8.008,1.725C528.662,456.138,534.492,456.013,534.847,455.23z"/>
			</g>
			<path style="fill:#FFFFFF;stroke:#263238;stroke-linecap:round;stroke-linejoin:round;stroke-miterlimit:10;" d="
				M483.959,333.408c0,0-5.858,15.652-5.34,20.349c0.518,4.697,2.299,11.898,2.576,12.524c0.277,0.626-0.522,31.465,1.682,42.267
				c2.204,10.802,2.096,28.961,2.096,28.961s-1.672,2.034-1.265,3.13c0.406,1.096,0.596,3.288,0.596,3.288s3.41,3.132,6.345,3.603
				c2.935,0.471,4.199,0.158,5.022-0.624c0.823-0.782,1.793-1.408,1.975-1.878c0.182-0.469,0.391-4.227,0.53-6.731
				c0.139-2.505-0.474-5.479-0.474-5.479l4.913-45.709l2.009-24.577l8.147,57.141c0,0,4.512,25.347,4.485,25.816
				c-0.026,0.47,0.562,1.096,1.783,1.566c1.221,0.47,4.199,0.158,5.307-0.155c1.108-0.313,5.351-0.937,5.741-2.346
				c0.39-1.409,2.183-5.62,1.499-7.342c-0.683-1.722-3.817-4.228-3.383-6.419c0.434-2.191,2.054-6.104,1.571-11.427
				c-0.483-5.323-2.447-67.158-2.447-67.158l-4.279-18.317L483.959,333.408z"/>
			<path style="fill:none;stroke:#263238;stroke-linecap:round;stroke-linejoin:round;stroke-miterlimit:10;" d="M482.775,398.92
				c0,0,3.995,2.943,5.677,3.574c1.682,0.631,6.728,1.262,6.728,1.262l-1.051,4.415c0,0,0.841,0.631-3.574-0.21
				c-4.415-0.841-7.148-3.154-7.148-3.154"/>
			<path style="fill:none;stroke:#263238;stroke-linecap:round;stroke-linejoin:round;stroke-miterlimit:10;" d="M488.681,423.321
				c-0.913-0.145-1.859-0.486-2.753-1.064"/>
			<path style="fill:none;stroke:#263238;stroke-linecap:round;stroke-linejoin:round;stroke-miterlimit:10;" d="M493.287,410.063
				c0,0,0.21,7.569,0.421,10.302c0.079,1.025-0.493,1.872-1.426,2.41"/>
			<path style="fill:#FFFFFF;stroke:#263238;stroke-linecap:round;stroke-linejoin:round;stroke-miterlimit:10;" d="M529.028,399.13
				l-3.364,2.523l0.21,3.154c0,0,2.523-1.472,2.943-2.313C529.238,401.653,529.869,400.812,529.028,399.13z"/>
			<path style="fill:#FFFFFF;stroke:#263238;stroke-linecap:round;stroke-linejoin:round;stroke-miterlimit:10;" d="
				M528.817,402.494c0,0,2.313,10.512,1.892,12.614c-0.421,2.102-2.943,3.995-2.943,3.995l-1.472-9.461"/>
			
				<line style="fill:none;stroke:#263238;stroke-linecap:round;stroke-linejoin:round;stroke-miterlimit:10;" x1="510.013" y1="360.635" x2="512.069" y2="360.343"/>
			
				<line style="fill:none;stroke:#263238;stroke-linecap:round;stroke-linejoin:round;stroke-miterlimit:10;" x1="498.875" y1="362.217" x2="508.011" y2="360.919"/>
		</g>
		<path style="fill:#92E3A9;stroke:#263238;stroke-linecap:round;stroke-linejoin:round;stroke-miterlimit:10;" d="M489.353,279.933
			c0,0-8.368,3.441-8.42,4.369c-0.052,0.927-4.341,32.985-4.341,32.985l-4.996-2.651c0,0-1.553-0.531-2.594,1.589
			c-1.041,2.119-1.012,3.974-0.771,4.371c0.242,0.398,0.49,3.047,3.376,5.698c2.886,2.651,8.643,5.832,8.643,5.832l2.894,0.134
			c0,0-1.781,1.192-0.147,2.649c1.633,1.458,7.56,3.977,19.7,3.849c12.14-0.128,19.775-2.245,20.501-3.437
			c0.726-1.192,1.048-2.252,1.07-2.649c0.022-0.398,0.61-6.226,0.61-6.226s8.961-2.249,10.698-5.03
			c1.737-2.781,2.529-2.781,1.768-5.696s-9.895-30.738-10.73-32.328c-0.835-1.59-4.636-4.373-6.189-4.904
			c-1.553-0.53-28.002,0.785-28.002,0.785L489.353,279.933z"/>
		<g>
			<path style="fill:#92E3A9;stroke:#263238;stroke-linecap:round;stroke-linejoin:round;stroke-miterlimit:10;" d="
				M517.505,269.345c0,0-11.29-0.931-17.415,0.126c-6.125,1.058-7.504,4.502-8.09,5.561c-0.586,1.06-3.533,4.238-2.646,4.901
				c0.886,0.663,6.952,3.049,7.325,3.447c0.374,0.397,9.696,12.986,15.448,11.531c5.752-1.455,9.281-17.483,9.281-17.483
				S520.457,270.803,517.505,269.345z"/>
			<path style="fill:none;stroke:#263238;stroke-linecap:round;stroke-linejoin:round;stroke-miterlimit:10;" d="M507.092,286.758
				c1.305,0.764,2.759,1.182,4.378,0.999"/>
			<path style="fill:none;stroke:#263238;stroke-linecap:round;stroke-linejoin:round;stroke-miterlimit:10;" d="M492.74,275.96
				c0,0,4.528-0.793,6.864,2.255c1.266,1.652,2.931,4.511,5.12,6.678"/>
		</g>
		<g>
			<path style="fill:#999999;stroke:#263238;stroke-linecap:round;stroke-linejoin:round;stroke-miterlimit:10;" d="
				M507.212,290.802c0,0-8.012,32.586-7.492,35.103c0.519,2.517,1.419,7.684,6.327,9.54c4.908,1.856,10.924,0.401,17.151-0.126
				c6.228-0.528,9.944-5.693,10.539-9.269c0.595-3.577,1.183-9.405,0.985-10.598c-0.197-1.192-4.527-25.304-6.401-27.16
				C526.445,286.437,512.48,288.552,507.212,290.802z"/>
			<path style="fill:#263238;stroke:#263238;stroke-linecap:round;stroke-linejoin:round;stroke-miterlimit:10;" d="
				M518.422,288.422l2.986-10.994c0,0,1.135,0.928,2.674,1.723c1.538,0.795,1.538,0.795,1.538,0.795l-1.211,7.551L518.422,288.422z"
				/>
			<path style="fill:none;stroke:#263238;stroke-linecap:round;stroke-linejoin:round;stroke-miterlimit:10;" d="M508.332,291.995
				c0,0-0.341,10.863-1.295,16.161c-0.954,5.299,1.411,7.816,5.99,8.481c4.579,0.664,18.742-2.643,19.629-4.365
				c0.887-1.722-1.511-15.5-2.375-18.945c-0.863-3.445-0.372-5.167-1.962-5.035s-2.388,0.264-2.388,0.264"/>
			<path style="fill:none;stroke:#263238;stroke-linecap:round;stroke-linejoin:round;stroke-miterlimit:10;" d="M507.15,332.461
				c0.763,1.284,1.926,2.254,3.527,2.722"/>
			<path style="fill:none;stroke:#263238;stroke-linecap:round;stroke-linejoin:round;stroke-miterlimit:10;" d="M507.057,314.912
				c0,0-1.308,11.657-0.935,14.439"/>
			<path style="fill:none;stroke:#263238;stroke-linecap:round;stroke-linejoin:round;stroke-miterlimit:10;" d="M506.85,321.006
				c0,0,1.795,0.928,9.48,0.268c7.686-0.66,16.999-4.498,17.482-3.703c0.483,0.795,0.248,2.65-0.441,3.179
				c-0.689,0.53-0.748,1.589-9.262,2.911c-8.514,1.322-11.965,1.718-15.225,1.054"/>
		</g>
		<path style="fill:none;stroke:#263238;stroke-linecap:round;stroke-linejoin:round;stroke-miterlimit:10;" d="M483.145,332.258
			c0,0,3.732-0.884,4.565-4.641c0.832-3.757,4.39-28.489,4.39-28.489"/>
	</g>
</g>
<g id="Characters_2">
	<g>
		<g>
			<path style="fill:#FFFFFF;stroke:#263238;stroke-linecap:round;stroke-linejoin:round;stroke-miterlimit:10;" d="
				M242.619,296.475c0,0-5.961,21.427-6.605,23.521c-0.644,2.094-0.805,6.766,1.45,8.055c2.255,1.289,4.189,0.806,5.639-0.322
				c1.45-1.128,4.028-3.866,4.028-3.866l-1.289-24.166L242.619,296.475z"/>
			
				<line style="fill:#FFFFFF;stroke:#263238;stroke-linecap:round;stroke-linejoin:round;stroke-miterlimit:10;" x1="245.841" y1="316.291" x2="241.975" y2="325.796"/>
		</g>
		<polygon style="fill:#FFFFFF;stroke:#263238;stroke-linecap:round;stroke-linejoin:round;stroke-miterlimit:10;" points="
			251.963,290.192 242.619,296.475 246.324,328.051 279.029,328.051 281.284,294.219 270.974,290.353 		"/>
		<path style="fill:#FFFFFF;stroke:#263238;stroke-linecap:round;stroke-linejoin:round;stroke-miterlimit:10;" d="M274.034,256.843
			c0,0,0.967,1.772,1.45,3.866c0.483,2.094,0.161,4.511,1.128,5.8c0.967,1.289,2.417,1.45,1.611,2.417
			c-0.806,0.967-1.772,2.417-1.772,2.417s-0.805,3.544-1.611,5.639c-0.806,2.094-2.094,3.383-3.544,3.383c-1.45,0-2.578,0-2.578,0
			l0.322,6.283l-15.144,0.322l0.161-8.7c0,0,7.894-5.155,11.116-12.727c3.222-7.572,2.739-9.022,4.35-9.827
			C271.135,254.91,274.034,256.843,274.034,256.843z"/>
		<path style="fill:#263238;stroke:#263238;stroke-linecap:round;stroke-linejoin:round;stroke-miterlimit:10;" d="M248.58,253.137
			c0,0-3.061,3.061-6.605,8.055c-3.544,4.994-1.933,15.144,7.894,19.172c9.827,4.028,16.594-1.45,17.238-4.028
			c0.645-2.578,0.806-4.994,0.806-4.994s4.833-0.161,5.639-4.511c0.805-4.35-0.645-8.216-0.645-8.216s4.672-2.739,1.772-8.055
			C271.779,245.243,253.574,239.927,248.58,253.137z"/>
		<polygon style="fill:#92E3A9;stroke:#263238;stroke-linecap:round;stroke-linejoin:round;stroke-miterlimit:10;" points="
			270.168,283.747 251.319,284.392 250.835,290.192 270.974,290.353 		"/>
		<polygon style="fill:#92E3A9;stroke:#263238;stroke-linecap:round;stroke-linejoin:round;stroke-miterlimit:10;" points="
			251.963,290.192 250.191,318.707 257.763,319.996 256.796,290.353 		"/>
		<polygon style="fill:#FFFFFF;stroke:#263238;stroke-linecap:round;stroke-linejoin:round;stroke-miterlimit:10;" points="
			244.874,394.427 245.68,447.592 251.802,447.592 260.502,394.427 		"/>
		<path style="fill:#FFFFFF;stroke:#263238;stroke-linecap:round;stroke-linejoin:round;stroke-miterlimit:10;" d="M263.885,394.588
			l2.739,52.52h7.089c0,0,5.316-32.865,5.639-38.826c0.322-5.961,0.483-13.372,0.483-13.372L263.885,394.588z"/>
		<path style="fill:#FFFFFF;stroke:#263238;stroke-linecap:round;stroke-linejoin:round;stroke-miterlimit:10;" d="M273.712,447.108
			l3.544,5.478c0,0,5.961,3.544,5.316,4.028c-0.645,0.483-1.611,0.483-1.611,0.483h-15.305l0.967-9.989H273.712z"/>
		<path style="fill:#FFFFFF;stroke:#263238;stroke-linecap:round;stroke-linejoin:round;stroke-miterlimit:10;" d="M251.802,447.592
			v9.344h-8.378c0,0,0.161-2.739,0.645-4.672c0.483-1.933,1.611-4.672,1.611-4.672H251.802z"/>
		<path style="fill:#263238;stroke:#263238;stroke-linecap:round;stroke-linejoin:round;stroke-miterlimit:10;" d="M246.324,328.051
			c0,0-7.089,12.083-8.377,23.521c-1.289,11.439,4.833,45.271,4.833,45.271h39.632c0,0,7.25-24.81,4.833-42.854
			c-2.417-18.044-8.216-25.938-8.216-25.938H246.324z"/>
		<path style="fill:#FFFFFF;stroke:#263238;stroke-linecap:round;stroke-linejoin:round;stroke-miterlimit:10;" d="M283.056,307.108
			c0,0,0.967-1.611,1.933-1.45c0.967,0.161,0.645,1.289,0.645,1.772c0,0.483,0,0.483,0,0.483s2.417,3.383,1.933,5.639
			c-0.483,2.255-3.705,4.028-3.705,4.028L283.056,307.108z"/>
		
			<line style="fill:none;stroke:#263238;stroke-linecap:round;stroke-linejoin:round;stroke-miterlimit:10;" x1="286.117" y1="329.501" x2="287.406" y2="340.94"/>
		<path style="fill:#FFFFFF;stroke:#263238;stroke-linecap:round;stroke-linejoin:round;stroke-miterlimit:10;" d="M281.284,294.219
			c0,0,4.35,29.643,4.833,32.221s-0.483,9.505-3.222,9.827s-3.222-2.094-4.994-5.478c-1.772-3.383-4.028-22.555-4.028-22.555"/>
		<path style="fill:none;stroke:#263238;stroke-linecap:round;stroke-linejoin:round;stroke-miterlimit:10;" d="M274.034,291.642
			c0,0-2.417,1.45-2.9,13.05c-0.483,11.599,2.417,37.699,2.417,37.699"/>
		<g>
			<path style="fill:#92E3A9;stroke:#263238;stroke-linecap:round;stroke-linejoin:round;stroke-miterlimit:10;" d="
				M291.434,340.457l-21.105,1.289c0,0-1.933,22.071-0.322,23.521c1.611,1.45,7.089,1.772,7.089,1.772s17.399,0.322,19.01-4.672
				C297.717,357.372,291.434,340.457,291.434,340.457z"/>
			<path style="fill:none;stroke:#263238;stroke-linecap:round;stroke-linejoin:round;stroke-miterlimit:10;" d="M274.196,344.645
				c0,0-0.967,19.494,0.967,20.944"/>
		</g>
	</g>
</g>
<g id="Character_1">
	<g>
		<g>
			<path style="fill:#FFFFFF;stroke:#263238;stroke-linecap:round;stroke-linejoin:round;stroke-miterlimit:10;" d="
				M185.589,245.032c0,0-1.512-3.574-5.635-3.849c-4.124-0.275-15.257-0.275-18.144,8.247c-2.886,8.522-0.275,14.02,1.924,17.319
				c2.199,3.299,3.711,5.086,3.711,5.086l0.687,3.986l16.769-0.275l0.137-2.337c0,0,2.474,0.275,3.574-1.512
				c1.1-1.787,1.1-10.171,1.1-10.171s1.924-0.55,2.062-1.787c0.137-1.237-2.199-2.474-2.749-5.91
				C188.476,250.392,188.751,248.468,185.589,245.032z"/>
			<path style="fill:#263238;stroke:#263238;stroke-linecap:round;stroke-linejoin:round;stroke-miterlimit:10;" d="
				M182.566,243.657c1.924,0.687,3.024,1.374,3.024,1.374s-1.512-3.574-5.635-3.849c-4.124-0.275-15.257-0.275-18.144,8.247
				c-2.886,8.522-0.275,14.02,1.924,17.319c2.199,3.299,3.711,5.086,3.711,5.086l0.003,0.015c1.316-0.002,3.657-0.066,6.183-0.427
				c3.849-0.55,7.285-6.048,7.285-6.048s-2.474-1.924-3.299-3.436c-0.825-1.512-0.55-4.536,0.962-5.361
				c1.512-0.825,2.337,2.612,3.024,2.337c0.687-0.275-0.275-2.612-0.687-4.124c-0.412-1.512,1.512-1.924,2.337-3.574
				c0.825-1.649-5.636-4.536-6.323-5.223C176.243,245.307,180.641,242.97,182.566,243.657z"/>
			<path style="fill:#FFFFFF;stroke:#263238;stroke-linecap:round;stroke-linejoin:round;stroke-miterlimit:10;" d="
				M188.476,252.729c0,0-1.237-1.237-2.337,0.825"/>
			<path style="fill:#FFFFFF;stroke:#263238;stroke-linecap:round;stroke-linejoin:round;stroke-miterlimit:10;" d="
				M188.064,254.928c0,0,0.137,1.512,0.275,2.337"/>
		</g>
		<path style="fill:#92E3A9;stroke:#263238;stroke-linecap:round;stroke-linejoin:round;stroke-miterlimit:10;" d="M188.201,278.982
			c0,0-2.612-4.536-4.536-5.086c-1.924-0.55-17.319-0.137-19.381,1.512c-2.062,1.649-2.474,4.673-2.474,4.673
			s7.422-2.474,15.67-2.062C185.727,278.432,188.201,278.982,188.201,278.982z"/>
		<g>
			<path style="fill:#FFFFFF;stroke:#263238;stroke-linecap:round;stroke-linejoin:round;stroke-miterlimit:10;" d="
				M148.442,357.677l2.517,3.416c0,0,0,7.371-0.18,8.27c-0.18,0.899,2.697,1.618,2.157,2.337c-0.539,0.719-4.315,2.697-5.573,3.236
				c-1.258,0.539-3.236-4.135-3.955-5.753c-0.719-1.618-1.079-10.967-1.079-10.967L148.442,357.677z"/>
			<path style="fill:none;stroke:#263238;stroke-linecap:round;stroke-linejoin:round;stroke-miterlimit:10;" d="M148.262,361.812
				c0,0-0.359,4.315-0.539,4.854c-0.18,0.539-0.899,2.337-0.899,2.337l1.798,2.697"/>
		</g>
		<path style="fill:#92E3A9;stroke:#263238;stroke-linecap:round;stroke-linejoin:round;stroke-miterlimit:10;" d="M146.278,287.916
			c0,0-5.747,35.602-5.747,46.029s1.798,24.271,1.798,24.271l6.113-0.539l4.135-21.754L146.278,287.916z"/>
		<path style="fill:#92E3A9;stroke:#263238;stroke-linecap:round;stroke-linejoin:round;stroke-miterlimit:10;" d="M161.81,280.082
			c0,0-15.257,7.147-15.532,7.835c-0.275,0.687,6.323,55.805,6.323,55.805l48.245-1.1l-2.611-33.401c0,0,17.731,4.948,18.831,3.986
			c1.1-0.962,9.072-35.325,9.072-35.325l-6.048-1.512l-9.622,18.144c0,0-10.446-13.058-11.546-13.333
			c-1.1-0.275-11.683-2.474-11.683-2.474S168.958,275.408,161.81,280.082z"/>
		
			<line style="fill:none;stroke:#263238;stroke-linecap:round;stroke-linejoin:round;stroke-miterlimit:10;" x1="210.468" y1="294.514" x2="215.966" y2="300.287"/>
		<path style="fill:#FFFFFF;stroke:#263238;stroke-linecap:round;stroke-linejoin:round;stroke-miterlimit:10;" d="M220.09,276.371
			c0,0,3.849-8.385,4.123-8.934c0.275-0.55,5.223-6.46,5.773-5.086c0.55,1.375-3.161,6.048-3.161,6.048s5.086,1.237,5.361,2.474
			c0.275,1.237-0.412,3.436-1.1,4.124c-0.687,0.687-1.512-0.137-1.512-0.137s-0.275,2.474-3.436,3.024L220.09,276.371z"/>
		
			<line style="fill:none;stroke:#263238;stroke-linecap:round;stroke-linejoin:round;stroke-miterlimit:10;" x1="198.235" y1="309.221" x2="191.589" y2="307.338"/>
		<polygon style="fill:#263238;stroke:#263238;stroke-linecap:round;stroke-linejoin:round;stroke-miterlimit:10;" points="
			152.601,343.722 149.7,367.565 144.307,445.591 152.756,445.591 173.431,363.79 176.488,364.149 185.117,443.433 194.466,443.433 
			201.477,354.801 200.846,342.622 		"/>
		<polygon style="fill:#FFFFFF;stroke:#263238;stroke-linecap:round;stroke-linejoin:round;stroke-miterlimit:10;" points="
			194.466,443.433 206.511,453.861 206.511,455.479 183.14,455.479 185.117,443.433 		"/>
		<polygon style="fill:#FFFFFF;stroke:#263238;stroke-linecap:round;stroke-linejoin:round;stroke-miterlimit:10;" points="
			153.475,443.793 144.307,443.793 141.43,457.097 152.397,457.097 		"/>
	</g>
</g>
</svg>
