<svg width="69" height="69" viewBox="0 0 69 69" fill="none" xmlns="http://www.w3.org/2000/svg">
<g id="fi_3976631" clip-path="url(#clip0_363_622)">
<g id="Group">
<path id="Vector" d="M59.1214 33.8164C57.7888 37.0336 57.7049 41.011 59.0376 44.2282L60.1844 46.4746H10.6847C10.6847 46.4746 1.46886 41.2965 10.6847 32.0806L59.7569 31.0693L59.1214 33.8164Z" fill="#F1F2F2"/>
<path id="Vector_2" d="M60.1845 46.475H10.685C10.685 46.475 1.46941 41.2965 10.685 32.0809L59.7575 31.0692L59.1212 33.8169C58.8267 34.5299 58.5923 35.2793 58.422 36.0496H13.5052C11.7651 36.0496 10.3501 37.4646 10.3501 39.2033C10.3501 40.9434 11.7651 42.3584 13.5052 42.3584H58.4388C58.5895 43.0017 58.7891 43.6283 59.0374 44.2283L60.1845 46.475Z" fill="#DEE1E1"/>
<path id="Vector_3" d="M59.435 48.5763L14.1888 48.505C8.76819 48.505 4.11296 45.0471 4.11296 39.6264C4.11296 38.4291 3.90448 36.8592 4.29702 35.7984C5.68145 32.0562 9.28172 29.3887 13.5052 29.3887H59.9234C61.1461 29.3887 62.1373 30.3799 62.1373 31.6026C62.1373 32.8253 61.1461 33.8164 59.9234 33.8164H24.7929L21.362 34.6218L18.3783 33.8164H13.5051C10.5298 33.8164 8.11791 36.2283 8.11791 39.2036C8.11791 42.1788 10.5298 44.5907 13.5051 44.5907H59.9233C61.146 44.5907 62.1372 45.5819 62.1372 46.8046C62.1372 46.8928 62.132 46.9798 62.122 47.0653C61.993 48.1652 60.5695 48.5763 59.435 48.5763Z" fill="#B7E546"/>
<path id="Vector_4" d="M62.1214 47.0653C62.0614 47.5718 61.8311 48.0267 61.4893 48.37C61.0874 48.7705 60.5348 49.0189 59.9235 49.0189L36.9911 50.3933L13.5052 49.0189C8.08386 49.0189 3.68958 44.6246 3.68958 39.2033C3.68958 37.7897 3.9882 36.4459 4.52685 35.2318V37.2496C4.52685 42.671 8.92113 47.0653 14.3425 47.0653H62.1214Z" fill="#ABD641"/>
<path id="Vector_5" d="M24.7927 40.2705V33.8164H20.1925L18.5591 33.9804L18.6572 39.9914C18.6572 40.188 18.8549 40.323 19.038 40.2513L20.1924 39.9691L21.4837 39.4635C21.5492 39.4379 21.6219 39.4379 21.6872 39.4635L24.4119 40.5305C24.595 40.6021 24.7927 40.4671 24.7927 40.2705Z" fill="#EF5227"/>
<path id="Vector_6" d="M20.1925 33.8169V39.9694L18.7593 40.5304C18.5765 40.6016 18.3784 40.4676 18.3784 40.2709V33.8169H20.1925Z" fill="#D83724"/>
<path id="Vector_7" d="M52.759 23.7528V26.8996L52.6195 28.295C52.6195 28.835 52.1813 29.2718 51.6427 29.2718L14.4524 29.1323C13.9124 29.1323 13.4756 28.6955 13.4756 28.1555L13.1965 23.7528L32.2881 22.8405L52.759 23.7528Z" fill="#FDCD08"/>
<path id="Vector_8" d="M64.2174 23.9738C63.6392 23.9738 63.1708 23.5052 63.1708 22.9272V12.0709C63.1708 11.4929 63.6392 11.0243 64.2174 11.0243C64.7955 11.0243 65.264 11.4929 65.264 12.0709V22.9271C65.264 23.5052 64.7954 23.9738 64.2174 23.9738Z" fill="#77777F"/>
<path id="Vector_9" d="M62.3468 26.3797C61.4732 28.533 60.5942 30.6576 59.7205 32.811C59.1983 34.0982 60.1364 35.5087 61.5146 35.5087L63.13 35.6483H67.0595C68.4378 35.6483 69.3758 34.2377 68.8536 32.9504L67.0319 28.4596L65.886 26.3795L62.3468 26.3797Z" fill="#FDCD08"/>
<path id="Vector_10" d="M63.7534 29.2535C64.9015 29.358 66.1058 29.0566 67.0317 28.4599L66.0521 26.0117L64.4332 26.4957L64.4334 26.4952L62.323 26.2136C62.0565 26.8709 61.669 27.8042 61.4024 28.4614L61.4026 28.4616C60.7956 29.9579 60.1884 31.4543 59.5814 32.9506C59.0595 34.2386 59.9972 35.648 61.3745 35.648H63.6073C62.2299 35.648 61.2922 34.2386 61.8141 32.9506C62.2678 31.8331 62.721 30.7158 63.1744 29.5983C63.2683 29.3664 63.5043 29.2308 63.7534 29.2535Z" fill="#FAAB18"/>
<path id="Vector_11" d="M67.4386 23.928C67.4386 22.5019 66.5291 21.2903 65.2637 20.8518C64.9356 20.7381 64.4588 20.9404 64.0926 20.9404C62.3135 20.9404 61.2185 22.1323 61.2185 23.9281C61.2185 25.7239 62.5495 26.8013 64.3286 26.8013C64.6949 26.8013 64.9356 27.1178 65.2637 27.0042C66.5291 26.5657 67.4386 25.354 67.4386 23.928Z" fill="#FDCD08"/>
<path id="Vector_12" d="M65.2637 27.0043C64.9357 27.1187 64.5827 27.1801 64.2171 27.1801C62.4379 27.1801 60.9964 25.7233 60.9964 23.9273C60.9964 22.1328 62.4379 20.6759 64.2171 20.6759C64.5827 20.6759 64.9357 20.7373 65.2637 20.8517C63.998 21.2899 63.0895 22.5026 63.0895 23.9273C63.0895 25.3535 63.998 26.5661 65.2637 27.0043Z" fill="#FAAB18"/>
<path id="Vector_13" d="M64.4751 13.1898L55.2708 16.3762L52.7592 16.1186L34.8933 23.4305C33.6523 23.8602 32.3029 23.8602 31.062 23.4305L13.1965 16.4037L10.6847 16.3764L1.47989 13.1898C0.429109 12.826 0.429109 11.34 1.47989 10.9764L31.411 0.61485C32.4257 0.263475 33.5293 0.263475 34.544 0.61485L64.4751 10.9764C65.5257 11.34 65.5257 12.826 64.4751 13.1898Z" fill="#868491"/>
<path id="Vector_14" d="M55.2708 15.4317V16.3764L34.893 23.4305C33.6525 23.8603 32.3031 23.8603 31.0611 23.4305L10.6847 16.3764V15.4317C10.6847 13.4404 12.1067 11.7407 14.0673 11.3877C20.2966 10.2713 26.6584 9.70618 32.9771 9.70618C39.2957 9.70618 45.6589 10.2713 51.8882 11.3877C52.8372 11.5593 53.6981 12.0589 54.3149 12.7971C54.9289 13.5297 55.2708 14.4675 55.2708 15.4317Z" fill="#77777F"/>
<path id="Vector_15" d="M52.759 15.4317V23.7528H13.6152L13.4756 15.7108C13.4756 14.9378 14.0296 14.2763 14.7901 14.1396C15.1888 14.0681 15.3088 13.7199 15.7082 13.6531C21.4247 12.6971 27.2014 12.218 32.9771 12.218C39.1575 12.218 45.338 12.7664 51.4445 13.8605C51.8241 13.9288 52.1534 14.1284 52.3864 14.4075C52.6209 14.6866 52.759 15.0452 52.759 15.4317Z" fill="#868491"/>
<path id="Vector_16" d="M52.759 26.8995V28.4345C52.759 28.9746 52.3209 29.4114 51.7822 29.4114H14.1734C13.6339 29.4114 13.1965 28.974 13.1965 28.4345V23.7528L14.4524 22.8405L15.7083 23.7528V26.2018C15.7083 26.5871 16.0208 26.8995 16.4061 26.8995H52.759Z" fill="#FAAB18"/>
<path id="Vector_17" d="M15.7083 13.6539V23.7528H13.1965V15.4317C13.1965 14.6587 13.7505 13.9972 14.511 13.8605C14.9101 13.7893 15.3092 13.7195 15.7083 13.6539Z" fill="#77777F"/>
<path id="Vector_18" d="M62.8086 63.8259C61.476 60.6086 61.476 56.9939 62.8086 53.7766L63.2333 51.8903H6.17152C6.17152 51.8903 -0.251893 58.8735 6.5889 65.7142L63.6049 66.1417L62.8086 63.8259Z" fill="#F1F2F2"/>
<path id="Vector_19" d="M63.6048 66.1411L6.58932 65.7141C-0.252583 58.8736 6.17208 51.8907 6.17208 51.8907L63.5076 51.9967L62.8094 53.776C62.5512 54.3984 62.3433 55.0347 62.1856 55.6794H9.81561C8.07548 55.6794 6.66049 57.0944 6.66049 58.8331C6.66049 60.5733 8.07548 61.9882 9.81561 61.9882H62.2023C62.3586 62.6106 62.561 63.226 62.8094 63.8261L63.6048 66.1411Z" fill="#DEE1E1"/>
<path id="Vector_20" d="M62.6436 68.1601L11.0534 68.0652C5.63275 68.0652 0.863651 65.0062 0.863651 59.5856C0.863651 57.8653 0.442921 55.4964 1.22047 54.0904C2.89292 51.0665 6.11502 49.0188 9.8152 49.0188H63.6131C64.8358 49.0188 65.827 50.01 65.827 51.2327C65.827 52.4554 64.8358 53.4466 63.6131 53.4466H50.2838L46.8009 54.2176L43.8693 53.4466H9.81534C6.8401 53.4466 4.4282 55.8585 4.4282 58.8337C4.4282 61.809 6.8401 64.2209 9.81534 64.2209H63.6131C64.8358 64.2209 65.827 65.2121 65.827 66.4348C65.827 66.5714 65.8146 66.7049 65.791 66.8347C65.6028 67.8665 63.7298 68.1601 62.6436 68.1601Z" fill="#EF5227"/>
<path id="Vector_21" d="M65.7914 66.8347C65.7091 67.2868 65.49 67.6887 65.1788 67.9999C64.7783 68.4004 64.2243 68.6488 63.6131 68.6488H9.81562C4.39428 68.6488 0 64.2545 0 58.8332C0 56.8935 0.562368 55.085 1.535 53.5612V57.0191C1.535 62.4404 5.92928 66.8347 11.3506 66.8347H65.7914Z" fill="#D83724"/>
<path id="Vector_22" d="M50.2838 59.9508V53.4445H45.9623L44.0455 53.5611L44.1482 59.6717C44.1482 59.8683 44.3461 60.0032 44.5291 59.9315L45.9622 59.5402L46.9747 59.1438C47.0402 59.1181 47.1129 59.1181 47.1782 59.1438L49.9029 60.2107C50.0859 60.2823 50.2838 60.1474 50.2838 59.9508Z" fill="#FDCD08"/>
<path id="Vector_23" d="M45.9623 53.444V59.5407L44.2501 60.2105C44.0673 60.2817 43.8691 60.1477 43.8691 59.951V53.444H45.9623Z" fill="#FAAB18"/>
</g>
</g>
<defs>
<clipPath id="clip0_363_622">
<rect width="69" height="69" fill="white"/>
</clipPath>
</defs>
</svg>
