<svg width="68" height="69" viewBox="0 0 68 69" fill="none" xmlns="http://www.w3.org/2000/svg">
<g id="fi_2830289" clip-path="url(#clip0_363_495)">
<g id="Group">
<g id="Group_2">
<g id="Group_3">
<path id="Vector" fill-rule="evenodd" clip-rule="evenodd" d="M13.3171 46.7752V58.8371H16.3633C16.8126 58.8371 17.1835 59.1124 17.1835 59.4499V63.3128H28.0044V59.4499C28.0044 59.1124 28.3754 58.8371 28.83 58.8371H31.8762V46.7752H28.83C28.3754 46.7752 28.0044 46.4999 28.0044 46.1663V42.2994H17.1835V46.1663C17.1835 46.4998 16.8126 46.7752 16.3633 46.7752H13.3171Z" fill="#B6B1B7"/>
</g>
<g id="Group_4">
<path id="Vector_2" fill-rule="evenodd" clip-rule="evenodd" d="M35.69 46.7752V58.8371H38.8775C39.3533 58.8371 39.7413 59.1124 39.7413 59.4499V63.3128H51.0645V59.4499C51.0645 59.1124 51.4527 58.8371 51.9284 58.8371H55.1159V46.7752H51.9284C51.4526 46.7752 51.0645 46.4999 51.0645 46.1663V42.2994H39.7413V46.1663C39.7413 46.4998 39.3531 46.7752 38.8775 46.7752H35.69Z" fill="#B6B1B7"/>
</g>
<g id="Group_5">
<path id="Vector_3" fill-rule="evenodd" clip-rule="evenodd" d="M4.61284 20.6385V38.1095H63.3887V20.6385L33.9988 3.67053L4.61284 20.6385Z" fill="#ECEAEC"/>
</g>
<g id="Group_6">
<path id="Vector_4" fill-rule="evenodd" clip-rule="evenodd" d="M0.358324 22.7213C1.09902 24.005 2.75121 24.4472 4.03497 23.7063L4.61284 23.3729L33.9988 6.40473L63.3886 23.3729L63.9665 23.7063C65.2463 24.4472 66.9023 24.005 67.6393 22.7213C68.38 21.4414 67.938 19.7853 66.6542 19.0445L35.4765 1.04481C35.0499 0.796587 34.5263 0.676392 33.9988 0.676392C33.4753 0.676392 32.9477 0.796587 32.5211 1.04481L1.34339 19.0445C0.0636129 19.7853 -0.382371 21.4414 0.358324 22.7213Z" fill="#9FD4FE"/>
</g>
<g id="Group_7">
<path id="Vector_5" fill-rule="evenodd" clip-rule="evenodd" d="M52.2928 44.7003H61.3215V60.9121H52.2928V44.7003Z" fill="#FFE07D"/>
</g>
<g id="Group_8">
<path id="Vector_6" fill-rule="evenodd" clip-rule="evenodd" d="M29.4845 44.7003H38.5132V60.9121H29.4845V44.7003Z" fill="#FFE07D"/>
</g>
<g id="Group_9">
<path id="Vector_7" fill-rule="evenodd" clip-rule="evenodd" d="M6.67609 44.7003H15.7087V60.9121H6.67609V44.7003Z" fill="#FFE07D"/>
</g>
<g id="Group_10">
<path id="Vector_8" fill-rule="evenodd" clip-rule="evenodd" d="M3.80614 63.3128L10.4211 65.8183L18.5786 63.3128V59.45C18.5786 59.1125 18.3033 58.8372 17.9697 58.8372H15.7087H6.67608H4.41508C4.08159 58.8372 3.80614 59.1125 3.80614 59.45V63.3128Z" fill="#ECEAEC"/>
</g>
<g id="Group_11">
<path id="Vector_9" fill-rule="evenodd" clip-rule="evenodd" d="M49.419 63.3128L57.3964 65.8183L64.1953 63.3128V59.45C64.1953 59.1125 63.92 58.8372 63.5825 58.8372H61.3215H52.2928H50.0318C49.6944 58.8372 49.419 59.1125 49.419 59.45V63.3128Z" fill="#ECEAEC"/>
</g>
<g id="Group_12">
<path id="Vector_10" fill-rule="evenodd" clip-rule="evenodd" d="M26.6106 63.3128L34.0007 65.1023L41.3869 63.3128V59.45C41.3869 59.1125 41.1116 58.8372 40.7741 58.8372H38.5131H29.4844H27.2234C26.8859 58.8372 26.6106 59.1125 26.6106 59.45V63.3128Z" fill="#ECEAEC"/>
</g>
<g id="Group_13">
<path id="Vector_11" fill-rule="evenodd" clip-rule="evenodd" d="M0.629786 68.3236H67.3717C67.7168 68.3236 68 68.0405 68 67.6953V63.941C68 63.5958 67.7168 63.3126 67.3717 63.3126H64.1953H49.419H41.387H26.6106H18.5786H3.80613H0.629786C0.284606 63.3126 0.00144958 63.5958 0.00144958 63.941V67.6953C0.00144958 68.0406 0.284606 68.3236 0.629786 68.3236Z" fill="#9FD4FE"/>
</g>
<g id="Group_14">
<path id="Vector_12" fill-rule="evenodd" clip-rule="evenodd" d="M30.8651 15.7557C30.8651 17.5708 32.3349 19.0407 34.1501 19.0407C35.9612 19.0407 37.4351 17.5707 37.4351 15.7557C37.4351 13.9407 35.9612 12.4707 34.1501 12.4707C32.3351 12.4706 30.8651 13.9405 30.8651 15.7557Z" fill="#FFE07D"/>
</g>
<g id="Group_15">
<path id="Vector_13" fill-rule="evenodd" clip-rule="evenodd" d="M33.9988 6.40479L4.61284 23.3729V27.1893L33.9988 10.2212L63.3887 27.1893V23.3729L33.9988 6.40479Z" fill="#DAD8DB"/>
</g>
<g id="Group_16">
<path id="Vector_14" fill-rule="evenodd" clip-rule="evenodd" d="M34.1501 12.4706C32.3351 12.4706 30.8651 13.9405 30.8651 15.7556C30.8651 16.1318 30.9271 16.4886 31.0435 16.826C31.5282 15.6198 32.7112 14.7705 34.0879 14.7705C35.5268 14.7705 36.7523 15.6974 37.1944 16.985C37.3495 16.6049 37.4349 16.19 37.4349 15.7556C37.4351 13.9405 35.9612 12.4706 34.1501 12.4706Z" fill="#FFC269"/>
</g>
<g id="Group_17">
<path id="Vector_15" fill-rule="evenodd" clip-rule="evenodd" d="M6.67609 46.7753H15.7087V50.0564H6.67609V46.7753Z" fill="#FFC269"/>
</g>
<g id="Group_18">
<path id="Vector_16" fill-rule="evenodd" clip-rule="evenodd" d="M29.4845 46.7753H38.5132V50.0564H29.4845V46.7753Z" fill="#FFC269"/>
</g>
<g id="Group_19">
<path id="Vector_17" fill-rule="evenodd" clip-rule="evenodd" d="M52.2928 46.7753H61.3215V50.0564H52.2928V46.7753Z" fill="#FFC269"/>
</g>
<g id="Group_20">
<path id="Vector_18" fill-rule="evenodd" clip-rule="evenodd" d="M6.67608 46.7752H15.7087H17.9697C18.3032 46.7752 18.5786 46.4999 18.5786 46.1663V41.4785H3.80614V46.1663C3.80614 46.4998 4.08146 46.7752 4.41508 46.7752H6.67608Z" fill="#ECEAEC"/>
</g>
<g id="Group_21">
<path id="Vector_19" fill-rule="evenodd" clip-rule="evenodd" d="M29.4845 46.7752H38.5132H40.7742C41.1117 46.7752 41.387 46.4999 41.387 46.1663V41.4785H26.6106V46.1663C26.6106 46.4998 26.8859 46.7752 27.2234 46.7752H29.4845Z" fill="#ECEAEC"/>
</g>
<g id="Group_22">
<path id="Vector_20" fill-rule="evenodd" clip-rule="evenodd" d="M50.0318 46.7752H52.2928H61.3215H63.5825C63.9199 46.7752 64.1953 46.4999 64.1953 46.1663V41.4785H49.419V46.1663C49.419 46.4999 49.6943 46.7752 50.0318 46.7752Z" fill="#ECEAEC"/>
</g>
<g id="Group_23">
<path id="Vector_21" fill-rule="evenodd" clip-rule="evenodd" d="M3.80614 42.2996H18.5786V44.7003H3.80614V42.2996Z" fill="#DAD8DB"/>
</g>
<g id="Group_24">
<path id="Vector_22" fill-rule="evenodd" clip-rule="evenodd" d="M26.6106 42.2996H41.3869V44.7003H26.6106V42.2996Z" fill="#DAD8DB"/>
</g>
<g id="Group_25">
<path id="Vector_23" fill-rule="evenodd" clip-rule="evenodd" d="M49.419 42.2996H64.1953V44.7003H49.419V42.2996Z" fill="#DAD8DB"/>
</g>
<g id="Group_26">
<path id="Vector_24" fill-rule="evenodd" clip-rule="evenodd" d="M3.80613 42.2996H18.5786H26.6106H41.387H49.419H64.1953H67.3717C67.7168 42.2996 68 42.0164 68 41.6713V37.9169C68 37.5717 67.7168 37.2886 67.3717 37.2886H63.3886H4.61283H0.629786C0.284606 37.2886 0.00144958 37.5717 0.00144958 37.9169V41.6713C0.00144958 42.0164 0.284606 42.2996 0.629786 42.2996H3.80613Z" fill="#9FD4FE"/>
</g>
</g>
<g id="Group_27">
<path id="Vector_25" d="M21.6216 27.557C21.9032 27.1142 22.0687 26.5906 22.0687 26.0282C22.0687 24.4513 20.7857 23.1683 19.2088 23.1683H16.894C16.3272 23.1683 15.8679 23.6277 15.8679 24.1944V27.8639V27.8699V32.1635C15.8679 32.4364 15.9767 32.6982 16.1702 32.8906C16.3625 33.0821 16.6227 33.1896 16.8941 33.1896H16.8987C16.8987 33.1896 19.0266 33.1801 19.6132 33.1801C21.3617 33.1801 22.7842 31.7576 22.7842 30.009C22.7841 29.022 22.3308 28.1391 21.6216 27.557ZM19.2088 25.2207C19.6541 25.2207 20.0163 25.5829 20.0163 26.0282C20.0163 26.4735 19.6541 26.8357 19.2088 26.8357C19.0395 26.8357 17.9203 26.8378 17.9203 26.8378V25.2207H19.2088ZM19.6131 31.1278C19.3008 31.1278 18.5532 31.1304 17.9203 31.133V28.8918C18.0715 28.8912 19.6131 28.89 19.6131 28.89C20.23 28.89 20.7319 29.3919 20.7319 30.009C20.7319 30.6259 20.23 31.1278 19.6131 31.1278Z" fill="#6F6571"/>
<path id="Vector_26" d="M29.905 23.9441C29.9015 23.9349 29.898 23.9258 29.8944 23.9166C29.7076 23.462 29.2696 23.1683 28.7782 23.1683C28.7779 23.1683 28.7775 23.1683 28.7775 23.1683C28.2857 23.1686 27.8476 23.4629 27.6613 23.9181C27.6581 23.9258 27.655 23.9336 27.6521 23.9416L24.6598 31.7982C24.4581 32.3279 24.724 32.9208 25.2536 33.1224C25.7826 33.3241 26.376 33.0584 26.5778 32.5287L27.0713 31.2328H30.4625L30.9505 32.5258C31.1055 32.9367 31.4961 33.19 31.9106 33.19C32.0309 33.19 32.1535 33.1687 32.2728 33.1237C32.803 32.9235 33.0706 32.3315 32.8704 31.8013L29.905 23.9441ZM27.8526 29.1805L28.7744 26.7605L29.6877 29.1805H27.8526Z" fill="#6F6571"/>
<path id="Vector_27" d="M41.6074 23.1683C41.604 23.1683 41.6006 23.1683 41.5973 23.1685C41.0304 23.1739 40.5755 23.6378 40.581 24.2044L40.6271 28.9627L36.9419 23.6263C36.6868 23.2567 36.2214 23.0964 35.792 23.2297C35.3635 23.3634 35.0713 23.7603 35.0713 24.2093V32.1633C35.0713 32.73 35.5307 33.1894 36.0974 33.1894C36.6641 33.1894 37.1235 32.73 37.1235 32.1633V27.5009L40.6312 32.5804C40.9313 33.0143 41.433 33.1989 41.9087 33.0502C42.394 32.8987 42.7076 32.4452 42.7076 31.8848L42.6332 24.1845C42.6278 23.6212 42.1694 23.1683 41.6074 23.1683Z" fill="#6F6571"/>
<path id="Vector_28" d="M52.0537 31.425L48.4694 27.967L51.7492 24.9523C52.1665 24.5687 52.1939 23.9195 51.8103 23.5022C51.427 23.0851 50.7775 23.0576 50.3604 23.4413L47.7407 25.8493V24.0948C47.7407 23.5281 47.2813 23.0687 46.7145 23.0687C46.1478 23.0687 45.6884 23.5281 45.6884 24.0948V32.1635C45.6884 32.7302 46.1478 33.1896 46.7145 33.1896C47.2813 33.1896 47.7407 32.7302 47.7407 32.1635V30.1155L50.6288 32.902C50.8279 33.0942 51.0847 33.1897 51.3411 33.1897C51.6099 33.1897 51.8783 33.0848 52.0796 32.876C52.4733 32.4681 52.4616 31.8184 52.0537 31.425Z" fill="#6F6571"/>
</g>
</g>
</g>
<defs>
<clipPath id="clip0_363_495">
<rect width="68" height="68" fill="white" transform="translate(0 0.5)"/>
</clipPath>
</defs>
</svg>
