<svg width="69" height="69" viewBox="0 0 69 69" fill="none" xmlns="http://www.w3.org/2000/svg">
<g clip-path="url(#clip0_363_574)">
<path fill-rule="evenodd" clip-rule="evenodd" d="M35.417 64.072C36.2466 64.7512 36.6595 65.1206 37.0763 65.1363C37.4891 65.1204 37.906 64.7511 38.7357 64.072L60.6122 41.671C67.0827 34.7481 67.0827 23.4166 60.6122 16.4897C54.7332 10.1983 45.0791 11.5965 38.9539 17.6216L37.8027 18.7537C37.1358 19.409 37.0088 19.409 36.326 18.7378L35.1946 17.6216C29.0814 11.5925 19.4153 10.1983 13.5363 16.4897C7.06579 23.4166 7.06579 34.7481 13.5363 41.671L16.1602 44.3599L35.417 64.072Z" fill="#FD8087"/>
<path fill-rule="evenodd" clip-rule="evenodd" d="M41.6493 15.4175C44.7972 19.9851 46.6232 25.4105 46.6232 31.2293C46.6232 31.8647 46.5994 32.4923 46.5557 33.112C46.2064 38.2793 44.4121 43.0851 41.5461 47.1881C40.2837 48.9953 38.8149 50.6673 37.1636 52.1767C35.4012 53.7893 33.4362 55.2112 31.3044 56.4067C30.574 56.8159 29.8238 57.201 29.0537 57.5586L35.4171 64.0723C36.2467 64.7516 36.6596 65.1209 37.0764 65.1367C37.4892 65.1208 37.9061 64.7514 38.7358 64.0723L45.4285 57.2169L60.6122 41.6711C65.7251 36.2019 66.7968 27.9763 63.8316 21.3514C63.0416 19.5919 61.9698 17.9435 60.6122 16.4898C59.719 15.5366 58.7385 14.7581 57.6984 14.1465C54.3084 12.1567 50.2712 11.9303 46.4604 13.0979C44.7892 13.6103 43.1577 14.3968 41.6493 15.4175Z" fill="#FE636E"/>
<path d="M43.527 39.2455C43.5208 39.2455 43.5146 39.2454 43.5085 39.2454C43.1351 39.2388 42.7939 39.0325 42.6141 38.705L37.2318 28.8918L33.2244 35.8973C33.0428 36.2148 32.7081 36.4137 32.3425 36.4214C31.9742 36.4281 31.634 36.2443 31.4394 35.9348L28.9502 31.9772L27.0717 35.0989C26.8834 35.412 26.5449 35.6034 26.1797 35.6034H19.6735C19.0984 35.6034 18.6323 35.1369 18.6323 34.5616C18.6323 33.9863 19.0984 33.5199 19.6735 33.5199H25.5912L28.0385 29.4528C28.225 29.143 28.5587 28.9519 28.9203 28.9484C28.9238 28.9482 28.9271 28.9482 28.9305 28.9482C29.2882 28.9482 29.6211 29.1319 29.8117 29.4351L32.2782 33.3564L36.3472 26.2434C36.5328 25.919 36.8778 25.7191 37.2508 25.7191C37.254 25.7191 37.257 25.7191 37.2602 25.7192C37.6369 25.7226 37.9825 25.9293 38.1637 26.2598L43.5639 36.1059L46.2883 31.5302C46.4761 31.2149 46.8159 31.0216 47.1829 31.0216H55.8605C56.4355 31.0216 56.9017 31.488 56.9017 32.0633C56.9017 32.6387 56.4355 33.1051 55.8605 33.1051H47.7747L44.4214 38.7369C44.2334 39.0526 43.8934 39.2455 43.527 39.2455Z" fill="#F8F2F0"/>
<path fill-rule="evenodd" clip-rule="evenodd" d="M57.6984 23.1585C63.9229 23.1585 69 18.0785 69 11.8468C69 5.61905 63.9229 0.539062 57.6984 0.539062C51.4701 0.539062 46.3929 5.61905 46.3929 11.8468C46.3929 18.0785 51.4701 23.1585 57.6984 23.1585Z" fill="#F8F2F0"/>
<path fill-rule="evenodd" clip-rule="evenodd" d="M53.6455 1.2858C57.619 3.04139 60.3898 7.0132 60.3898 11.6363C60.3898 11.7078 60.3898 11.7793 60.3859 11.8468C60.362 13.1615 60.116 14.4206 59.6793 15.5843C58.552 18.6188 56.1543 21.0376 53.1374 22.1974C54.5307 22.817 56.0749 23.1585 57.6985 23.1585C59.9572 23.1585 62.0651 22.4952 63.8316 21.3513C66.9437 19.3336 69 15.8305 69 11.8468C69 5.60315 63.9387 0.539062 57.6984 0.539062C56.2693 0.539062 54.9039 0.801182 53.6455 1.2858Z" fill="#D6DCEA"/>
<path d="M61.811 10.805H58.7396V7.73205C58.7396 7.15673 58.2735 6.69031 57.6984 6.69031C57.1234 6.69031 56.6572 7.15673 56.6572 7.73205V10.8051H53.5859C53.0109 10.8051 52.5447 11.2715 52.5447 11.8468C52.5447 12.4222 53.0109 12.8886 53.5859 12.8886H56.6572V15.9616C56.6572 16.537 57.1234 17.0034 57.6984 17.0034C58.2735 17.0034 58.7396 16.537 58.7396 15.9616V12.8884H61.811C62.386 12.8884 62.8522 12.422 62.8522 11.8467C62.8522 11.2714 62.3861 10.805 61.811 10.805Z" fill="#FD8087"/>
<path fill-rule="evenodd" clip-rule="evenodd" d="M9.64221 46.878L7.32397 54.4007L9.64221 62.3721L20.3205 65.2794L28.9822 67.6346C34.0355 69.2075 36.2664 68.3098 40.9148 66.8165L57.9485 61.3513C62.8391 59.7825 62.1088 53.0542 54.9515 55.3539L45.4284 57.2166L43.8723 57.5224C41.562 57.9711 41.2443 58.1578 38.9142 57.7965L31.3044 56.4064L29.923 56.1522C26.8029 55.1554 28.0175 50.9769 30.7407 51.39C32.5826 51.6244 35.0517 51.9579 37.1635 52.1764C37.2072 52.1803 37.2508 52.1843 37.2906 52.1882C41.3674 52.6013 43.0029 49.5549 41.5461 47.1877C40.9944 46.2862 39.9899 45.4799 38.5013 45.0072L32.7652 43.9547C29.0456 43.2716 26.4018 44.1216 20.6301 45.0708L17.379 45.6071L9.64221 46.878Z" fill="#FED1A3"/>
<path fill-rule="evenodd" clip-rule="evenodd" d="M0 45.5316V63.8615C0 64.0918 0.242174 64.2786 0.535963 64.2786H9.10247C9.40017 64.2786 9.64235 64.0919 9.64235 63.8615V62.372V46.878V45.5316C9.64235 45.3013 9.40017 45.1145 9.10247 45.1145H0.535963C0.242174 45.1146 0 45.3013 0 45.5316Z" fill="#99E6FC"/>
<path fill-rule="evenodd" clip-rule="evenodd" d="M0 61.0454V63.8615C0 64.0918 0.242174 64.2786 0.535963 64.2786H9.10247C9.40017 64.2786 9.64235 64.0919 9.64235 63.8615V62.372V61.0454C9.64235 61.2718 9.40017 61.4625 9.10247 61.4625H0.535963C0.242174 61.4625 0 61.2718 0 61.0454Z" fill="#62DBFB"/>
<path fill-rule="evenodd" clip-rule="evenodd" d="M9.64221 61.0455V62.3721L20.3205 65.2794L28.9822 67.6347C34.0355 69.2075 36.2664 68.3099 40.9148 66.8165L57.9485 61.3514C60.7075 60.4696 61.676 57.9436 60.7154 56.3191C60.2431 57.2564 59.3182 58.0984 57.9485 58.5353L40.9148 64.0005C36.2664 65.4899 34.0355 66.3915 28.9822 64.8186L20.3205 62.4633L9.64221 59.552V61.0455Z" fill="#FFBC85"/>
<path fill-rule="evenodd" clip-rule="evenodd" d="M30.7407 48.5741C28.5812 48.2484 27.3705 50.8024 28.5137 52.3712C28.9701 51.6919 29.7562 51.2432 30.7407 51.3901C32.5825 51.6244 35.0517 51.958 37.1635 52.1764L37.2906 52.1883C41.1768 52.5815 42.8441 49.837 41.7326 47.5293C41.4269 48.1171 40.9148 48.6216 40.2082 48.9592C39.454 49.3206 38.4735 49.4913 37.2906 49.3722L37.1635 49.3604C35.0517 49.142 32.5827 48.8084 30.7407 48.5741Z" fill="#FFBC85"/>
</g>
<defs>
<clipPath id="clip0_363_574">
<rect width="69" height="69" fill="white"/>
</clipPath>
</defs>
</svg>
