<svg width="69" height="69" viewBox="0 0 69 69" fill="none" xmlns="http://www.w3.org/2000/svg">
<g id="fi_2873603">
<g id="_x33_5_x2C__hospital_bed_x2C__icu_x2C__medical_treatment">
<g id="XMLID_4175_">
<g id="XMLID_4176_">
<path id="XMLID_1013_" d="M53.502 31.9395V38.0039H43.3945V37.1616C43.3945 34.2776 45.7327 31.9395 48.6167 31.9395H53.502Z" fill="#A0B5C5"/>
<path id="XMLID_1012_" d="M56.0625 63.3398H12.2637C11.8916 63.3398 11.5898 63.0382 11.5898 62.666C11.5898 62.2938 11.8916 61.9922 12.2637 61.9922H56.0625C56.4346 61.9922 56.7363 62.2938 56.7363 62.666C56.7363 63.0382 56.4346 63.3398 56.0625 63.3398Z" fill="#D0DCE7"/>
<path id="XMLID_1011_" d="M49.998 57.4102C49.626 57.4102 49.3242 57.1086 49.3242 56.7363V52.6934C49.3242 52.3211 49.626 52.0195 49.998 52.0195C50.3701 52.0195 50.6719 52.3211 50.6719 52.6934V56.7363C50.6719 57.1086 50.3701 57.4102 49.998 57.4102Z" fill="#33383F"/>
<path id="XMLID_1010_" d="M21.6973 57.4102C21.3252 57.4102 21.0234 57.1086 21.0234 56.7363V52.6934C21.0234 52.3211 21.3252 52.0195 21.6973 52.0195C22.0694 52.0195 22.3711 52.3211 22.3711 52.6934V56.7363C22.3711 57.1086 22.0694 57.4102 21.6973 57.4102Z" fill="#33383F"/>
<path id="XMLID_1009_" d="M14.2852 28.4355C13.9131 28.4355 13.6113 28.1338 13.6113 27.7617V24.3926C13.6113 24.0205 13.9131 23.7188 14.2852 23.7188C14.6572 23.7188 14.959 24.0205 14.959 24.3926V27.7617C14.959 28.1338 14.6572 28.4355 14.2852 28.4355Z" fill="#CD2738"/>
<path id="XMLID_1008_" d="M26.4141 28.4355C26.042 28.4355 25.7402 28.1338 25.7402 27.7617V24.3926C25.7402 24.0205 26.042 23.7188 26.4141 23.7188C26.7862 23.7188 27.0879 24.0205 27.0879 24.3926V27.7617C27.0879 28.1338 26.7862 28.4355 26.4141 28.4355Z" fill="#CD2738"/>
<path id="XMLID_1007_" d="M8.2207 52.0195C9.70986 52.0195 10.916 53.2257 10.916 54.7148C10.916 56.204 9.70986 57.4102 8.2207 57.4102C6.73154 57.4102 5.52539 56.204 5.52539 54.7148C5.52539 53.2257 6.73154 52.0195 8.2207 52.0195Z" fill="#07CC66"/>
<path id="XMLID_1006_" d="M50.6719 14.2852C52.9047 14.2852 54.7148 12.4751 54.7148 10.2422C54.7148 8.00932 52.9047 6.19922 50.6719 6.19922C48.439 6.19922 46.6289 8.00932 46.6289 10.2422C46.6289 12.4751 48.439 14.2852 50.6719 14.2852Z" fill="#07CC66"/>
<path id="XMLID_1005_" d="M26.4141 27.7617C27.9032 27.7617 29.1094 28.9679 29.1094 30.457C29.1094 31.9462 27.9032 33.1523 26.4141 33.1523C24.9249 33.1523 23.7188 31.9462 23.7188 30.457C23.7188 28.9679 24.9249 27.7617 26.4141 27.7617Z" fill="#D94556"/>
<path id="XMLID_1004_" d="M14.2852 27.7617C15.7743 27.7617 16.9805 28.9679 16.9805 30.457C16.9805 31.9462 15.7743 33.1523 14.2852 33.1523C12.796 33.1523 11.5898 31.9462 11.5898 30.457C11.5898 28.9679 12.796 27.7617 14.2852 27.7617Z" fill="#D94556"/>
<path id="XMLID_4256_" d="M8.89453 15.6328V8.01855C8.89453 6.64125 10.0104 5.52539 11.3877 5.52539H30.6592C32.0365 5.52539 33.1523 6.64125 33.1523 8.01855V21.8994C33.1523 23.2767 32.0365 24.3926 30.6592 24.3926C25.0122 24.3926 18.5363 24.3926 11.3877 24.3926C10.0104 24.3926 8.89453 23.2767 8.89453 21.8994V15.6328Z" fill="#D0DCE7"/>
<path id="XMLID_1002_" d="M28.7725 18.3281C29.7023 18.3281 30.457 19.0828 30.457 20.0127C30.457 20.9426 29.7023 21.6973 28.7725 21.6973C27.8426 21.6973 27.0879 20.9426 27.0879 20.0127C27.0879 19.0828 27.8426 18.3281 28.7725 18.3281Z" fill="#D94556"/>
<path id="XMLID_1001_" d="M28.7725 12.2637C29.7023 12.2637 30.457 13.0184 30.457 13.9482C30.457 14.8781 29.7023 15.6328 28.7725 15.6328C27.8426 15.6328 27.0879 14.8781 27.0879 13.9482C27.0879 13.0184 27.8426 12.2637 28.7725 12.2637Z" fill="#07CC66"/>
<path id="XMLID_1000_" d="M49.998 56.7363C51.8592 56.7363 53.3672 58.2444 53.3672 60.1055C53.3672 61.9666 51.8592 63.4746 49.998 63.4746C48.1369 63.4746 46.6289 61.9666 46.6289 60.1055C46.6289 58.2444 48.1369 56.7363 49.998 56.7363Z" fill="#3F4751"/>
<path id="XMLID_999_" d="M21.6973 56.7363C23.5584 56.7363 25.0664 58.2444 25.0664 60.1055C25.0664 61.9666 23.5584 63.4746 21.6973 63.4746C19.8362 63.4746 18.3281 61.9666 18.3281 60.1055C18.3281 58.2444 19.8362 56.7363 21.6973 56.7363Z" fill="#3F4751"/>
<path id="XMLID_998_" d="M52.0195 49.998V52.6934H49.998H47.9766V49.998H52.0195Z" fill="#94D4FF"/>
<path id="XMLID_997_" d="M23.7188 49.998V52.6934H21.6973H19.6758V49.998H23.7188Z" fill="#94D4FF"/>
<path id="XMLID_996_" d="M60.1055 22.3711V46.6289H57.4102H53.3672V41.2383V37.8691V31.8047V22.3711C53.3672 21.4412 53.7445 20.5976 54.3537 19.9884C54.9628 19.3793 55.8064 19.002 56.7363 19.002C58.5974 19.002 60.1055 20.51 60.1055 22.3711Z" fill="#D0DCE7"/>
<path id="XMLID_995_" d="M43.2598 37.8691H8.89453V41.2383V46.6289H53.3672V41.2383V37.8691H43.2598Z" fill="#BCE4FF"/>
<path id="XMLID_994_" d="M53.3672 41.2383V46.6289C50.1979 46.6289 10.6225 46.6289 8.89453 46.6289V41.2383H53.3672Z" fill="#94D4FF"/>
<path id="XMLID_993_" d="M57.4102 46.6289V47.8081C57.4102 49.017 56.4291 49.998 55.2202 49.998H52.0195H47.9766H23.7188H19.6758H17.1489C15.9401 49.998 14.959 49.017 14.959 47.8081V46.6289H53.3672H57.4102Z" fill="#BCE4FF"/>
<g id="Group">
<path id="XMLID_992_" d="M62.4639 11.5898C63.0221 11.5898 63.4746 11.1373 63.4746 10.5791C63.4746 10.0209 63.0221 9.56836 62.4639 9.56836C61.9056 9.56836 61.4531 10.0209 61.4531 10.5791C61.4531 11.1373 61.9056 11.5898 62.4639 11.5898Z" fill="#9BD8F9"/>
<path id="XMLID_991_" d="M60.4424 56.0625C61.0006 56.0625 61.4531 55.61 61.4531 55.0518C61.4531 54.4935 61.0006 54.041 60.4424 54.041C59.8842 54.041 59.4316 54.4935 59.4316 55.0518C59.4316 55.61 59.8842 56.0625 60.4424 56.0625Z" fill="#9BD8F9"/>
<path id="XMLID_990_" d="M45.6182 21.6973C46.1764 21.6973 46.6289 21.2447 46.6289 20.6865C46.6289 20.1283 46.1764 19.6758 45.6182 19.6758C45.0599 19.6758 44.6074 20.1283 44.6074 20.6865C44.6074 21.2447 45.0599 21.6973 45.6182 21.6973Z" fill="#9BD8F9"/>
<path id="XMLID_989_" d="M38.8799 8.89453C39.4381 8.89453 39.8906 8.44201 39.8906 7.88379C39.8906 7.32557 39.4381 6.87305 38.8799 6.87305C38.3217 6.87305 37.8691 7.32557 37.8691 7.88379C37.8691 8.44201 38.3217 8.89453 38.8799 8.89453Z" fill="#9BD8F9"/>
<path id="XMLID_988_" d="M34.8369 30.457C35.3951 30.457 35.8477 30.0045 35.8477 29.4463C35.8477 28.8881 35.3951 28.4355 34.8369 28.4355C34.2787 28.4355 33.8262 28.8881 33.8262 29.4463C33.8262 30.0045 34.2787 30.457 34.8369 30.457Z" fill="#9BD8F9"/>
</g>
<path id="XMLID_987_" d="M15.4851 16.0537L16.1302 15.2472L17.7087 18.9304C17.8043 19.1532 18.012 19.3075 18.2528 19.3346C18.278 19.3374 18.3031 19.3387 18.3283 19.3387C18.5423 19.3387 18.7455 19.2367 18.873 19.0612L21.3666 15.6328H23.0449C23.417 15.6328 23.7188 15.3311 23.7188 14.959C23.7188 14.5869 23.417 14.2852 23.0449 14.2852H21.0234C20.8078 14.2852 20.6053 14.3884 20.4784 14.5626L18.4804 17.31L16.9259 13.6829C16.8326 13.4652 16.6318 13.3124 16.3972 13.2806C16.1623 13.2485 15.9284 13.3425 15.7804 13.5274L14.6351 14.959H8.89453V15.6328V16.3066H14.959C15.1637 16.3066 15.3574 16.2137 15.4851 16.0537Z" fill="#757D8C"/>
</g>
</g>
</g>
</g>
</svg>
