<svg width="69" height="69" viewBox="0 0 69 69" fill="none" xmlns="http://www.w3.org/2000/svg">
<g id="fi_1209541" clip-path="url(#clip0_363_1007)">
<g id="Group">
<path id="Vector" d="M25.3006 67.8499V41.4001L34.5006 32.2002L43.7005 41.4001V67.8499H25.3006Z" fill="#FED993"/>
<path id="Vector_2" d="M2.30086 67.8499V50.6001L11.5008 41.4001L20.7007 50.6001V67.8499H2.30086Z" fill="#FED993"/>
<path id="Vector_3" d="M48.3004 67.8498V32.2002L57.5003 23.0002L66.7003 32.2002V67.8498H48.3004Z" fill="#FED993"/>
</g>
<path id="Vector_4" d="M9.20079 62.1001H13.8007V67.85H9.20079V62.1001Z" fill="#901C09"/>
<path id="Vector_5" d="M32.2006 62.1001H36.8005V67.85H32.2006V62.1001Z" fill="#901C09"/>
<path id="Vector_6" d="M55.2004 62.1001H59.8003V67.85H55.2004V62.1001Z" fill="#901C09"/>
<path id="Vector_7" d="M68.5572 0.244198C68.2792 0.025206 67.9148 -0.0522834 67.5717 0.0353134L58.3718 2.33529L58.9283 4.5662L64.5311 3.16634C48.566 20.7447 27.1469 32.436 3.72655 36.3554L0.96669 36.8153L1.34403 39.0827L4.10389 38.6228C28.2716 34.5771 50.3455 22.4326 66.7003 4.18437V10.3504H69.0002V1.15049C68.9997 0.796171 68.8363 0.462067 68.5572 0.244198Z" fill="#D63909"/>
<path id="Vector_8" d="M0.00088501 66.7H69.0002V68.9999H0.00088501V66.7Z" fill="#DA9D41"/>
<path id="Vector_9" d="M6.90082 52.9001H16.1007V57.5001H6.90082V52.9001Z" fill="#5FD1D0"/>
<path id="Vector_10" d="M11.5008 52.9001H16.1007V57.5001H11.5008V52.9001Z" fill="#37B7AE"/>
<path id="Vector_11" d="M52.9004 43.7002H62.1003V48.3002H52.9004V43.7002Z" fill="#5FD1D0"/>
<path id="Vector_12" d="M57.5004 43.7002H62.1003V48.3002H57.5004V43.7002Z" fill="#37B7AE"/>
<path id="Vector_13" d="M29.9006 52.9001H39.1005V57.5001H29.9006V52.9001Z" fill="#5FD1D0"/>
<path id="Vector_14" d="M34.5006 52.9001H39.1005V57.5001H34.5006V52.9001Z" fill="#37B7AE"/>
<path id="Vector_15" d="M52.9004 52.9001H62.1003V57.5001H52.9004V52.9001Z" fill="#5FD1D0"/>
<path id="Vector_16" d="M57.5004 52.9001H62.1003V57.5001H57.5004V52.9001Z" fill="#37B7AE"/>
<path id="Vector_17" d="M29.9006 43.7002H39.1005V48.3002H29.9006V43.7002Z" fill="#5FD1D0"/>
<path id="Vector_18" d="M34.5006 43.7002H39.1005V48.3002H34.5006V43.7002Z" fill="#37B7AE"/>
<path id="Vector_19" d="M52.9004 34.5002H62.1003V39.1002H52.9004V34.5002Z" fill="#5FD1D0"/>
<path id="Vector_20" d="M57.5004 34.5002H62.1003V39.1002H57.5004V34.5002Z" fill="#37B7AE"/>
</g>
<defs>
<clipPath id="clip0_363_1007">
<rect width="69" height="69" fill="white"/>
</clipPath>
</defs>
</svg>
