<svg width="69" height="69" viewBox="0 0 69 69" fill="none" xmlns="http://www.w3.org/2000/svg">
<g id="fi_4946333">
<path id="Vector" d="M7.47949 18.0586H61.5205V59.8359H7.47949V18.0586Z" fill="#F1E8DC"/>
<path id="Vector_2" d="M7.47949 18.0586H11.5225V59.8359H7.47949V18.0586Z" fill="#E5CFBD"/>
<path id="Vector_3" d="M57.4775 48.0439V29.8506C57.4775 29.1063 56.8742 28.5029 56.1299 28.5029H33.085C32.3407 28.5029 31.7373 29.1063 31.7373 29.8506V48.0439C31.7373 48.7882 32.3407 49.3916 33.085 49.3916H56.1299C56.8742 49.3916 57.4775 48.7882 57.4775 48.0439Z" fill="#6BD4E0"/>
<g id="Group">
<path id="Vector_4" d="M63.8789 16.9131V18.7553C63.8789 20.054 63.363 21.2995 62.4447 22.2178C61.5264 23.1361 60.2809 23.652 58.9822 23.652C57.6835 23.652 56.438 23.1361 55.5197 22.2178C54.6014 21.2995 54.0855 20.054 54.0855 18.7553V16.9131H63.8789Z" fill="#FFC980"/>
<path id="Vector_5" d="M54.0855 16.9131V18.7553C54.0855 20.0538 53.5697 21.2992 52.6515 22.2174C51.7333 23.1355 50.488 23.6514 49.1895 23.6514C47.8909 23.6514 46.6456 23.1355 45.7274 22.2174C44.8092 21.2992 44.2934 20.0538 44.2934 18.7553V16.9131H54.0855Z" fill="#FFC980"/>
<path id="Vector_6" d="M44.2934 16.9131V18.7553C44.2934 20.054 43.7775 21.2995 42.8592 22.2178C41.9409 23.1361 40.6954 23.652 39.3967 23.652C38.098 23.652 36.8525 23.1361 35.9342 22.2178C35.0159 21.2995 34.5 20.054 34.5 18.7553V16.9131H44.2934Z" fill="#FFC980"/>
<path id="Vector_7" d="M34.5 16.9131V18.7553C34.5 20.054 33.9841 21.2995 33.0658 22.2178C32.1475 23.1361 30.902 23.652 29.6033 23.652C28.3046 23.652 27.0591 23.1361 26.1408 22.2178C25.2225 21.2995 24.7066 20.054 24.7066 18.7553V16.9131H34.5Z" fill="#FFC980"/>
<path id="Vector_8" d="M24.7066 16.9131V18.7553C24.7066 20.0538 24.1907 21.2992 23.2726 22.2174C22.3544 23.1355 21.109 23.6514 19.8105 23.6514C18.512 23.6514 17.2667 23.1355 16.3485 22.2174C15.4303 21.2992 14.9145 20.0538 14.9145 18.7553V16.9131H24.7066Z" fill="#FFC980"/>
<path id="Vector_9" d="M14.9145 16.9131V18.7553C14.9145 20.054 14.3986 21.2995 13.4803 22.2178C12.562 23.1361 11.3165 23.652 10.0178 23.652C8.71911 23.652 7.47362 23.1361 6.55531 22.2178C5.637 21.2995 5.12109 20.054 5.12109 18.7553V16.9131H14.9145Z" fill="#FFC980"/>
</g>
<path id="Vector_10" d="M12.0413 23.2147C11.2954 23.5531 10.4766 23.699 9.65969 23.639C8.84283 23.5791 8.05405 23.3152 7.36556 22.8715C6.67707 22.4278 6.11085 21.8186 5.71874 21.0995C5.32663 20.3804 5.12114 19.5744 5.12109 18.7553V16.9131H9.16406V18.7553C9.16358 19.6967 9.43481 20.6182 9.94518 21.4093C10.4556 22.2003 11.1834 22.8272 12.0413 23.2147Z" fill="#FFB155"/>
<path id="Vector_11" d="M5.12109 16.9131L10.1728 4.28366C10.2728 4.03358 10.4455 3.81921 10.6685 3.66822C10.8916 3.51722 11.1547 3.43652 11.4241 3.43652H57.5758C57.8451 3.43652 58.1083 3.51722 58.3313 3.66822C58.5544 3.81921 58.727 4.03358 58.8271 4.28366L63.8789 16.9131H5.12109Z" fill="#F4644D"/>
<path id="Vector_12" d="M55.0976 16.9131H53.0559L50.3997 3.63463C50.3863 3.56943 50.3796 3.50307 50.3794 3.43652H52.4211L55.0774 16.715C55.0907 16.7802 55.0975 16.8465 55.0976 16.9131Z" fill="#FFB155"/>
<path id="Vector_13" d="M45.3042 16.9131H43.2786L41.9404 3.5376C41.9366 3.50404 41.9348 3.47029 41.935 3.43652H43.9619L45.2988 16.812C45.3025 16.8456 45.3043 16.8793 45.3042 16.9131Z" fill="#FFB155"/>
<path id="Vector_14" d="M33.4893 3.43652H35.5107V16.9131H33.4893V3.43652Z" fill="#FFB155"/>
<path id="Vector_15" d="M27.065 3.43652C27.0652 3.47029 27.0634 3.50404 27.0596 3.5376L25.7227 16.9131H23.6958C23.6957 16.8793 23.6975 16.8456 23.7012 16.812L25.0395 3.43652H27.065Z" fill="#FFB155"/>
<path id="Vector_16" d="M18.6206 3.43652C18.6204 3.50307 18.6137 3.56943 18.6003 3.63463L15.9441 16.9131H13.9038C13.9039 16.8465 13.9107 16.7802 13.924 16.715L16.5802 3.43652H18.6206Z" fill="#FFB155"/>
<path id="Vector_17" d="M14.5547 3.43652L9.16406 16.9131H5.12109L10.1735 4.2842C10.2731 4.03393 10.4456 3.81934 10.6685 3.66821C10.8915 3.51708 11.1547 3.43637 11.4241 3.43652H14.5547Z" fill="#E8533A"/>
<path id="Vector_18" d="M27.6943 29.7158V58.6904H11.5225V29.7158C11.5225 29.3584 11.6644 29.0156 11.9172 28.7629C12.1699 28.5101 12.5127 28.3682 12.8701 28.3682H26.3467C26.7041 28.3682 27.0469 28.5101 27.2996 28.7629C27.5524 29.0156 27.6943 29.3584 27.6943 29.7158Z" fill="#F4644D"/>
<path id="Vector_19" d="M3.63314 63.5227L7.47949 58.6904H61.5205L65.3668 63.5227C65.4902 63.7284 65.5565 63.9633 65.5587 64.2031C65.561 64.4429 65.4993 64.679 65.3798 64.887C65.2604 65.095 65.0877 65.2673 64.8794 65.3862C64.6711 65.5052 64.4349 65.5663 64.1951 65.5635H4.80493C4.56511 65.5663 4.32888 65.5052 4.12061 65.3862C3.91234 65.2673 3.73957 65.095 3.62015 64.887C3.50073 64.679 3.43897 64.4429 3.44125 64.2031C3.44354 63.9633 3.50978 63.7284 3.63314 63.5227Z" fill="#FFC980"/>
<path id="Vector_20" d="M8.84736 65.5635H4.80439C4.56469 65.5662 4.32861 65.5049 4.12049 65.3859C3.91238 65.267 3.73975 65.0947 3.62042 64.8868C3.50109 64.6789 3.43937 64.4429 3.44163 64.2032C3.44389 63.9635 3.51005 63.7287 3.63327 63.5231L7.47949 58.6904H11.5225L7.67624 63.5231C7.55302 63.7287 7.48686 63.9635 7.4846 64.2032C7.48234 64.4429 7.54406 64.6789 7.66339 64.8868C7.78272 65.0947 7.95534 65.267 8.16346 65.3859C8.37158 65.5049 8.60766 65.5662 8.84736 65.5635Z" fill="#FFB155"/>
<path id="Vector_21" d="M34.4326 28.5029V49.3916H33.085C32.7275 49.3916 32.3848 49.2496 32.132 48.9969C31.8793 48.7441 31.7373 48.4014 31.7373 48.0439V29.8506C31.7373 29.4932 31.8793 29.1504 32.132 28.8976C32.3848 28.6449 32.7275 28.5029 33.085 28.5029H34.4326Z" fill="#56CDD3"/>
<path id="Vector_22" d="M14.2178 28.3682V58.6904H11.5225V29.7158C11.5225 29.3584 11.6644 29.0156 11.9172 28.7629C12.1699 28.5101 12.5127 28.3682 12.8701 28.3682H14.2178Z" fill="#E8533A"/>
</g>
</svg>
