<svg width="69" height="69" viewBox="0 0 69 69" fill="none" xmlns="http://www.w3.org/2000/svg">
<g id="fi_7664127">
<g id="Group">
<g id="Group_2">
<g id="Group_3">
<path id="Vector" d="M33.0991 12.6185C33.5591 12.5872 34.0295 12.5454 34.5 12.5454C46.1359 12.5454 55.6495 21.6408 56.3813 33.099L61.6818 37.6363L66.8777 33.1826C66.1877 15.9013 51.9591 2.09082 34.5 2.09082C34.0609 2.09082 33.6218 2.11173 33.1827 2.12218L37.6363 7.31809L33.0991 12.6185Z" fill="#8ABA55"/>
</g>
<g id="Group_4">
<path id="Vector_2" d="M35.9009 56.3813C35.4409 56.4126 34.9704 56.4544 34.5 56.4544C22.8641 56.4544 13.3504 47.359 12.6186 35.9008L7.31816 31.3635L2.12225 35.8172C2.81225 53.109 17.0409 66.909 34.5 66.909C34.9391 66.909 35.3782 66.8881 35.8173 66.8776L31.3636 61.6817L35.9009 56.3813Z" fill="#EF4A51"/>
</g>
<g id="Group_5">
<path id="Vector_3" d="M12.6186 35.9007C12.5872 35.4407 12.5454 34.9703 12.5454 34.4998C12.5454 22.8639 21.6409 13.3503 33.0991 12.6184L37.6363 7.31798L33.1827 2.12207C15.8909 2.81207 2.09088 17.0407 2.09088 34.4998C2.09088 34.9389 2.11179 35.378 2.12224 35.8171L7.31815 31.3634L12.6186 35.9007Z" fill="#7CB5E8"/>
</g>
<g id="Group_6">
<path id="Vector_4" d="M61.6818 37.6364L56.3813 33.0991C56.4127 33.5591 56.4545 34.0296 56.4545 34.5C56.4545 46.1359 47.359 55.6496 35.9009 56.3814L31.3636 61.6819L35.8172 66.8778C53.109 66.1878 66.909 51.9591 66.909 34.5C66.909 34.0609 66.8881 33.6218 66.8777 33.1828L61.6818 37.6364Z" fill="#FFAB03"/>
</g>
<g id="Group_7" opacity="0.3">
<path id="Vector_5" d="M40.8772 2.71802C40.4695 4.32802 41.3895 5.99029 42.9995 6.48165C52.3772 9.32529 59.6641 16.6226 62.5077 26.0003C62.9154 27.3594 64.1595 28.2271 65.5081 28.2271C65.7591 28.2271 66.01 28.1853 66.2713 28.1226C63.7204 15.3471 53.6631 5.26893 40.8772 2.71802Z" fill="white"/>
</g>
<g id="Group_8" opacity="0.3">
<path id="Vector_6" d="M2.71814 28.1226C2.96905 28.1853 3.23041 28.2272 3.48132 28.2272C4.82996 28.2272 6.07405 27.349 6.48178 26.0003C9.32541 16.6331 16.6227 9.33579 26.0004 6.49215C27.6104 6.00079 28.5304 4.33852 28.1227 2.72852C15.3368 5.27942 5.26905 15.3472 2.71814 28.1226Z" fill="white"/>
</g>
<g id="Group_9" opacity="0.3">
<path id="Vector_7" d="M28.1227 66.2817C28.5305 64.6717 27.6105 63.0094 26.0005 62.518C16.6227 59.6744 9.33591 52.3771 6.49227 42.9994C6.00091 41.3894 4.33864 40.4694 2.72864 40.8771C5.27955 53.663 15.3368 63.7308 28.1227 66.2817Z" fill="white"/>
</g>
<g id="Group_10" opacity="0.3">
<path id="Vector_8" d="M66.2818 40.8771C64.6718 40.4694 63.0095 41.3894 62.5181 42.9994C59.6745 52.3771 52.3772 59.6639 42.9995 62.5076C41.3895 62.9989 40.4695 64.6612 40.8772 66.2712C53.6631 63.7203 63.7309 53.663 66.2818 40.8771Z" fill="white"/>
</g>
</g>
<g id="Group_11">
<g id="Group_12">
<path id="Vector_9" d="M36.7163 41.9854C35.1795 41.9854 33.6427 41.4 32.4613 40.2291C31.3218 39.0895 30.705 37.5841 30.705 35.9741C30.705 34.3641 31.3322 32.8586 32.4613 31.7191L32.8586 31.2591C33.1409 30.935 33.6427 30.9036 33.9668 31.1859C34.2909 31.4682 34.3222 31.97 34.04 32.2941L33.6113 32.7854C32.7331 33.6636 32.2731 34.7822 32.2731 35.9636C32.2731 37.145 32.7331 38.2636 33.58 39.1104C35.3154 40.8459 38.1277 40.8459 39.8631 39.1104L47.2545 31.7191C48.0909 30.8827 48.5613 29.7641 48.5613 28.5722C48.5613 27.3804 48.1013 26.2722 47.2545 25.4254C46.4077 24.5786 45.2995 24.1291 44.1181 24.1291C42.9368 24.1291 41.8181 24.5891 40.9818 25.4254L38.6818 27.7359C38.3786 28.0391 37.8768 28.0391 37.5736 27.7359C37.2704 27.4327 37.2704 26.9309 37.5736 26.6277L39.8631 24.3382C41.0027 23.1986 42.5081 22.5818 44.1181 22.5818C45.7281 22.5818 47.2336 23.2091 48.3731 24.3382C49.5127 25.4672 50.1295 26.9832 50.1295 28.5932C50.1295 30.2032 49.5022 31.7086 48.3731 32.8482L40.9818 40.2395C39.8004 41.4 38.2531 41.9854 36.7163 41.9854Z" fill="#4E6575"/>
</g>
<g id="Group_13">
<path id="Vector_10" d="M24.8922 46.4285C23.2822 46.4285 21.7768 45.8012 20.6372 44.6721C19.4977 43.5326 18.8809 42.0271 18.8809 40.4171C18.8809 38.8071 19.5081 37.3017 20.6372 36.1621L28.0286 28.7708C29.1681 27.6312 30.6736 27.0144 32.2836 27.0144C33.8936 27.0144 35.399 27.6417 36.5386 28.7708C37.6781 29.8999 38.295 31.4158 38.295 33.0258C38.295 34.6358 37.6677 36.1412 36.5386 37.2808L35.8277 38.0021C35.5245 38.3053 35.0227 38.3053 34.7195 38.0021C34.4163 37.6989 34.4163 37.1971 34.7195 36.894L35.4304 36.1726C36.2668 35.3362 36.7372 34.2176 36.7372 33.0258C36.7372 31.834 36.2772 30.7258 35.4304 29.8789C34.5836 29.0321 33.4754 28.5826 32.294 28.5826C31.1022 28.5826 29.994 29.0426 29.1472 29.8789L21.7559 37.2703C20.9195 38.1067 20.449 39.2253 20.449 40.4171C20.449 41.609 20.909 42.7171 21.7559 43.5535C22.6027 44.3899 23.7109 44.8499 24.8922 44.8499C26.0736 44.8499 27.1922 44.3899 28.0286 43.5535L30.3181 41.264C30.6213 40.9608 31.1231 40.9608 31.4263 41.264C31.7295 41.5671 31.7295 42.0689 31.4263 42.3721L29.1368 44.6617C28.0077 45.8012 26.4918 46.4285 24.8922 46.4285Z" fill="#4E6575"/>
</g>
</g>
</g>
</g>
</svg>
