<svg width="69" height="69" viewBox="0 0 69 69" fill="none" xmlns="http://www.w3.org/2000/svg">
<g id="fi_4801226">
<g id="Group">
<g id="Group_2">
<path id="Vector" d="M25.0449 17.0883V12.9915H11.04V28.0744H37.0875V17.0883H25.0449Z" fill="#FED28B"/>
<path id="Vector_2" d="M20.948 26.9963H6.94312V37.8854H20.948H39.3947V26.9963H20.948Z" fill="#FED28B"/>
<path id="Vector_3" d="M4.77609 44.7961H44.2031V50.2838H4.77609V44.7961Z" fill="#B9C8D6"/>
<path id="Vector_4" d="M64.2239 35.6644V50.2945H43.125V21.1636H54.0895C56.2458 21.1636 58.1756 22.274 58.9303 23.9559L59.5664 25.3575L63.9328 35.0175L64.2239 35.6644Z" fill="#E7ECF2"/>
<path id="Vector_5" d="M4.77609 36.8071H44.2031V45.8742H4.77609V36.8071Z" fill="#E7ECF2"/>
<path id="Vector_6" d="M63.9328 35.0177H53.0006C51.7392 35.0177 50.715 34.0581 50.715 32.8614V27.5139C50.715 26.328 51.7392 25.3577 53.0006 25.3577H59.5664L63.9328 35.0177Z" fill="#8CB4E5"/>
<g id="Group_3">
<path id="Vector_7" d="M15.8549 12.9915H20.1275V17.2641H15.8549V12.9915Z" fill="#F96D87"/>
<path id="Vector_8" d="M27.8631 26.9963H32.1357V32.3471H27.8631V26.9963Z" fill="#F96D87"/>
<path id="Vector_9" d="M29.1277 17.0894H33.4003V21.362H29.1277V17.0894Z" fill="#F96D87"/>
<path id="Vector_10" d="M11.7246 27.0017H16.1643V31.4414H11.7246V27.0017Z" fill="#F96D87"/>
</g>
<path id="Vector_11" d="M58.7751 38.489H64.225V42.1859H58.7751V38.489Z" fill="#FED28B"/>
<path id="Vector_12" d="M17.3405 56.0087C20.4993 56.0087 23.06 53.448 23.06 50.2893C23.06 47.1305 20.4993 44.5698 17.3405 44.5698C14.1818 44.5698 11.6211 47.1305 11.6211 50.2893C11.6211 53.448 14.1818 56.0087 17.3405 56.0087Z" fill="#5F5F6B"/>
<path id="Vector_13" d="M55.4318 56.0087C58.5906 56.0087 61.1512 53.448 61.1512 50.2893C61.1512 47.1305 58.5906 44.5698 55.4318 44.5698C52.273 44.5698 49.7123 47.1305 49.7123 50.2893C49.7123 53.448 52.273 56.0087 55.4318 56.0087Z" fill="#5F5F6B"/>
<path id="Vector_14" d="M17.3405 52.4035C18.5153 52.4035 19.4677 51.4511 19.4677 50.2763C19.4677 49.1015 18.5153 48.1492 17.3405 48.1492C16.1658 48.1492 15.2134 49.1015 15.2134 50.2763C15.2134 51.4511 16.1658 52.4035 17.3405 52.4035Z" fill="#E7ECF2"/>
<path id="Vector_15" d="M55.4318 52.4035C56.6066 52.4035 57.5589 51.4511 57.5589 50.2763C57.5589 49.1015 56.6066 48.1492 55.4318 48.1492C54.257 48.1492 53.3047 49.1015 53.3047 50.2763C53.3047 51.4511 54.257 52.4035 55.4318 52.4035Z" fill="#E7ECF2"/>
<path id="Vector_16" d="M54.1693 25.3577L51.5592 34.5239C51.9538 34.8279 52.4508 35.0177 53.0006 35.0177H53.4556L56.1854 25.3577H54.1693Z" fill="#6999C9"/>
<path id="Vector_17" d="M57.946 25.3577L55.365 35.0177H58.1746L60.3146 27.0137L59.5664 25.3577H57.946Z" fill="#6999C9"/>
<path id="Vector_18" d="M6.94312 34.1118V36.8071H20.948H39.3947V34.1118H6.94312Z" fill="#E2AF66"/>
<g id="Group_4">
<path id="Vector_19" d="M50.5533 40.3757H47.5927C46.9965 40.3757 46.5146 39.8927 46.5146 39.2976C46.5146 38.7025 46.9965 38.2195 47.5927 38.2195H50.5533C51.1495 38.2195 51.6314 38.7025 51.6314 39.2976C51.6314 39.8927 51.1484 40.3757 50.5533 40.3757Z" fill="#5F5F6B"/>
</g>
</g>
</g>
</g>
</svg>
