<svg viewBox="0 0 40 40" style="--text-color:#ffffff" class="w-6 md:w-8 h-6 md:h-8 text-[--text-color]"><path fill="currentColor" d="M33.3335 10.0007C34.3002 10.0007 35.0835 10.334 35.7002 10.984C36.3335 11.6673 36.6668 12.4173 36.6668 13.334V31.6673C36.6668 32.584 36.3335 33.334 35.7002 34.0173C35.0835 34.6673 34.3002 35.0007 33.3335 35.0007H6.66683C5.70016 35.0007 4.91683 34.6673 4.30016 34.0173C3.66683 33.334 3.3335 32.584 3.3335 31.6673V13.334C3.3335 12.4173 3.66683 11.6673 4.30016 10.984C4.91683 10.334 5.70016 10.0007 6.66683 10.0007H13.3335V6.66732C13.3335 5.70065 13.6668 4.91732 14.3002 4.30065C14.9168 3.66732 15.7002 3.33398 16.6668 3.33398H23.3335C24.3002 3.33398 25.0835 3.66732 25.7002 4.30065C26.3335 4.91732 26.6668 5.70065 26.6668 6.66732V10.0007H33.3335ZM6.66683 13.334V31.6673H33.3335V13.334H6.66683ZM23.3335 10.0007V6.66732H16.6668V10.0007H23.3335ZM17.4335 29.1673L28.4168 18.184L26.0668 15.834L17.4335 24.4507L13.9502 20.984L11.6002 23.334L17.4335 29.1673Z"></path></svg>