<svg viewBox="0 0 24 24" style="--text-color:#ffffff" class="w-6 md:w-8 h-6 md:h-8 text-[--text-color]"><path fill="currentColor" d="M16.5631 12.76C18.5131 13.42 20.2031 14.5 20.2031 16V21H4.20312V16C4.20312 14.5 5.89313 13.42 7.85313 12.76L8.47313 14L8.70312 14.5C7.20312 14.96 6.10313 15.62 6.10313 16V19.1H10.3231L11.2031 14.03L10.2631 12.15C10.8831 12.08 11.5331 12.03 12.2031 12.03C12.8731 12.03 13.5231 12.08 14.1431 12.15L13.2031 14.03L14.0831 19.1H18.3031V16C18.3031 15.62 17.2031 14.96 15.7031 14.5L15.9331 14L16.5631 12.76ZM12.2031 5C11.1031 5 10.2031 5.9 10.2031 7C10.2031 8.1 11.1031 9 12.2031 9C13.3031 9 14.2031 8.1 14.2031 7C14.2031 5.9 13.3031 5 12.2031 5ZM12.2031 11C9.99312 11 8.20312 9.21 8.20312 7C8.20312 4.79 9.99312 3 12.2031 3C14.4131 3 16.2031 4.79 16.2031 7C16.2031 9.21 14.4131 11 12.2031 11Z"></path></svg>