<svg width="235" height="343" viewBox="0 0 235 343" fill="none" xmlns="http://www.w3.org/2000/svg">
<g opacity="0.23">
<mask id="mask0" mask-type="alpha" maskUnits="userSpaceOnUse" x="-57" y="0" width="292" height="343">
<rect x="-57" width="292" height="342.877" fill="#C4C4C4"/>
</mask>
<g mask="url(#mask0)">
<circle cx="22" cy="102.161" r="3" fill="#1089FF"/>
<circle cx="55" cy="102.161" r="3" fill="#1089FF"/>
<circle cx="88" cy="102.161" r="3" fill="#1089FF"/>
<circle cx="121" cy="102.161" r="3" fill="#1089FF"/>
<circle cx="154" cy="102.161" r="3" fill="#1089FF"/>
<circle cx="187" cy="102.161" r="3" fill="#1089FF"/>
<circle cx="220" cy="102.161" r="3" fill="#1089FF"/>
<circle cx="22" cy="135.161" r="3" fill="#1089FF"/>
<circle cx="55" cy="135.161" r="3" fill="#1089FF"/>
<circle cx="88" cy="135.161" r="3" fill="#1089FF"/>
<circle cx="121" cy="135.161" r="3" fill="#1089FF"/>
<circle cx="154" cy="135.161" r="3" fill="#1089FF"/>
<circle cx="187" cy="135.161" r="3" fill="#1089FF"/>
<circle cx="220" cy="135.161" r="3" fill="#1089FF"/>
<circle cx="22" cy="168.161" r="3" fill="#1089FF"/>
<circle cx="55" cy="168.161" r="3" fill="#1089FF"/>
<circle cx="88" cy="168.161" r="3" fill="#1089FF"/>
<circle cx="121" cy="168.161" r="3" fill="#1089FF"/>
<circle cx="154" cy="168.161" r="3" fill="#1089FF"/>
<circle cx="187" cy="168.161" r="3" fill="#1089FF"/>
<circle cx="220" cy="168.161" r="3" fill="#1089FF"/>
<circle cx="22" cy="201.161" r="3" fill="#1089FF"/>
<circle cx="55" cy="201.161" r="3" fill="#1089FF"/>
<circle cx="88" cy="201.161" r="3" fill="#1089FF"/>
<circle cx="121" cy="201.161" r="3" fill="#1089FF"/>
<circle cx="154" cy="201.161" r="3" fill="#1089FF"/>
<circle cx="187" cy="201.161" r="3" fill="#1089FF"/>
<circle cx="220" cy="201.161" r="3" fill="#1089FF"/>
<circle cx="22" cy="234.161" r="3" fill="#1089FF"/>
<circle cx="55" cy="234.161" r="3" fill="#1089FF"/>
<circle cx="88" cy="234.161" r="3" fill="#1089FF"/>
<circle cx="121" cy="234.161" r="3" fill="#1089FF"/>
<circle cx="154" cy="234.161" r="3" fill="#1089FF"/>
<circle cx="187" cy="234.161" r="3" fill="#1089FF"/>
<circle cx="220" cy="234.161" r="3" fill="#1089FF"/>
<circle cx="22" cy="267.161" r="3" fill="#1089FF"/>
<circle cx="55" cy="267.161" r="3" fill="#1089FF"/>
<circle cx="88" cy="267.161" r="3" fill="#1089FF"/>
<circle cx="121" cy="267.161" r="3" fill="#1089FF"/>
<circle cx="154" cy="267.161" r="3" fill="#1089FF"/>
<circle cx="187" cy="267.161" r="3" fill="#1089FF"/>
<circle cx="220" cy="267.161" r="3" fill="#1089FF"/>
<circle cx="22" cy="300.161" r="3" fill="#1089FF"/>
<circle cx="55" cy="300.161" r="3" fill="#1089FF"/>
<circle cx="88" cy="300.161" r="3" fill="#1089FF"/>
<circle cx="121" cy="300.161" r="3" fill="#1089FF"/>
<circle cx="154" cy="300.161" r="3" fill="#1089FF"/>
<circle cx="187" cy="300.161" r="3" fill="#1089FF"/>
<circle cx="220" cy="300.161" r="3" fill="#1089FF"/>
<circle cx="22" cy="333.161" r="3" fill="#1089FF"/>
<circle cx="55" cy="333.161" r="3" fill="#1089FF"/>
<circle cx="88" cy="333.161" r="3" fill="#1089FF"/>
<circle cx="121" cy="333.161" r="3" fill="#1089FF"/>
<circle cx="154" cy="333.161" r="3" fill="#1089FF"/>
<circle cx="187" cy="333.161" r="3" fill="#1089FF"/>
<circle cx="220" cy="333.161" r="3" fill="#1089FF"/>
</g>
</g>
</svg>
