<?xml version="1.0" encoding="UTF-8"?>
<svg width="143px" height="50px" viewBox="0 0 143 50" version="1.1" xmlns="http://www.w3.org/2000/svg" xmlns:xlink="http://www.w3.org/1999/xlink">
    <!-- Generator: sketchtool 58 (101010) - https://sketch.com -->
    <title>E21475C2-0671-4C7C-9F98-C42C32EBDCF0</title>
    <desc>Created with sketchtool.</desc>
    <g id="3.0" stroke="none" stroke-width="1" fill="none" fill-rule="evenodd">
        <g id="000" transform="translate(-306.000000, -15.000000)" fill="#A44CEE">
            <g id="Group-4">
                <g id="Global_Garner" transform="translate(306.000000, 15.000000)">
                    <g id="Group">
                        <g id="GG_Logo-Copy">
                            <path d="M25,0 C38.8070552,0 50,11.1929448 50,25 C50,38.8070552 38.8070552,50 25,50 C11.1929448,50 0,38.8070552 0,25 C0,11.1929448 11.1929448,0 25,0 Z M17.2150307,10.2733129 L10.2846626,10.2733129 L10.2846626,15.5288344 C9.48773006,16.0021472 8.72546012,16.5911043 8.0208589,17.2957055 C5.89539877,19.4211656 4.80981595,22.0199387 4.80981595,25 C4.80981595,27.9917178 5.88404908,30.5791411 8.0208589,32.7039877 C8.72546012,33.408589 9.47638037,33.9978528 10.2846626,34.459816 L10.2846626,39.6113497 L17.2150307,39.6113497 L17.2150307,35.9153374 L23.6831288,35.9153374 L23.6831288,24.7113497 L17.0993865,24.7113497 L17.0993865,29.3312883 L15.7365031,29.3312883 C14.5352761,29.3312883 13.5187117,28.9273006 12.6527607,28.0610429 C11.7861963,27.1944785 11.3588957,26.1898773 11.3588957,24.9883436 C11.3588957,23.7871166 11.7861963,22.747546 12.6527607,21.9159509 C13.5187117,21.0843558 14.5352761,20.6570552 15.7365031,20.6570552 C17.3420245,20.6570552 18.7628834,21.4886503 19.5251534,22.8515337 L25,19.6984663 L30.4751534,22.8515337 C31.248773,21.5003067 32.6696319,20.6570552 34.2634969,20.6570552 C35.4647239,20.6570552 36.4812883,21.0843558 37.347546,21.9159509 C38.2138037,22.747546 38.6411043,23.798773 38.6411043,25 C38.6411043,26.201227 38.2138037,27.1944785 37.347546,28.0610429 C36.4812883,28.9273006 35.4647239,29.3312883 34.2634969,29.3312883 L32.8196319,29.3312883 L32.8196319,24.7113497 L26.351227,24.7113497 L26.351227,35.9150307 L32.2420245,35.9150307 L32.2420245,39.7269939 L39.1723926,39.7269939 L39.1723926,34.7714724 C40.1889571,34.2518405 41.1242331,33.5702454 41.9907975,32.7039877 C44.1159509,30.5791411 45.190184,27.9917178 45.190184,25 C45.190184,22.008589 44.1159509,19.4211656 41.9794479,17.2957055 C41.1128834,16.4297546 40.1776074,15.7481595 39.1607362,15.2285276 L39.1607362,10.2733129 L32.2303681,10.2733129 L32.2303681,14.2696319 C31.0757669,14.4889571 29.8858896,14.9282209 28.7886503,15.5631902 C27.206135,16.4874233 25.9355828,17.7003067 24.9883436,19.2248466 C24.0411043,17.6886503 22.7825153,16.4757669 21.2113497,15.5631902 C19.9407975,14.8242331 18.6009202,14.3619632 17.2150307,14.1773006 L17.2150307,10.2733129 Z" id="Combined-Shape"></path>
                        </g>
                        <path d="M66.1901855,12.5378418 L72.1008301,12.5378418 L72.1008301,20.6018066 C71.1340284,20.9167496 70.2056929,21.1401361 69.3157959,21.2719727 C68.4258989,21.4038093 67.4646048,21.4697266 66.4318848,21.4697266 C64.000232,21.4697266 62.1252507,20.7501293 60.8068848,19.3109131 C59.4885188,17.8716969 58.8293457,15.8410776 58.8293457,13.2189941 C58.8293457,10.633532 59.5727465,8.6102368 61.0595703,7.14904785 C62.5463942,5.68785891 64.5934928,4.95727539 67.2009277,4.95727539 C68.8781822,4.95727539 70.4675218,5.27953779 71.9689941,5.92407227 L71.0461426,8.11035156 C69.7424251,7.50976262 68.4387272,7.20947266 67.1350098,7.20947266 C65.421134,7.20947266 64.0661671,7.74779735 63.0700684,8.82446289 C62.0739696,9.90112843 61.5759277,11.3732817 61.5759277,13.2409668 C61.5759277,15.2038672 62.0245316,16.6961619 62.9217529,17.7178955 C63.8189742,18.7396291 65.1098549,19.2504883 66.7944336,19.2504883 C67.6440472,19.2504883 68.5522413,19.1442882 69.519043,18.9318848 L69.519043,14.7900391 L66.1901855,14.7900391 L66.1901855,12.5378418 Z M78.2641602,21.25 L75.682373,21.25 L75.682373,4.15527344 L78.2641602,4.15527344 L78.2641602,21.25 Z M92.7331543,15.1525879 C92.7331543,17.1374611 92.2241262,18.6865179 91.2060547,19.7998047 C90.1879832,20.9130915 88.770761,21.4697266 86.9543457,21.4697266 C85.8190861,21.4697266 84.8156782,21.2133815 83.9440918,20.7006836 C83.0725054,20.1879857 82.4023461,19.4519091 81.9335938,18.4924316 C81.4648414,17.5329542 81.2304688,16.4196841 81.2304688,15.1525879 C81.2304688,13.1823632 81.7358348,11.6442926 82.746582,10.5383301 C83.7573293,9.43236752 85.1818756,8.87939453 87.0202637,8.87939453 C88.778085,8.87939453 90.1696726,9.44518477 91.1950684,10.5767822 C92.2204641,11.7083797 92.7331543,13.233633 92.7331543,15.1525879 Z M83.8891602,15.1525879 C83.8891602,17.9577777 84.9255267,19.3603516 86.998291,19.3603516 C89.0490825,19.3603516 90.0744629,17.9577777 90.0744629,15.1525879 C90.0744629,12.3766951 89.0417584,10.9887695 86.9763184,10.9887695 C85.8923286,10.9887695 85.106814,11.3476527 84.619751,12.0654297 C84.132688,12.7832067 83.8891602,13.8122492 83.8891602,15.1525879 Z M101.906738,8.87939453 C103.422859,8.87939453 104.603878,9.42870544 105.449829,10.5273438 C106.295781,11.6259821 106.71875,13.1677147 106.71875,15.1525879 C106.71875,17.1447854 106.290287,18.6956732 105.43335,19.8052979 C104.576412,20.9149225 103.386238,21.4697266 101.862793,21.4697266 C100.324699,21.4697266 99.1308636,20.9167536 98.28125,19.810791 L98.1054688,19.810791 L97.6330566,21.25 L95.6994629,21.25 L95.6994629,4.15527344 L98.28125,4.15527344 L98.28125,8.22021484 C98.28125,8.43471089 98.2737764,8.72394082 98.258829,9.08790952 L98.1988525,10.2883919 C98.1878662,10.4769901 98.178711,10.6115719 98.1713867,10.6921387 L98.28125,10.6921387 C99.1015666,9.48363654 100.310051,8.87939453 101.906738,8.87939453 Z M101.236572,10.9887695 C100.196528,10.9887695 99.4476341,11.2945526 98.9898682,11.9061279 C98.5321022,12.5177033 98.2958985,13.5412526 98.28125,14.9768066 L98.28125,15.1525879 C98.28125,16.6320875 98.5156227,17.7032438 98.984375,18.3660889 C99.4531273,19.028934 100.218501,19.3603516 101.280518,19.3603516 C102.196049,19.3603516 102.890012,18.9978064 103.362427,18.2727051 C103.834841,17.5476038 104.071045,16.500251 104.071045,15.1306152 C104.071045,12.369371 103.12623,10.9887695 101.236572,10.9887695 Z M117.320557,21.25 L116.804199,19.5581055 L116.716309,19.5581055 C116.130368,20.2978553 115.540774,20.8013903 114.94751,21.0687256 C114.354245,21.3360609 113.592534,21.4697266 112.662354,21.4697266 C111.4685,21.4697266 110.536502,21.1474642 109.866333,20.5029297 C109.196164,19.8583952 108.861084,18.9465391 108.861084,17.767334 C108.861084,16.5148863 109.326167,15.5700715 110.256348,14.9328613 C111.186528,14.2956511 112.60375,13.9477542 114.508057,13.8891602 L116.606445,13.8232422 L116.606445,13.1750488 C116.606445,12.3986778 116.425173,11.8182392 116.062622,11.4337158 C115.700071,11.0491924 115.137943,10.8569336 114.376221,10.8569336 C113.753659,10.8569336 113.156741,10.9484854 112.585449,11.1315918 C112.014157,11.3146982 111.464846,11.5307605 110.9375,11.7797852 L110.102539,9.93408203 C110.761722,9.58984203 111.48315,9.32800383 112.266846,9.14855957 C113.050541,8.96911531 113.79028,8.87939453 114.486084,8.87939453 C116.031502,8.87939453 117.197872,9.21630522 117.985229,9.89013672 C118.772587,10.5639682 119.16626,11.6223072 119.16626,13.0651855 L119.16626,21.25 L117.320557,21.25 Z M113.475342,19.4921875 C114.412846,19.4921875 115.165402,19.2303493 115.733032,18.706665 C116.300662,18.1829808 116.584473,17.4487352 116.584473,16.5039062 L116.584473,15.4492188 L115.024414,15.5151367 C113.808588,15.5590823 112.924197,15.7623273 112.371216,16.1248779 C111.818235,16.4874286 111.541748,17.0422326 111.541748,17.7893066 C111.541748,18.3313015 111.702879,18.7506089 112.025146,19.0472412 C112.347414,19.3438736 112.830807,19.4921875 113.475342,19.4921875 Z M125.351562,21.25 L122.769775,21.25 L122.769775,4.15527344 L125.351562,4.15527344 L125.351562,21.25 Z M66.1901855,37.5378418 L72.1008301,37.5378418 L72.1008301,45.6018066 C71.1340284,45.9167496 70.2056929,46.1401361 69.3157959,46.2719727 C68.4258989,46.4038093 67.4646048,46.4697266 66.4318848,46.4697266 C64.000232,46.4697266 62.1252507,45.7501293 60.8068848,44.3109131 C59.4885188,42.8716969 58.8293457,40.8410776 58.8293457,38.2189941 C58.8293457,35.633532 59.5727465,33.6102368 61.0595703,32.1490479 C62.5463942,30.6878589 64.5934928,29.9572754 67.2009277,29.9572754 C68.8781822,29.9572754 70.4675218,30.2795378 71.9689941,30.9240723 L71.0461426,33.1103516 C69.7424251,32.5097626 68.4387272,32.2094727 67.1350098,32.2094727 C65.421134,32.2094727 64.0661671,32.7477974 63.0700684,33.8244629 C62.0739696,34.9011284 61.5759277,36.3732817 61.5759277,38.2409668 C61.5759277,40.2038672 62.0245316,41.6961619 62.9217529,42.7178955 C63.8189742,43.7396291 65.1098549,44.2504883 66.7944336,44.2504883 C67.6440472,44.2504883 68.5522413,44.1442882 69.519043,43.9318848 L69.519043,39.7900391 L66.1901855,39.7900391 L66.1901855,37.5378418 Z M83.2849121,46.25 L82.7685547,44.5581055 L82.6806641,44.5581055 C82.0947236,45.2978553 81.5051299,45.8013903 80.9118652,46.0687256 C80.3186005,46.3360609 79.5568894,46.4697266 78.626709,46.4697266 C77.4328554,46.4697266 76.5008578,46.1474642 75.8306885,45.5029297 C75.1605191,44.8583952 74.8254395,43.9465391 74.8254395,42.767334 C74.8254395,41.5148863 75.2905227,40.5700715 76.2207031,39.9328613 C77.1508836,39.2956511 78.5681057,38.9477542 80.4724121,38.8891602 L82.5708008,38.8232422 L82.5708008,38.1750488 C82.5708008,37.3986778 82.3895282,36.8182392 82.0269775,36.4337158 C81.6644269,36.0491924 81.1022987,35.8569336 80.3405762,35.8569336 C79.7180145,35.8569336 79.1210966,35.9484854 78.5498047,36.1315918 C77.9785128,36.3146982 77.4292019,36.5307605 76.9018555,36.7797852 L76.0668945,34.934082 C76.7260775,34.589842 77.4475058,34.3280038 78.2312012,34.1485596 C79.0148965,33.9691153 79.7546352,33.8793945 80.4504395,33.8793945 C81.9958573,33.8793945 83.1622275,34.2163052 83.949585,34.8901367 C84.7369424,35.5639682 85.1306152,36.6223072 85.1306152,38.0651855 L85.1306152,46.25 L83.2849121,46.25 Z M79.4396973,44.4921875 C80.377202,44.4921875 81.1297579,44.2303493 81.6973877,43.706665 C82.2650175,43.1829808 82.5488281,42.4487352 82.5488281,41.5039062 L82.5488281,40.4492188 L80.9887695,40.5151367 C79.7729431,40.5590823 78.8885526,40.7623273 78.3355713,41.1248779 C77.78259,41.4874286 77.5061035,42.0422326 77.5061035,42.7893066 C77.5061035,43.3313015 77.6672347,43.7506089 77.989502,44.0472412 C78.3117692,44.3438736 78.7951628,44.4921875 79.4396973,44.4921875 Z M94.8974609,33.8793945 C95.4174831,33.8793945 95.8459456,33.9160153 96.1828613,33.9892578 L95.9301758,36.3952637 C95.563963,36.3073726 95.1831074,36.2634277 94.7875977,36.2634277 C93.7548776,36.2634277 92.918094,36.6003384 92.2772217,37.2741699 C91.6363493,37.9480014 91.315918,38.8232368 91.315918,39.8999023 L91.315918,46.25 L88.7341309,46.25 L88.7341309,34.0991211 L90.7556152,34.0991211 L91.0961914,36.2414551 L91.2280273,36.2414551 C91.6308614,35.5163538 92.1563688,34.9414084 92.8045654,34.5166016 C93.452762,34.0917948 94.1503869,33.8793945 94.8974609,33.8793945 Z M109.124756,46.25 L106.531982,46.25 L106.531982,38.7792969 C106.531982,37.8417922 106.343386,37.1423363 105.966187,36.6809082 C105.588987,36.2194801 104.990238,35.9887695 104.169922,35.9887695 C103.078608,35.9887695 102.280276,36.3110319 101.774902,36.9555664 C101.269529,37.6001009 101.016846,38.6804123 101.016846,40.1965332 L101.016846,46.25 L98.4350586,46.25 L98.4350586,34.0991211 L100.456543,34.0991211 L100.819092,35.6921387 L100.950928,35.6921387 C101.317141,35.1135225 101.837155,34.6667496 102.510986,34.3518066 C103.184818,34.0368637 103.931881,33.8793945 104.752197,33.8793945 C107.667251,33.8793945 109.124756,35.362534 109.124756,38.3288574 L109.124756,46.25 Z M118.023682,46.4697266 C116.134024,46.4697266 114.656377,45.9185846 113.590698,44.8162842 C112.525019,43.7139837 111.992188,42.1960546 111.992188,40.2624512 C111.992188,38.277578 112.486567,36.717535 113.475342,35.5822754 C114.464116,34.4470158 115.822745,33.8793945 117.55127,33.8793945 C119.155281,33.8793945 120.422359,34.3664502 121.352539,35.3405762 C122.282719,36.3147021 122.747803,37.6550208 122.747803,39.3615723 L122.747803,40.7568359 L114.650879,40.7568359 C114.6875,41.9360411 115.006101,42.8424041 115.606689,43.4759521 C116.207278,44.1095002 117.053217,44.4262695 118.144531,44.4262695 C118.862308,44.4262695 119.530637,44.3585212 120.149536,44.2230225 C120.768436,44.0875237 121.433102,43.8623063 122.143555,43.5473633 L122.143555,45.645752 C121.513669,45.9460464 120.876468,46.1584466 120.231934,46.282959 C119.587399,46.4074713 118.851322,46.4697266 118.023682,46.4697266 Z M117.55127,35.8349609 C116.730953,35.8349609 116.073611,36.0949681 115.579224,36.6149902 C115.084836,37.1350124 114.79004,37.8930614 114.694824,38.8891602 L120.209961,38.8891602 C120.195312,37.8857372 119.953616,37.1258571 119.484863,36.6094971 C119.016111,36.0931371 118.371586,35.8349609 117.55127,35.8349609 Z M131.844482,33.8793945 C132.364505,33.8793945 132.792967,33.9160153 133.129883,33.9892578 L132.877197,36.3952637 C132.510984,36.3073726 132.130129,36.2634277 131.734619,36.2634277 C130.701899,36.2634277 129.865116,36.6003384 129.224243,37.2741699 C128.583371,37.9480014 128.262939,38.8232368 128.262939,39.8999023 L128.262939,46.25 L125.681152,46.25 L125.681152,34.0991211 L127.702637,34.0991211 L128.043213,36.2414551 L128.175049,36.2414551 C128.577883,35.5163538 129.10339,34.9414084 129.751587,34.5166016 C130.399784,34.0917948 131.097408,33.8793945 131.844482,33.8793945 Z" id="GlobalGarner" fill-rule="nonzero"></path>
                        <path d="M136.25,0 C139.70178,0 142.5,2.79822031 142.5,6.25 C142.5,9.70177969 139.70178,12.5 136.25,12.5 C132.79822,12.5 130,9.70177969 130,6.25 C130,2.79822031 132.79822,0 136.25,0 Z M135.708008,2.5 L133.75,2.5 L133.75,9.63867188 L134.580078,9.63867188 L134.580078,6.66992188 L136.069336,6.66992188 L137.797852,9.63867188 L138.779297,9.63867188 L136.84082,6.43066406 C137.797856,6.09863115 138.276367,5.4606167 138.276367,4.51660156 C138.276367,3.84277007 138.067222,3.33821782 137.648926,3.00292969 C137.230629,2.66764155 136.583663,2.5 135.708008,2.5 L135.708008,2.5 Z M135.65918,3.22753906 C136.274417,3.22753906 136.72119,3.33170469 136.999512,3.54003906 C137.277833,3.74837344 137.416992,4.08853931 137.416992,4.56054688 C137.416992,5.02604399 137.280275,5.3751616 137.006836,5.60791016 C136.733397,5.84065872 136.303714,5.95703125 135.717773,5.95703125 L134.580078,5.95703125 L134.580078,3.22753906 L135.65918,3.22753906 Z" id="Combined-Shape" fill-rule="nonzero"></path>
                    </g>
                </g>
            </g>
        </g>
    </g>
</svg>