<?xml version="1.0" encoding="utf-8"?>
<!-- Generator: Adobe Illustrator 27.8.0, SVG Export Plug-In . SVG Version: 6.00 Build 0)  -->
<svg version="1.1" id="Layer_1" xmlns="http://www.w3.org/2000/svg" xmlns:xlink="http://www.w3.org/1999/xlink" x="0px" y="0px"
	 viewBox="0 0 2635.8 1080" style="enable-background:new 0 0 2635.8 1080;" xml:space="preserve">
<style type="text/css">
	.st0{fill:url(#SVGID_1_);}
	.st1{fill:url(#SVGID_00000043432239542350941040000011714761762605989006_);}
	.st2{fill:url(#SVGID_00000062893761521724194700000007836857697622216091_);}
	.st3{fill:url(#SVGID_00000106136097059089511930000007418080147520011934_);}
	.st4{fill:url(#SVGID_00000016781297907063091290000018237753292393762495_);}
	.st5{fill:#244199;}
	.st6{fill:#FFFFFF;}
	.st7{fill:#672BB2;}
	.st8{clip-path:url(#SVGID_00000163781558842091835420000009909194204203668355_);}
	.st9{font-family:'Kanit-Light';}
	.st10{font-size:179.9748px;}
	.st11{font-family:'Kanit-Regular';}
	.st12{font-size:254.354px;}
	
		.st13{clip-path:url(#SVGID_00000057131012259451183140000007516744125696980138_);fill:url(#SVGID_00000100359649144745070290000004624405865848063907_);}
	
		.st14{clip-path:url(#SVGID_00000026867797662443528580000014732099478244940209_);fill:url(#SVGID_00000111157936574842143180000007020851051818013861_);}
	.st15{fill:url(#SVGID_00000170975770944959131110000009285674243072435371_);}
	.st16{fill:url(#SVGID_00000015331847336704189270000010699219332071458689_);}
	.st17{fill:url(#SVGID_00000093150291699960956490000013496794445286367105_);}
</style>
<g>
	<text transform="matrix(1 0 0 1 1180.5739 731.9113)" class="st9 st10">Services</text>
</g>
<text transform="matrix(1 0 0 1 774.6306 559.5265)" class="st7 st11 st12">Consultancy</text>
<g>
	<g>
		<g>
			<linearGradient id="SVGID_1_" gradientUnits="userSpaceOnUse" x1="647.1636" y1="337.5045" x2="640.1048" y2="738.4457">
				<stop  offset="0" style="stop-color:#672BB2"/>
				<stop  offset="1" style="stop-color:#D96DAE"/>
			</linearGradient>
			<path class="st0" d="M633.7,384.5v-28.7h12.2c3.1,0,5.3,0.3,6.7,0.8s2.5,1.4,3.3,2.7c0.8,1.3,1.3,2.8,1.3,4.5
				c0,2.2-0.6,3.9-1.9,5.3c-1.3,1.4-3.2,2.3-5.7,2.7c1.3,0.7,2.3,1.5,3.1,2.4s1.9,2.4,3.3,4.7l3.5,5.6h-6.9l-4.2-6.2
				c-1.5-2.2-2.5-3.6-3.1-4.2c-0.5-0.6-1.1-1-1.7-1.2c-0.6-0.2-1.6-0.3-2.9-0.3h-1.2v12H633.7z M639.5,368h4.3
				c2.8,0,4.5-0.1,5.2-0.4c0.7-0.2,1.2-0.6,1.6-1.2c0.4-0.6,0.6-1.3,0.6-2.2c0-1-0.3-1.7-0.8-2.3c-0.5-0.6-1.2-1-2.2-1.1
				c-0.5-0.1-1.9-0.1-4.2-0.1h-4.5V368z"/>
		</g>
		<g>
			
				<linearGradient id="SVGID_00000041993344702306405170000016411026853263542403_" gradientUnits="userSpaceOnUse" x1="646.1516" y1="337.4867" x2="639.0928" y2="738.4279">
				<stop  offset="0" style="stop-color:#672BB2"/>
				<stop  offset="1" style="stop-color:#D96DAE"/>
			</linearGradient>
			<path style="fill:url(#SVGID_00000041993344702306405170000016411026853263542403_);" d="M645.6,397.3
				c-14.6,0-26.6-11.9-26.6-26.6c0-14.6,11.9-26.6,26.6-26.6c14.6,0,26.6,11.9,26.6,26.6C672.1,385.4,660.2,397.3,645.6,397.3z
				 M645.6,347.5c-12.8,0-23.2,10.4-23.2,23.2s10.4,23.2,23.2,23.2s23.2-10.4,23.2-23.2S658.4,347.5,645.6,347.5z"/>
		</g>
	</g>
	<g id="XMLID_00000065072715261395195530000015718903646629762224_">
		<g id="XMLID_00000072973738503312436870000009506166478523371709_">
			
				<linearGradient id="SVGID_00000075878024979864365170000018071465714280739472_" gradientUnits="userSpaceOnUse" x1="409.6906" y1="445.559" x2="402.3224" y2="864.0767">
				<stop  offset="0" style="stop-color:#672BB2"/>
				<stop  offset="0.9697" style="stop-color:#D96DAE"/>
			</linearGradient>
			<path style="fill:url(#SVGID_00000075878024979864365170000018071465714280739472_);" d="M647,557c0-35.5-12.7-66.1-38.1-91.3
				c-10.3-10.3-21.4-18.3-33.4-24.5v-58.7h-82.1v47.4c-13.7,2.6-27.8,7.8-40.8,15.3c-18.8,11-33.8,25.3-45,43.4
				c-11.2-18.2-26.1-32.6-44.8-43.4c-15.1-8.8-30.9-14.2-47.4-16.4v-46.3h-82.1v62.3c-9.4,5.6-18.5,12.6-26.8,20.9
				c-25.2,25.2-38.1,56-38.1,91.3c0,35.5,12.7,66.1,38.1,91.3c8.4,8.4,17.2,15.3,26.8,20.8v61.1h82.1v-43.8h76.7V553.6h-78v54.8
				h-7.8h-8.4c-14.2,0-26.3-4.8-36.6-15.1s-15.3-22.2-15.3-36.4c0-14.2,5.1-26.6,15.3-36.4c10.3-9.9,22.3-14.9,36.6-14.9
				c19,0,35.9,9.9,44.9,26l64.9-37.4l64.9,37.4c9.2-16,26-26,44.9-26c14.2,0,26.3,5.1,36.5,14.9c10.3,9.9,15.3,22.3,15.3,36.5
				c0,14.2-5.1,26-15.3,36.3s-22.3,15.1-36.5,15.1h-8.4h-8.8v-54.8h-76.7v132.8h69.8v45.2h82.1v-58.7c12-6.2,23.1-14.2,33.4-24.5
				C634.3,623.2,647,592.5,647,557z"/>
		</g>
	</g>
</g>
</svg>
