<?xml version="1.0" encoding="utf-8"?>
<!-- Generator: Adobe Illustrator 27.8.0, SVG Export Plug-In . SVG Version: 6.00 Build 0)  -->
<svg version="1.1" id="Layer_1" xmlns="http://www.w3.org/2000/svg" xmlns:xlink="http://www.w3.org/1999/xlink" x="0px" y="0px"
	 viewBox="0 0 2635.8 1080" style="enable-background:new 0 0 2635.8 1080;" xml:space="preserve">
<style type="text/css">
	.st0{fill:url(#SVGID_1_);}
	.st1{fill:url(#SVGID_00000089567985924902886890000012830351396388117410_);}
	.st2{fill:url(#SVGID_00000078020266414168700420000015640704179594552214_);}
	.st3{fill:url(#SVGID_00000058553451530956125990000001288627813758412168_);}
	.st4{fill:url(#SVGID_00000164505357514969024530000011437476193941509525_);}
	.st5{fill:#244199;}
	.st6{fill:#FFFFFF;}
	.st7{fill:#672BB2;}
	.st8{clip-path:url(#SVGID_00000038397265694311887000000000602869608032484535_);}
	
		.st9{clip-path:url(#SVGID_00000031168139760240309010000013951070885158881211_);fill:url(#SVGID_00000017496356206549556370000014231058197934541701_);}
	.st10{font-family:'Kanit-Light';}
	.st11{font-size:179.9748px;}
	.st12{font-family:'Kanit-Regular';}
	.st13{font-size:254.354px;}
	
		.st14{clip-path:url(#SVGID_00000123404695506417105200000015074217481879234218_);fill:url(#SVGID_00000104688954325446981120000018215785147114125963_);}
	.st15{fill:url(#SVGID_00000053539366589024267660000015607395206922343326_);}
	.st16{fill:url(#SVGID_00000150104880562253448270000012753456472743093413_);}
	.st17{fill:url(#SVGID_00000164485975766222857770000001060136559702081953_);}
</style>
<g>
	<g>
		<g>
			<g>
				<path class="st7" d="M633.7,384.5v-28.7h12.2c3.1,0,5.3,0.3,6.7,0.8s2.5,1.4,3.3,2.7c0.8,1.3,1.3,2.8,1.3,4.5
					c0,2.2-0.6,3.9-1.9,5.3c-1.3,1.4-3.2,2.3-5.7,2.7c1.3,0.7,2.3,1.5,3.1,2.4s1.9,2.4,3.3,4.7l3.5,5.6h-6.9l-4.2-6.2
					c-1.5-2.2-2.5-3.6-3.1-4.2c-0.5-0.6-1.1-1-1.7-1.2c-0.6-0.2-1.6-0.3-2.9-0.3h-1.2v12H633.7z M639.5,368h4.3
					c2.8,0,4.5-0.1,5.2-0.4c0.7-0.2,1.2-0.6,1.6-1.2c0.4-0.6,0.6-1.3,0.6-2.2c0-1-0.3-1.7-0.8-2.3c-0.5-0.6-1.2-1-2.2-1.1
					c-0.5-0.1-1.9-0.1-4.2-0.1h-4.5V368z"/>
			</g>
			<g>
				<path class="st7" d="M645.6,397.3c-14.6,0-26.6-11.9-26.6-26.6c0-14.6,11.9-26.6,26.6-26.6c14.6,0,26.6,11.9,26.6,26.6
					C672.1,385.4,660.2,397.3,645.6,397.3z M645.6,347.5c-12.8,0-23.2,10.4-23.2,23.2s10.4,23.2,23.2,23.2s23.2-10.4,23.2-23.2
					S658.4,347.5,645.6,347.5z"/>
			</g>
		</g>
		<g id="XMLID_00000106867641910598411710000000152123456949612727_">
			<g id="XMLID_00000160880744835035915720000009365056648911650491_">
				<path class="st7" d="M647,557c0-35.5-12.7-66.1-38.1-91.3c-10.3-10.3-21.4-18.3-33.4-24.5v-58.7h-82.1v47.4
					c-13.7,2.6-27.8,7.8-40.8,15.3c-18.8,11-33.8,25.3-45,43.4c-11.2-18.2-26.1-32.6-44.8-43.4c-15.1-8.8-30.9-14.2-47.4-16.4v-46.3
					h-82.1v62.3c-9.4,5.6-18.5,12.6-26.8,20.9c-25.2,25.2-38.1,56-38.1,91.3c0,35.5,12.7,66.1,38.1,91.3
					c8.4,8.4,17.2,15.3,26.8,20.8v61.1h82.1v-43.8h76.7V553.6h-78v54.8h-7.8h-8.4c-14.2,0-26.3-4.8-36.6-15.1s-15.3-22.2-15.3-36.4
					c0-14.2,5.1-26.6,15.3-36.4c10.3-9.9,22.3-14.9,36.6-14.9c19,0,35.9,9.9,44.9,26l64.9-37.4l64.9,37.4c9.2-16,26-26,44.9-26
					c14.2,0,26.3,5.1,36.5,14.9c10.3,9.9,15.3,22.3,15.3,36.5c0,14.2-5.1,26-15.3,36.3s-22.3,15.1-36.5,15.1h-8.4h-8.8v-54.8h-76.7
					v132.8h69.8v45.2h82.1v-58.7c12-6.2,23.1-14.2,33.4-24.5C634.3,623.2,647,592.5,647,557z"/>
			</g>
		</g>
	</g>
</g>
<g>
	<text transform="matrix(1 0 0 1 1180.5743 731.9108)" class="st10 st11">Services</text>
</g>
<g>
	<defs>
		
			<text id="SVGID_00000170995552400764365590000008141252038523277962_" transform="matrix(1 0 0 1 774.631 559.526)" class="st12 st13">Consultancy</text>
	</defs>
	<clipPath id="SVGID_00000083063828620630616220000017685404488108953771_">
		<use xlink:href="#SVGID_00000170995552400764365590000008141252038523277962_"  style="overflow:visible;"/>
	</clipPath>
	<linearGradient id="SVGID_1_" gradientUnits="userSpaceOnUse" x1="770.8823" y1="461.7059" x2="2515.8235" y2="461.7059">
		<stop  offset="0" style="stop-color:#672BB2"/>
		<stop  offset="0.1533" style="stop-color:#7030B2"/>
		<stop  offset="0.4027" style="stop-color:#883EB1"/>
		<stop  offset="0.7152" style="stop-color:#AF55AF"/>
		<stop  offset="1" style="stop-color:#D96DAE"/>
	</linearGradient>
	
		<rect x="770.9" y="345.2" style="clip-path:url(#SVGID_00000083063828620630616220000017685404488108953771_);fill:url(#SVGID_1_);" width="1744.9" height="232.9"/>
</g>
</svg>
